<svg width="150" height="38" viewBox="0 0 150 38" fill="none" xmlns="http://www.w3.org/2000/svg">
    <path fill-rule="evenodd" clip-rule="evenodd" d="M61.1708 27.5922C60.2197 27.5922 59.409 27.5023 58.7385 27.3225C58.0681 27.1428 57.5068 26.9181 57.0702 26.6635C56.5713 26.3789 56.1347 26.0643 55.7761 25.7198L54.9498 27.4124H52.2524V3.67102H55.9944V12.149C56.353 11.7895 56.7896 11.475 57.2885 11.1904C57.7407 10.9657 58.2708 10.756 58.91 10.5613C59.5493 10.3516 60.2977 10.2617 61.1864 10.2617C62.4337 10.2617 63.6031 10.4714 64.6789 10.9058C65.7547 11.3402 66.7058 11.9393 67.5322 12.7032C68.3585 13.4672 68.9978 14.3809 69.4499 15.4294C69.9177 16.4779 70.1359 17.6462 70.1359 18.9194C70.1359 20.1926 69.9021 21.361 69.4499 22.4245C68.9822 23.488 68.3429 24.4017 67.5322 25.1656C66.7058 25.9295 65.7547 26.5287 64.6789 26.9481C63.5875 27.3825 62.4181 27.5922 61.1708 27.5922ZM60.9681 13.4522C60.2509 13.4522 59.5649 13.587 58.91 13.8416C58.2552 14.1112 57.6783 14.4857 57.1794 14.98C56.6804 15.4743 56.2751 16.0435 55.9944 16.7176C55.6982 17.3916 55.5578 18.1256 55.5578 18.9194C55.5578 19.7283 55.6982 20.4623 55.9944 21.1213C56.2907 21.7804 56.6804 22.3646 57.1794 22.8439C57.6783 23.3382 58.2552 23.7127 58.91 23.9823C59.5649 24.2519 60.2353 24.3717 60.9681 24.3717C61.6853 24.3717 62.3714 24.2369 63.0262 23.9823C63.681 23.7127 64.2579 23.3382 64.7569 22.8439C65.2558 22.3496 65.6456 21.7804 65.9418 21.1213C66.2381 20.4623 66.3784 19.7283 66.3784 18.9194C66.3784 18.1106 66.2381 17.3766 65.9418 16.7176C65.6456 16.0585 65.2558 15.4743 64.7569 14.995C64.2579 14.5007 63.681 14.1262 63.0262 13.8566C62.3714 13.587 61.6853 13.4522 60.9681 13.4522ZM89.8597 22.5139C89.5478 23.2179 89.158 23.877 88.6747 24.4761C88.2069 25.0903 87.6301 25.6295 86.9752 26.0938C86.3048 26.5582 85.5408 26.9177 84.6677 27.1873C83.7945 27.4569 82.8123 27.5767 81.7364 27.5767C80.4891 27.5767 79.3198 27.367 78.2439 26.9476C77.1681 26.5282 76.217 25.9291 75.4063 25.1652C74.5955 24.4012 73.9563 23.4875 73.5041 22.439C73.0364 21.3905 72.8181 20.2072 72.8181 18.919C72.8181 17.6458 73.052 16.4775 73.5041 15.4289C73.9719 14.3804 74.5799 13.4667 75.3751 12.7028C76.1547 11.9389 77.0902 11.3397 78.1504 10.9054C79.2262 10.471 80.3488 10.2613 81.5338 10.2613C82.7187 10.2613 83.8569 10.471 84.9171 10.9054C85.9929 11.3397 86.9128 11.9389 87.6924 12.7028C88.472 13.4667 89.0957 14.3804 89.5634 15.4289C90.0312 16.4775 90.2494 17.6458 90.2494 18.919C90.2494 19.1137 90.2339 19.3085 90.2027 19.5032C90.1912 19.5745 90.1819 19.6419 90.1731 19.7052L90.1731 19.7054L90.1731 19.7055C90.1579 19.8149 90.1444 19.9122 90.1247 19.9975C90.1124 20.0624 90.1025 20.1251 90.0932 20.1845L90.0932 20.1846C90.0788 20.2758 90.0656 20.3593 90.0468 20.4319H76.7316C76.7783 20.9561 76.9498 21.4654 77.2461 21.9447C77.5267 22.424 77.8853 22.8435 78.3063 23.2029C78.7273 23.5624 79.2418 23.847 79.8343 24.0717C80.4268 24.2814 81.066 24.3863 81.7209 24.3863C82.859 24.3863 83.7634 24.1616 84.4338 23.7272C85.1042 23.2928 85.5876 22.8734 85.8838 22.5139H89.8597ZM81.5338 13.4517C80.2864 13.4517 79.2418 13.8412 78.3843 14.6051C77.5267 15.369 76.981 16.3726 76.7472 17.6159H86.7413C86.5231 16.3876 85.9773 15.384 85.0886 14.6201C84.1999 13.8412 83.015 13.4517 81.5338 13.4517ZM103.937 10.7104C103.033 10.3958 102.035 10.246 100.959 10.246C98.6515 10.246 96.8584 10.7553 95.6267 11.7439C94.3482 12.7475 93.6466 14.0057 93.5374 15.5186H97.2794C97.3885 14.9494 97.7316 14.4551 98.2929 14.0507C98.8541 13.6462 99.7585 13.4365 101.006 13.4365C102.16 13.4365 103.048 13.7061 103.641 14.2154C104.233 14.7397 104.529 15.4287 104.529 16.2825V16.8517C102.238 16.8517 100.335 17.0015 98.8386 17.2711C97.3418 17.5407 96.1568 17.9302 95.2837 18.4095C94.4106 18.8888 93.7869 19.488 93.4283 20.177C93.0541 20.866 92.8826 21.6449 92.8826 22.4987C92.8826 24.0116 93.4283 25.2248 94.5353 26.1685C95.6423 27.1122 97.2326 27.5765 99.3219 27.5765C100.257 27.5765 101.084 27.4866 101.754 27.2919C102.425 27.0972 102.986 26.8725 103.438 26.6328C103.937 26.3632 104.374 26.0487 104.732 25.6892L105.559 27.3818H108.256V16.2675C108.256 15.4137 108.084 14.6198 107.726 13.8859C107.367 13.1519 106.884 12.5228 106.245 11.9836C105.605 11.4443 104.841 11.0249 103.937 10.7104ZM103.189 23.4573C102.315 24.1913 101.099 24.5658 99.509 24.5658C98.5735 24.5658 97.8407 24.371 97.3418 23.9966C96.8428 23.6071 96.5934 23.1727 96.5934 22.6934C96.5934 22.259 96.6869 21.8696 96.8896 21.5251C97.0923 21.1806 97.4821 20.881 98.059 20.6413C98.6359 20.4017 99.431 20.2069 100.46 20.0721C101.474 19.9373 102.814 19.8624 104.483 19.8624V20.7761C104.483 21.8246 104.062 22.7234 103.189 23.4573ZM115.117 27.3969H110.954L117.393 18.7241L111.36 10.4259H115.522L119.685 16.0879L123.848 10.4259H128.011L121.977 18.7241L128.417 27.3969H124.254L119.685 21.1807L115.117 27.3969ZM134.669 10.4411H130.708L137.974 26.8429L137.35 28.5355C137.132 29.1197 136.758 29.614 136.212 30.0184C135.666 30.4228 134.871 30.6175 133.811 30.6175V33.4485C133.936 33.4935 134.06 33.5234 134.201 33.5534C134.341 33.5833 134.481 33.5983 134.622 33.6133C134.762 33.6283 134.918 33.6283 135.074 33.6283H135.074C135.791 33.6283 136.446 33.5384 137.007 33.3587C137.584 33.1789 138.099 32.8943 138.566 32.4899C139.034 32.1004 139.455 31.5762 139.861 30.9321C140.266 30.288 140.671 29.4941 141.092 28.5355L149.013 10.4411H145.053L139.861 22.6938L134.669 10.4411Z" fill="#1A2229"/>
    <path d="M19.6967 36.9235C30.0299 36.9235 38.4066 28.876 38.4066 18.9489C38.4066 9.02185 30.0299 0.974365 19.6967 0.974365C9.36351 0.974365 0.986816 9.02185 0.986816 18.9489C0.986816 28.876 9.36351 36.9235 19.6967 36.9235Z" fill="#40ACAD"/>
    <path fill-rule="evenodd" clip-rule="evenodd" d="M15.2217 10.2317H13.4131V27.652H15.2217V27.6484H22.8613V27.6517C25.8705 27.6517 28.3028 25.315 28.3028 22.4241C28.3028 20.382 27.0878 18.6152 25.3162 17.7564L25.9804 16.5827C26.2922 15.9835 26.4793 15.3095 26.4793 14.5905C26.4793 12.1789 24.4524 10.2317 21.9421 10.2317V10.2383H15.2217V10.2317ZM21.9421 11.9759H15.2217V22.2563L18.9642 15.6091L21.7083 20.4772L24.3588 15.7888C24.5459 15.4293 24.6551 15.0249 24.6551 14.5905C24.6551 13.1526 23.4389 11.9842 21.9421 11.9842V11.9759ZM15.2217 25.8286V25.9109H22.9249V25.9136C24.8917 25.8809 26.4942 24.3358 26.4942 22.4241C26.4942 21.0472 25.6584 19.8548 24.4482 19.2902L21.7083 24.132L18.9642 19.2789L15.2217 25.8286Z" fill="#1A2229"/>
</svg>
