<svg width="70" height="18" viewBox="0 0 70 18" fill="none" xmlns="http://www.w3.org/2000/svg">
<path d="M43.417 14.0622C39.354 16.6135 33.465 17.9748 28.3947 17.9748C21.2853 17.9748 14.885 15.7346 10.0429 12.0086C9.66247 11.7156 10.0033 11.3163 10.4598 11.5445C15.6854 14.1348 22.1466 15.6931 28.8208 15.6931C33.322 15.6931 38.2736 14.8997 42.8266 13.2532C43.5144 13.0043 44.0896 13.6369 43.417 14.0622Z" fill="#FF9900"/>
<path d="M45.1061 12.4157C44.5887 11.8504 41.6731 12.1486 40.3645 12.2809C39.9658 12.3223 39.9049 12.0268 40.264 11.8141C42.5861 10.4218 46.3965 10.8237 46.8408 11.2904C47.2852 11.7597 46.7252 15.0137 44.5431 16.5669C44.2083 16.8054 43.8887 16.6784 44.0379 16.362C44.5278 15.3197 45.6265 12.9835 45.1061 12.4157Z" fill="#FF9900"/>
<path d="M40.4557 1.98455V0.63107C40.4557 0.426233 40.6383 0.288811 40.8575 0.288811H47.9699C48.1982 0.288811 48.3808 0.428826 48.3808 0.63107V1.79008C48.3778 1.98455 48.186 2.23865 47.8451 2.64055L44.1596 7.12363C45.5291 7.09511 46.9747 7.26883 48.2164 7.86519C48.4964 8.00002 48.5725 8.19708 48.5938 8.39154V9.83577C48.5938 10.0328 48.3382 10.2636 48.0704 10.1443C45.8821 9.16681 42.9757 9.0605 40.5562 10.1547C40.3097 10.2688 40.051 10.0406 40.051 9.84355V8.47192C40.051 8.25153 40.054 7.87556 40.3127 7.54108L44.5826 2.32422H40.8666C40.6383 2.32422 40.4557 2.1868 40.4557 1.98455Z" fill="#221F1F"/>
<path d="M14.5106 10.4295H12.3468C12.1398 10.4166 11.9755 10.2843 11.9603 10.1158V0.654401C11.9603 0.465121 12.1459 0.314733 12.3772 0.314733H14.395C14.605 0.322507 14.7724 0.459934 14.7876 0.631064V1.86787H14.8272C15.3537 0.67255 16.3428 0.115082 17.6758 0.115082C19.0301 0.115082 19.8762 0.67255 20.4849 1.86787C21.0083 0.67255 22.1983 0.115082 23.4735 0.115082C24.3804 0.115082 25.3726 0.434005 25.9782 1.14964C26.663 1.94565 26.523 3.10207 26.523 4.11589L26.52 10.0873C26.52 10.2766 26.3343 10.4295 26.103 10.4295H23.9422C23.7261 10.4166 23.5526 10.2688 23.5526 10.0873V5.07266C23.5526 4.67336 23.5952 3.67769 23.4918 3.29913C23.3305 2.66388 22.8466 2.48497 22.2196 2.48497C21.6962 2.48497 21.1483 2.78315 20.9262 3.26024C20.704 3.73733 20.7253 4.53593 20.7253 5.07266V10.0873C20.7253 10.2766 20.5397 10.4295 20.3084 10.4295H18.1475C17.9284 10.4166 17.758 10.2688 17.758 10.0873L17.7549 5.07266C17.7549 4.01736 17.9588 2.46423 16.4219 2.46423C14.8667 2.46423 14.9276 3.97846 14.9276 5.07266V10.0873C14.9276 10.2766 14.7419 10.4295 14.5106 10.4295Z" fill="#221F1F"/>
<path d="M54.5041 0.115082C57.7149 0.115082 59.4527 2.46423 59.4527 5.45122C59.4527 8.33709 57.5323 10.6266 54.5041 10.6266C51.3512 10.6266 49.6347 8.27745 49.6347 5.3501C49.6347 2.40459 51.3725 0.115082 54.5041 0.115082ZM54.5224 2.04677C52.9277 2.04677 52.8272 3.89809 52.8272 5.05192C52.8272 6.20834 52.8059 8.67675 54.5041 8.67675C56.1811 8.67675 56.2602 6.68543 56.2602 5.47196C56.2602 4.67336 56.2206 3.71918 55.9376 2.96206C55.6941 2.30347 55.2102 2.04677 54.5224 2.04677Z" fill="#221F1F"/>
<path d="M63.6162 10.4295H61.4614C61.2453 10.4166 61.0719 10.2688 61.0719 10.0873L61.0688 0.623285C61.0871 0.449562 61.2666 0.314733 61.4858 0.314733H63.4914C63.6801 0.322507 63.8353 0.431413 63.8779 0.579207V2.02603H63.9175C64.5231 0.732186 65.3722 0.115082 66.8665 0.115082C67.8374 0.115082 68.7839 0.413263 69.3926 1.23002C69.9586 1.98714 69.9586 3.26024 69.9586 4.17552V10.1314C69.9343 10.2973 69.7547 10.4295 69.5417 10.4295H67.3717C67.1739 10.4166 67.0096 10.2921 66.9883 10.1314V4.99228C66.9883 3.95772 67.1283 2.44348 65.6339 2.44348C65.1074 2.44348 64.6235 2.74426 64.3831 3.2006C64.0788 3.77882 64.0392 4.35443 64.0392 4.99228V10.0873C64.0361 10.2766 63.8475 10.4295 63.6162 10.4295Z" fill="#221F1F"/>
<path d="M34.7859 5.91016V5.51086C33.2215 5.51086 31.569 5.79608 31.569 7.36736C31.569 8.16337 32.0529 8.70269 32.8837 8.70269C33.4924 8.70269 34.0372 8.38377 34.3811 7.86519C34.8072 7.22734 34.7859 6.62839 34.7859 5.91016ZM36.968 10.4036C36.825 10.5125 36.618 10.5203 36.4567 10.4477C35.7385 9.93949 35.6106 9.70354 35.215 9.21867C34.0281 10.2506 33.1881 10.5592 31.6481 10.5592C29.8281 10.5592 28.4099 9.60242 28.4099 7.68628C28.4099 6.19019 29.3625 5.17119 30.7168 4.67336C31.8916 4.23257 33.532 4.15479 34.7859 4.03292V3.79438C34.7859 3.35618 34.8254 2.83761 34.5241 2.45905C34.2594 2.11938 33.7541 1.97936 33.3098 1.97936C32.485 1.97936 31.7485 2.33977 31.569 3.08652C31.5325 3.25247 31.3894 3.41582 31.1946 3.4236L29.0947 3.23172C28.9182 3.19802 28.7234 3.07615 28.7721 2.84539C29.256 0.677744 31.5538 0.0243378 33.6111 0.0243378C34.6641 0.0243378 36.0398 0.262882 36.8706 0.942215C37.9236 1.77971 37.8232 2.89724 37.8232 4.1133V6.98621C37.8232 7.84963 38.2432 8.22819 38.6388 8.69491C38.7788 8.86085 38.8093 9.06051 38.6327 9.18496C38.1914 9.4987 37.4062 10.0821 36.9741 10.4088L36.968 10.4036Z" fill="#221F1F"/>
<path d="M6.41822 5.91016V5.51086C4.8539 5.51086 3.20133 5.79608 3.20133 7.36736C3.20133 8.16337 3.68523 8.70269 4.51608 8.70269C5.12477 8.70269 5.66954 8.38377 6.01345 7.86519C6.43952 7.22734 6.41822 6.62839 6.41822 5.91016ZM8.60035 10.4036C8.45731 10.5125 8.25035 10.5203 8.08905 10.4477C7.37081 9.93949 7.24298 9.70354 6.84734 9.21867C5.66041 10.2506 4.82043 10.5592 3.28046 10.5592C1.4605 10.5592 0.0422668 9.60242 0.0422668 7.68628C0.0422668 6.19019 0.994855 5.17119 2.34917 4.67336C3.52393 4.23257 5.16433 4.15479 6.41822 4.03292V3.79438C6.41822 3.35618 6.45779 2.83761 6.15649 2.45905C5.89171 2.11938 5.3865 1.97936 4.94216 1.97936C4.1174 1.97936 3.38089 2.33977 3.20133 3.08652C3.16481 3.25247 3.02177 3.41582 2.82699 3.4236L0.727035 3.23172C0.550517 3.19802 0.355738 3.07615 0.404433 2.84539C0.888336 0.677744 3.18611 0.0243378 5.24346 0.0243378C6.29648 0.0243378 7.67211 0.262882 8.50296 0.942215C9.55598 1.77971 9.45555 2.89724 9.45555 4.1133V6.98621C9.45555 7.84963 9.87554 8.22819 10.2712 8.69491C10.4112 8.86085 10.4416 9.06051 10.2651 9.18496C9.8238 9.4987 9.0386 10.0821 8.60643 10.4088L8.60035 10.4036Z" fill="#221F1F"/>
</svg>
