<svg width="80" height="20" viewBox="0 0 80 20" fill="none" xmlns="http://www.w3.org/2000/svg">
<path d="M49.6194 15.6246C44.976 18.4595 38.2458 19.972 32.4511 19.972C24.326 19.972 17.0114 17.4829 11.4776 13.3429C11.0428 13.0173 11.4324 12.5737 11.9541 12.8272C17.9262 15.7053 25.3104 17.4368 32.938 17.4368C38.0823 17.4368 43.7413 16.5552 48.9447 14.7258C49.7307 14.4492 50.3881 15.1521 49.6194 15.6246Z" fill="#FF9900"/>
<path d="M51.5498 13.7952C50.9585 13.1672 47.6264 13.4985 46.1308 13.6454C45.6752 13.6915 45.6056 13.3631 46.016 13.1268C48.6699 11.5797 53.0246 12.0263 53.5324 12.5449C54.0402 13.0663 53.4002 16.6819 50.9063 18.4076C50.5237 18.6727 50.1585 18.5315 50.329 18.18C50.889 17.0219 52.1446 14.4261 51.5498 13.7952Z" fill="#FF9900"/>
<path d="M46.2352 2.20505V0.701188C46.2352 0.473591 46.4438 0.3209 46.6943 0.3209H54.8228C55.0837 0.3209 55.2924 0.476473 55.2924 0.701188V1.98898C55.2889 2.20505 55.0698 2.48739 54.6802 2.93394L50.4681 7.91514C52.0333 7.88345 53.6854 8.07647 55.1045 8.7391C55.4245 8.88891 55.5115 9.10786 55.5358 9.32394V10.9286C55.5358 11.1476 55.2437 11.404 54.9376 11.2715C52.4368 10.1853 49.1151 10.0672 46.3499 11.283C46.0682 11.4098 45.7726 11.1562 45.7726 10.9373V9.41325C45.7726 9.16836 45.776 8.75062 46.0717 8.37898L50.9516 2.58246H46.7047C46.4438 2.58246 46.2352 2.42977 46.2352 2.20505Z" fill="#221F1F"/>
<path d="M16.5836 11.5884H14.1106C13.8741 11.574 13.6863 11.427 13.6689 11.2398V0.72712C13.6689 0.516809 13.8811 0.349711 14.1454 0.349711H16.4514C16.6914 0.358349 16.8827 0.511046 16.9001 0.70119V2.07541H16.9453C17.5471 0.747285 18.6775 0.127876 20.2009 0.127876C21.7487 0.127876 22.7156 0.747285 23.4113 2.07541C24.0095 0.747285 25.3695 0.127876 26.8269 0.127876C27.8634 0.127876 28.9973 0.482236 29.6894 1.27738C30.472 2.16184 30.312 3.44676 30.312 4.57322L30.3085 11.2081C30.3085 11.4184 30.0964 11.5884 29.832 11.5884H27.3625C27.1156 11.574 26.9173 11.4098 26.9173 11.2081V5.6363C26.9173 5.19263 26.966 4.08633 26.8477 3.66571C26.6634 2.95987 26.1104 2.76108 25.3939 2.76108C24.7956 2.76108 24.1695 3.0924 23.9156 3.6225C23.6617 4.1526 23.6861 5.03993 23.6861 5.6363V11.2081C23.6861 11.4184 23.4739 11.5884 23.2096 11.5884H20.74C20.4896 11.574 20.2948 11.4098 20.2948 11.2081L20.2914 5.6363C20.2914 4.46374 20.5244 2.73804 18.7679 2.73804C16.9906 2.73804 17.0601 4.42052 17.0601 5.6363V11.2081C17.0601 11.4184 16.8479 11.5884 16.5836 11.5884Z" fill="#221F1F"/>
<path d="M62.2904 0.127876C65.9599 0.127876 67.946 2.73804 67.946 6.05692C67.946 9.26344 65.7512 11.8073 62.2904 11.8073C58.687 11.8073 56.7253 9.19718 56.7253 5.94456C56.7253 2.67177 58.7114 0.127876 62.2904 0.127876ZM62.3113 2.2742C60.4887 2.2742 60.374 4.33121 60.374 5.61325C60.374 6.89816 60.3496 9.64085 62.2904 9.64085C64.2069 9.64085 64.2974 7.42826 64.2974 6.07996C64.2974 5.19263 64.2521 4.13243 63.9287 3.29118C63.6504 2.55942 63.0974 2.2742 62.3113 2.2742Z" fill="#221F1F"/>
<path d="M72.7041 11.5884H70.2416C69.9946 11.574 69.7964 11.4098 69.7964 11.2081L69.7929 0.692547C69.8138 0.499521 70.019 0.349711 70.2694 0.349711H72.5615C72.7772 0.358349 72.9546 0.479355 73.0033 0.643571V2.25115H73.0485C73.7406 0.813548 74.7111 0.127876 76.4189 0.127876C77.5284 0.127876 78.6101 0.459188 79.3058 1.36669C79.9527 2.20794 79.9527 3.6225 79.9527 4.63948V11.2571C79.9249 11.4415 79.7197 11.5884 79.4762 11.5884H76.9962C76.7701 11.574 76.5823 11.4357 76.558 11.2571V5.54699C76.558 4.39748 76.718 2.71499 75.0102 2.71499C74.4085 2.71499 73.8554 3.04918 73.5806 3.55623C73.2328 4.19869 73.1876 4.83827 73.1876 5.54699V11.2081C73.1841 11.4184 72.9685 11.5884 72.7041 11.5884Z" fill="#221F1F"/>
<path d="M39.7553 6.56684V6.12318C37.9675 6.12318 36.0788 6.44008 36.0788 8.18595C36.0788 9.07041 36.6319 9.66965 37.5814 9.66965C38.277 9.66965 38.8996 9.31529 39.2927 8.7391C39.7796 8.03038 39.7553 7.36487 39.7553 6.56684ZM42.2491 11.5596C42.0857 11.6806 41.8491 11.6892 41.6648 11.6085C40.844 11.0439 40.6979 10.7817 40.2457 10.243C38.8892 11.3896 37.9292 11.7324 36.1693 11.7324C34.0893 11.7324 32.4685 10.6693 32.4685 8.54031C32.4685 6.87799 33.5571 5.74577 35.1049 5.19262C36.4475 4.70285 38.3223 4.61643 39.7553 4.48102V4.21597C39.7553 3.72909 39.8005 3.15289 39.4562 2.73227C39.1536 2.35486 38.5762 2.19929 38.0684 2.19929C37.1258 2.19929 36.284 2.59975 36.0788 3.42947C36.0371 3.61385 35.8736 3.79535 35.651 3.80399L33.2511 3.5908C33.0493 3.55335 32.8267 3.41794 32.8824 3.16154C33.4354 0.753045 36.0614 0.0270386 38.4127 0.0270386C39.6162 0.0270386 41.1883 0.292088 42.1378 1.0469C43.3413 1.97746 43.2265 3.21915 43.2265 4.57033V7.76245C43.2265 8.72181 43.7065 9.14243 44.1587 9.66101C44.3187 9.84539 44.3534 10.0672 44.1517 10.2055C43.6474 10.5541 42.75 11.2023 42.2561 11.5653L42.2491 11.5596Z" fill="#221F1F"/>
<path d="M7.33508 6.56684V6.12318C5.54729 6.12318 3.65864 6.44008 3.65864 8.18595C3.65864 9.07041 4.21167 9.66965 5.16121 9.66965C5.85685 9.66965 6.47945 9.31529 6.87248 8.7391C7.35943 8.03038 7.33508 7.36487 7.33508 6.56684ZM9.82894 11.5596C9.66547 11.6806 9.42895 11.6892 9.24461 11.6085C8.42376 11.0439 8.27767 10.7817 7.82551 10.243C6.46901 11.3896 5.50904 11.7324 3.74907 11.7324C1.66911 11.7324 0.0482788 10.6693 0.0482788 8.54031C0.0482788 6.87799 1.13695 5.74577 2.68474 5.19262C4.02733 4.70285 5.90207 4.61643 7.33508 4.48102V4.21597C7.33508 3.72909 7.3803 3.15289 7.03596 2.73227C6.73335 2.35486 6.15598 2.19929 5.64816 2.19929C4.70557 2.19929 3.86385 2.59975 3.65864 3.42947C3.6169 3.61385 3.45342 3.79535 3.23082 3.80399L0.830871 3.5908C0.629136 3.55335 0.406532 3.41794 0.462183 3.16154C1.01521 0.753045 3.64125 0.0270386 5.9925 0.0270386C7.19595 0.0270386 8.76809 0.292088 9.71764 1.0469C10.9211 1.97746 10.8063 3.21915 10.8063 4.57033V7.76245C10.8063 8.72181 11.2863 9.14243 11.7385 9.66101C11.8985 9.84539 11.9332 10.0672 11.7315 10.2055C11.2272 10.5541 10.3298 11.2023 9.8359 11.5653L9.82894 11.5596Z" fill="#221F1F"/>
</svg>
