<svg width="100" height="22" viewBox="0 0 100 22" fill="none" xmlns="http://www.w3.org/2000/svg">
<g clip-path="url(#clip0_1_21)">
<path d="M62.0243 17.1871C56.22 20.3054 47.8072 21.9692 40.5639 21.9692C30.4075 21.9692 21.2643 19.2311 14.347 14.6772C13.8035 14.3191 14.2905 13.831 14.9426 14.1099C22.4077 17.2758 31.638 19.1804 41.1725 19.1804C47.6028 19.1804 54.6766 18.2107 61.1808 16.1983C62.1634 15.8941 62.9851 16.6674 62.0243 17.1871Z" fill="#FF9900"/>
<path d="M64.4373 15.1747C63.6982 14.4839 59.533 14.8483 57.6635 15.0099C57.0939 15.0606 57.007 14.6994 57.52 14.4395C60.8373 12.7377 66.2807 13.2289 66.9155 13.7994C67.5502 14.373 66.7503 18.3501 63.6329 20.2484C63.1547 20.54 62.6982 20.3847 62.9112 19.998C63.6112 18.7241 65.1807 15.8688 64.4373 15.1747Z" fill="#FF9900"/>
<path d="M57.7939 2.42556V0.771306C57.7939 0.52095 58.0548 0.352989 58.3679 0.352989H68.5285C68.8546 0.352989 69.1155 0.524119 69.1155 0.771306V2.18788C69.1111 2.42556 68.8372 2.73613 68.3502 3.22733L63.0851 8.70665C65.0416 8.6718 67.1068 8.88412 68.8807 9.61301C69.2807 9.7778 69.3894 10.0186 69.4198 10.2563V12.0215C69.4198 12.2624 69.0546 12.5444 68.672 12.3986C65.546 11.2039 61.3939 11.0739 57.9374 12.4113C57.5853 12.5507 57.2157 12.2719 57.2157 12.031V10.3546C57.2157 10.0852 57.22 9.62568 57.5896 9.21687L63.6895 2.84071H58.3809C58.0548 2.84071 57.7939 2.67275 57.7939 2.42556Z" fill="#221F1F"/>
<path d="M20.7295 12.7472H17.6383C17.3426 12.7314 17.1078 12.5698 17.0861 12.3638V0.799832C17.0861 0.568489 17.3513 0.384682 17.6817 0.384682H20.5643C20.8643 0.394183 21.1034 0.562149 21.1251 0.771308V2.28296H21.1817C21.9338 0.822013 23.3468 0.140663 25.2511 0.140663C27.1859 0.140663 28.3945 0.822013 29.2641 2.28296C30.0119 0.822013 31.7119 0.140663 33.5336 0.140663C34.8292 0.140663 36.2466 0.530458 37.1118 1.40512C38.09 2.37803 37.89 3.79143 37.89 5.03054L37.8857 12.3289C37.8857 12.5602 37.6204 12.7472 37.29 12.7472H34.2031C33.8944 12.7314 33.6466 12.5507 33.6466 12.3289V6.19992C33.6466 5.71189 33.7075 4.49497 33.5597 4.03228C33.3292 3.25586 32.6379 3.03719 31.7423 3.03719C30.9945 3.03719 30.2119 3.40164 29.8945 3.98475C29.5771 4.56785 29.6076 5.54393 29.6076 6.19992V12.3289C29.6076 12.5602 29.3424 12.7472 29.0119 12.7472H25.925C25.612 12.7314 25.3685 12.5507 25.3685 12.3289L25.3642 6.19992C25.3642 4.91011 25.6555 3.01184 23.4599 3.01184C21.2382 3.01184 21.3251 4.86258 21.3251 6.19992V12.3289C21.3251 12.5602 21.0599 12.7472 20.7295 12.7472Z" fill="#221F1F"/>
<path d="M77.8631 0.140663C82.4499 0.140663 84.9325 3.01184 84.9325 6.66261C84.9325 10.1898 82.1891 12.9881 77.8631 12.9881C73.3588 12.9881 70.9067 10.1169 70.9067 6.53901C70.9067 2.93895 73.3892 0.140663 77.8631 0.140663ZM77.8891 2.50162C75.6109 2.50162 75.4675 4.76433 75.4675 6.17457C75.4675 7.58798 75.437 10.6049 77.8631 10.6049C80.2587 10.6049 80.3717 8.17109 80.3717 6.68796C80.3717 5.71189 80.3152 4.54567 79.9108 3.6203C79.563 2.81536 78.8717 2.50162 77.8891 2.50162Z" fill="#221F1F"/>
<path d="M90.8802 12.7472H87.802C87.4933 12.7314 87.2455 12.5507 87.2455 12.3289L87.2411 0.761801C87.2672 0.549473 87.5237 0.384682 87.8368 0.384682H90.7019C90.9715 0.394183 91.1932 0.52729 91.2541 0.707927V2.47627H91.3106C92.1758 0.894902 93.3888 0.140663 95.5236 0.140663C96.9105 0.140663 98.2627 0.505107 99.1322 1.50336C99.9409 2.42873 99.9409 3.98475 99.9409 5.10343V12.3828C99.9061 12.5856 99.6496 12.7472 99.3452 12.7472H96.2453C95.9627 12.7314 95.7279 12.5793 95.6975 12.3828V6.10168C95.6975 4.83723 95.8975 2.98649 93.7628 2.98649C93.0106 2.98649 92.3193 3.3541 91.9758 3.91186C91.5411 4.61856 91.4845 5.32209 91.4845 6.10168V12.3289C91.4802 12.5602 91.2106 12.7472 90.8802 12.7472Z" fill="#221F1F"/>
<path d="M49.6941 7.22353V6.73549C47.4594 6.73549 45.0985 7.08409 45.0985 9.00454C45.0985 9.97745 45.7898 10.6366 46.9768 10.6366C47.8463 10.6366 48.6246 10.2468 49.1159 9.613C49.7245 8.83341 49.6941 8.10136 49.6941 7.22353ZM52.8114 12.7155C52.6071 12.8486 52.3114 12.8581 52.081 12.7694C51.0549 12.1483 50.8723 11.8599 50.3071 11.2673C48.6115 12.5285 47.4115 12.9057 45.2116 12.9057C42.6116 12.9057 40.5856 11.7363 40.5856 9.39434C40.5856 7.56579 41.9464 6.32034 43.8812 5.71188C45.5594 5.17314 47.9028 5.07807 49.6941 4.92912V4.63757C49.6941 4.10199 49.7506 3.46818 49.3202 3.0055C48.9419 2.59035 48.2202 2.41922 47.5855 2.41922C46.4072 2.41922 45.3551 2.85972 45.0985 3.77241C45.0464 3.97523 44.842 4.17488 44.5638 4.18439L41.5638 3.94988C41.3117 3.90868 41.0334 3.75973 41.103 3.47769C41.7943 0.828347 45.0768 0.0297394 48.0159 0.0297394C49.5202 0.0297394 51.4854 0.321294 52.6723 1.15159C54.1766 2.1752 54.0331 3.54107 54.0331 5.02736V8.53869C54.0331 9.59399 54.6331 10.0567 55.1983 10.6271C55.3983 10.8299 55.4418 11.0739 55.1896 11.2261C54.5592 11.6095 53.4375 12.3226 52.8201 12.7219L52.8114 12.7155Z" fill="#221F1F"/>
<path d="M9.16887 7.22353V6.73549C6.93413 6.73549 4.57331 7.08409 4.57331 9.00454C4.57331 9.97745 5.2646 10.6366 6.45153 10.6366C7.32108 10.6366 8.09932 10.2468 8.59062 9.613C9.1993 8.83341 9.16887 8.10136 9.16887 7.22353ZM12.2862 12.7155C12.0819 12.8486 11.7862 12.8581 11.5558 12.7694C10.5297 12.1483 10.3471 11.8599 9.7819 11.2673C8.08628 12.5285 6.88631 12.9057 4.68635 12.9057C2.08641 12.9057 0.0603638 11.7363 0.0603638 9.39434C0.0603638 7.56579 1.4212 6.32034 3.35595 5.71188C5.03417 5.17314 7.3776 5.07807 9.16887 4.92912V4.63757C9.16887 4.10199 9.22539 3.46818 8.79496 3.0055C8.41671 2.59035 7.69499 2.41922 7.06022 2.41922C5.88198 2.41922 4.82983 2.85972 4.57331 3.77241C4.52114 3.97523 4.31679 4.17488 4.03854 4.18439L1.0386 3.94988C0.786435 3.90868 0.50818 3.75973 0.577743 3.47769C1.26903 0.828347 4.55157 0.0297394 7.49064 0.0297394C8.99496 0.0297394 10.9601 0.321294 12.1471 1.15159C13.6514 2.1752 13.5079 3.54107 13.5079 5.02736V8.53869C13.5079 9.59399 14.1079 10.0567 14.6731 10.6271C14.8731 10.8299 14.9166 11.0739 14.6644 11.2261C14.034 11.6095 12.9123 12.3226 12.2949 12.7219L12.2862 12.7155Z" fill="#221F1F"/>
</g>
<defs>
<clipPath id="clip0_1_21">
<rect width="100" height="22" fill="white"/>
</clipPath>
</defs>
</svg>
