<svg width="69" height="47" viewBox="0 0 69 47" fill="none" xmlns="http://www.w3.org/2000/svg">
<path d="M49.8849 3.9493C49.8768 3.94109 49.8685 3.93296 49.8602 3.92489C47.1796 1.32609 42.9157 1.36342 40.2807 4.00836C37.6496 6.64933 37.6128 10.9164 40.1975 13.6027C40.2056 13.611 40.2137 13.6193 40.2218 13.6275L43.068 16.4844L8.82981 16.4844C5.05072 16.4844 2 19.5575 2 23.3324C2 27.1074 5.05072 30.1805 8.82981 30.1805L43.068 30.1805L40.2218 33.0374C40.2137 33.0456 40.2056 33.0539 40.1975 33.0622C37.6128 35.7485 37.6496 40.0155 40.2807 42.6565C42.9157 45.3015 47.1796 45.3388 49.8602 42.74C49.8685 42.7319 49.8768 42.7238 49.8849 42.7156L64.3744 28.1715L64.3746 28.1713C67.0373 25.4978 67.0373 21.1671 64.3746 18.4936L64.3744 18.4933L49.8849 3.9493Z" stroke="#2276F1" stroke-width="4" stroke-linejoin="round"/>
</svg>
