<?xml version="1.0" encoding="UTF-8"?>
<svg version="1.1" viewBox="0 0 135 135" xmlns="http://www.w3.org/2000/svg">
  <g fill="none" fill-rule="evenodd">
    <g transform="translate(-733 -230)" fill-rule="nonzero">
      <g transform="translate(733 230)">
        <path id="Shape" d="m67.5 105c-0.5488 0-1.0947-0.15253-1.576-0.4576l-64.564-41.067c-0.89216-0.56613-1.4087-1.5723-1.3559-2.6283 0.05576-1.0531 0.67206-2.0005 1.62-2.4728l65.876-41.375 65.876 41.375c0.94499 0.47227 1.5642 1.4168 1.62 2.4728s-0.46369 2.0592-1.3559 2.6283l-64.564 41.067c-0.4813 0.30507-1.0272 0.4576-1.576 0.4576z" fill="#0665ff"/>
        <path id="Shape" d="m111 109h-88v-106.05c0-1.6262 1.3141-2.9459 2.9333-2.9459h82.133c1.6192 0 2.9333 1.3198 2.9333 2.9459v106.05z" fill="#fff"/>
        <path id="Shape" d="m132.07 135c-0.24592 0-0.49476-0.03212-0.73775-0.09344l-67.335-17.52 0.73775-20.347 70.262-35.04v70.08c0 0.9052-0.42157 1.7578-1.1388 2.3126-0.51526 0.39712-1.1476 0.60736-1.7888 0.60736z" fill="#79b8ff"/>
        <path id="Shape" d="m132.06 135h-129.13c-1.6229 0-2.9348-1.3082-2.9348-2.92v-70.08l133.47 67.516c1.1768 0.63948 1.7726 1.9914 1.438 3.285-0.33163 1.2936-1.5026 2.1988-2.8438 2.1988z" fill="#2088ff"/>
        <path id="Shape" d="m90.111 26h-46.222c-1.5947 0-2.8889-1.1175-2.8889-2.5s1.2942-2.5 2.8889-2.5h46.222c1.5947 0 2.8889 1.1175 2.8889 2.5s-1.2942 2.5-2.8889 2.5z" fill="#F0F2F4"/>
        <path id="a" d="m90.111 46h-46.222c-1.5947 0-2.8889-1.1175-2.8889-2.5s1.2942-2.5 2.8889-2.5h46.222c1.5947 0 2.8889 1.1175 2.8889 2.5s-1.2942 2.5-2.8889 2.5z" fill="#F0F2F4"/>
        <path d="m70.091 67h-26.182c-1.6058 0-2.9091-1.1175-2.9091-2.5s1.3033-2.5 2.9091-2.5h26.182c1.6058 0 2.9091 1.1175 2.9091 2.5s-1.3033 2.5-2.9091 2.5z" fill="#F0F2F4"/>
      </g>
    </g>
  </g>
</svg>
