<?xml version="1.0" standalone="no"?>
<!DOCTYPE svg PUBLIC "-//W3C//DTD SVG 20010904//EN"
 "http://www.w3.org/TR/2001/REC-SVG-20010904/DTD/svg10.dtd">
<svg version="1.0" xmlns="http://www.w3.org/2000/svg"
 width="500.000000pt" height="500.000000pt" viewBox="0 0 500.000000 500.000000"
 preserveAspectRatio="xMidYMid meet">

<g transform="translate(0.000000,500.000000) scale(0.100000,-0.100000)"
fill="#595959" stroke="none">
<path d="M2288 4578 l-3 -213 -98 -17 c-190 -33 -357 -88 -518 -168 -544 -274
-913 -770 -1017 -1367 l-17 -98 -213 -3 -212 -2 0 -210 0 -210 213 0 214 0 12
-82 c101 -678 603 -1269 1261 -1487 92 -31 315 -81 359 -81 21 0 21 -2 21
-215 l0 -215 210 0 210 0 0 215 c0 213 0 215 21 215 12 0 76 11 143 25 736
149 1312 725 1461 1461 14 67 25 131 25 143 0 21 2 21 215 21 l215 0 0 210 0
210 -215 0 c-213 0 -215 0 -215 21 0 43 -50 267 -80 359 -216 656 -810 1160
-1487 1261 l-83 12 0 214 0 213 -210 0 -210 0 -2 -212z m493 -647 c585 -117
1041 -579 1155 -1171 25 -131 25 -389 0 -520 -115 -599 -577 -1061 -1176
-1176 -131 -25 -389 -25 -520 0 -602 115 -1059 574 -1177 1181 -23 124 -23
386 0 510 91 468 378 845 806 1060 131 65 318 117 501 139 75 9 319 -5 411
-23z"/>
<path d="M2341 3319 c-300 -59 -547 -285 -643 -589 -20 -65 -23 -95 -23 -230
0 -135 3 -165 23 -230 88 -280 292 -483 572 -571 65 -21 95 -24 230 -24 135 0
165 3 230 23 279 88 484 293 572 572 20 65 23 96 23 225 0 169 -12 231 -70
352 -87 186 -222 320 -408 409 -114 54 -211 74 -346 73 -64 -1 -136 -5 -160
-10z"/>
</g>
</svg>
