<svg width="489" height="150" viewBox="0 0 489 150" fill="none" xmlns="http://www.w3.org/2000/svg">
<path d="M25.9377 33V50.631H37.7707V61.437H25.9377V90.562C25.9377 96.0208 27.3036 97.3867 32.7624 97.3867C34.5836 97.3867 36.4047 97.2752 37.7706 96.9314V109.558C35.0388 110.014 31.4012 110.125 28.2141 110.125C15.8141 110.125 9.7841 106.371 9.7841 95.9042V61.4372H0V50.6312H9.7841V33.0002L25.9377 33ZM96.0107 94.088C96.0107 97.9533 96.6936 98.7524 100.108 98.7524H100.564V109.219C99.0862 109.902 97.2651 110.585 93.8504 110.585C86.3427 110.585 82.4774 108.309 81.2234 102.961C77.3581 107.626 70.5284 111.036 60.7494 111.036C48.6884 111.036 40.7254 104.778 40.7254 93.4049C40.7254 87.7184 42.5466 83.7369 45.8451 80.8939C49.5989 77.7069 55.0578 76.0018 64.8421 74.9798C75.3091 73.8416 79.8571 72.931 79.8571 67.6998C79.8571 60.9866 74.965 59.8484 69.5061 59.8484C62.7929 59.8484 59.2671 62.5802 58.7001 68.7219H42.5461C43.229 55.8669 53.8071 49.0419 70.3051 49.0419C87.4851 49.0419 96.0151 54.8445 96.0151 65.7619V94.0879L96.0107 94.088ZM66.7787 100.23C75.4246 100.23 79.8617 95.5654 79.8617 86.9198V80.6619C78.3843 82.0278 75.5411 82.8222 70.0776 83.5051C61.7709 84.5272 56.8786 86.3483 56.8786 92.7178C56.8786 97.3868 59.7216 100.23 66.7787 100.23ZM142.432 49.6088V64.6238C140.523 64.233 138.578 64.043 136.629 64.057C124.912 64.057 120.703 72.1315 120.703 82.942V109.446H104.549V50.63H119.908V61.552H120.136C123.207 54.1558 130.831 49.041 138.905 49.041C140.498 49.036 141.632 49.3801 142.431 49.6078L142.432 49.6088ZM185.206 58.4823H185.433V50.6309H200.792V105.805C200.792 121.048 191.919 131.743 170.418 131.743C156.769 131.743 145.052 124.802 144.369 112.858H160.411C161.777 118.544 166.214 120.937 172.467 120.937C180.774 120.937 185.438 115.706 185.438 106.716V98.6416H185.211C182.028 104.328 175.543 107.743 167.58 107.743C150.627 107.743 142.437 95.3428 142.437 78.1678C142.437 63.1528 151.194 49.0428 167.692 49.0428C176.105 49.0378 181.564 52.2252 185.207 58.4831L185.206 58.4823ZM171.668 95.5653C180.425 95.5653 185.434 88.3968 185.434 79.1843C185.434 70.9937 182.93 61.2093 171.557 61.2093C163.255 61.2093 158.59 68.2617 158.59 77.9293C158.585 87.4904 162.339 95.5653 171.668 95.5653ZM263.93 81.0053C263.93 81.9159 263.818 83.9647 263.818 83.9647H221.388C221.844 94.0877 226.508 98.8687 235.72 98.8687C241.862 98.8687 247.325 95.3425 248.575 91.2449H262.796C258.471 104.555 249.37 111.041 235.265 111.041C216.607 111.041 205.234 98.1859 205.234 80.0999C205.234 62.3529 217.518 49.0429 235.265 49.0429C253.807 49.0379 263.93 63.6023 263.93 81.0053ZM247.665 73.7253C246.071 64.8518 242.206 61.2143 234.694 61.2143C226.842 61.2143 222.067 65.9949 221.384 73.7253H247.665ZM288.167 33.0003V50.6313H300V61.4373H288.167V90.5623C288.167 96.0211 289.533 97.387 294.991 97.387C296.813 97.387 298.634 97.2756 300 96.9317V109.559C297.268 110.014 293.63 110.125 290.443 110.125C278.043 110.125 272.013 106.372 272.013 95.9045V61.4375H262.229V50.6315H272.013V33.0005L288.167 33.0003Z" fill="#CC0000"/>
<path d="M339 75.005C339 33.5747 372.573 0 413.995 0C455.416 0 489 33.5727 489 75.005C489 116.41 455.418 150 413.995 150C372.574 150 339 116.411 339 75.005ZM413.98 124.99C441.589 124.99 463.97 102.604 463.97 75.0025C463.97 47.389 441.589 25.0035 413.98 25.0035C386.373 25.0035 363.992 47.387 363.992 75.0025C363.992 102.604 386.376 124.99 413.98 124.99ZM438.975 75C438.975 88.8033 427.786 99.995 413.98 99.995C400.174 99.995 388.987 88.8033 388.987 75C388.987 61.1967 400.177 50.005 413.982 50.005C427.788 50.005 438.975 61.1967 438.975 75Z" fill="#CC0000"/>
</svg>
