<?xml version="1.0" encoding="UTF-8"?>
<svg fill="none" viewBox="0 0 133 133" xmlns="http://www.w3.org/2000/svg">
  <g clip-path="url(#a)">
    <path d="m65.5 38h-51.155c-7.3701 0-13.345 5.7566-13.345 12.858v47.145c0 7.1013 5.9747 12.857 13.345 12.857h33.362c1.3983-5e-3 2.7171 0.626 3.5586 1.702l10.723 13.728c0.822 1.075 2.1257 1.71 3.5119 1.71s2.6899-0.635 3.5119-1.71l10.723-13.715c0.8401-1.079 2.1585-1.715 3.5586-1.715h33.362c7.37 0 13.345-5.756 13.345-12.857v-47.145c0-7.1011-5.975-12.858-13.345-12.858h-51.155z" fill="#E8EDFC"/>
    <path d="M4 98.4706C4 105.39 9.67106 111 16.6667 111H23C16.0044 111 10.3333 105.39 10.3333 98.4706V52.5294C10.3333 45.6096 16.0044 40 23 40H16.6667C9.67106 40 4 45.6096 4 52.5294V98.4706Z" fill="#fff"/>
    <path d="m67.054 76.386c0.8325-0.8315 1.3002-1.9599 1.3002-3.1366 0-1.1766-0.4677-2.305-1.3002-3.1366-0.7836-0.7876-1.8378-1.2473-2.9482-1.2856-1.0965-0.0605-1.9687-0.9422-2.0171-2.0394-0.0817-1.7577-1.1917-3.3021-2.8316-3.9398-1.64-0.6378-3.5017-0.249-4.7494 0.9917l42.338-42.316 10.973 10.972 1.551 1.5738-42.316 42.316z" fill="#E8EDFC"/>
    <path d="m74.037 114.82-10.687 14.187c-0.0532 0.071-0.1197 0.117-0.1751 0.184 0.8489 1.029 2.1243 1.609 3.4574 1.573 1.3332-0.036 2.5755-0.684 3.3677-1.757l10.687-14.187c0.8372-1.116 2.1512-1.773 3.5466-1.773h-6.65c-1.3954 0-2.7094 0.657-3.5466 1.773z" fill="#CAD9FC"/>
    <path d="m115.64 27.797-6.273 6.2732-1.551-1.5739-10.973-10.972 6.2508-6.2731 12.546 12.546z" fill="#A4C2F7"/>
    <path d="m126.62 16.824-10.972 10.972-12.547-12.546 10.973-10.973c2.605-2.5932 6.816-2.5932 9.421 0l3.125 3.1477c2.593 2.5963 2.593 6.8024 0 9.3987z" fill="#E8EDFC"/>
    <path d="m126.62 7.4258-3.125-3.1477c-2.136-2.1208-5.43-2.5426-8.031-1.0285 0.503 0.28089 0.967 0.62669 1.381 1.0285l3.125 3.1477c2.593 2.5963 2.593 6.8023 0 9.3987l-7.648 7.6475 3.325 3.325 10.973-10.972c2.593-2.5964 2.593-6.8024 0-9.3987z" fill="#CAD9FC"/>
    <path d="m67.054 76.386-9.7977 4.522c-0.5288-1.7111-1.4731-3.2647-2.7487-4.522-1.269-1.2605-2.8187-2.2025-4.522-2.7487l4.522-9.7976c1.2477-1.2407 3.1095-1.6295 4.7494-0.9917 1.64 0.6377 2.75 2.1821 2.8316 3.9398 0.0485 1.0972 0.9207 1.9789 2.0172 2.0394 1.1104 0.0383 2.1645 0.498 2.9482 1.2856 0.8324 0.8316 1.3002 1.96 1.3002 3.1366 0 1.1767-0.4678 2.3051-1.3002 3.1366z" fill="#E8EDFC"/>
    <path d="m57.256 80.908-8.0243 3.724c-0.8523 0.4223-1.879 0.2537-2.5515-0.4188-0.6726-0.6726-0.8411-1.6993-0.4189-2.5515l3.724-8.0244c1.7033 0.5462 3.253 1.4882 4.522 2.7487 1.2756 1.2573 2.2199 2.8108 2.7487 4.522z" fill="#A4C2F7"/>
    <path d="m52.313 114.81 10.687 14.2c1.2598 1.692 3.5491 2.241 5.4397 1.306 0.5483-0.249 1.0221-0.636 1.3743-1.124-0.0532-0.065-0.113-0.116-0.164-0.182l-10.687-14.2c-0.8386-1.113-2.1531-1.765-3.5466-1.76h-6.65c1.3935-5e-3 2.708 0.647 3.5466 1.76z" fill="#fff"/>
    <path d="M0 50.9833H4.43333V68.7166H0V50.9833Z" fill="#fff"/>
    <path d="m117.48 37.683h-6.65c7.346 0 13.3 5.9547 13.3 13.3v48.767c0 7.345-5.954 13.3-13.3 13.3h6.65c7.346 0 13.3-5.955 13.3-13.3v-48.767c0-7.3453-5.954-13.3-13.3-13.3z" fill="#CAD9FC"/>
    <path d="m2.2167 62.067c1.2242 0 2.2167-0.9924 2.2167-2.2167 0-1.2242-0.99243-2.2166-2.2167-2.2166-1.2242 0-2.2167 0.9924-2.2167 2.2166 0 1.2243 0.99244 2.2167 2.2167 2.2167z" fill="#2276F1"/>
    <path d="m117.48 35.467c-1.224 0-2.216 0.9924-2.216 2.2166 0 1.2243 0.992 2.2167 2.216 2.2167 6.118 0.0073 11.076 4.9652 11.084 11.083v48.767c-8e-3 6.118-4.966 11.076-11.084 11.083h-33.25c-2.0923 4e-3 -4.0618 0.989-5.32 2.66l-10.686 14.187c-0.401 0.554-1.0437 0.883-1.7279 0.883s-1.3269-0.329-1.7279-0.883l-10.684-14.204c-1.2617-1.666-3.2307-2.644-5.32-2.643h-33.25c-6.1182-7e-3 -11.076-4.965-11.083-11.083v-31.033c0-1.2243-0.99243-2.2167-2.2167-2.2167-1.2242 0-2.2167 0.9924-2.2167 2.2167v31.033c0.010991 8.565 6.9516 15.506 15.517 15.517h33.25c0.6984-4e-3 1.3568 0.326 1.7733 0.886l10.689 14.187c1.2365 1.672 3.192 2.658 5.2712 2.66 2.0778-2e-3 4.0316-0.989 5.2668-2.66l10.693-14.187c0.4186-0.558 1.0756-0.886 1.7733-0.886h33.25c8.565-0.011 15.506-6.952 15.517-15.517v-48.767c-0.011-8.565-6.952-15.506-15.517-15.517z" fill="#2276F1"/>
    <path d="m0 50.983c0 1.2243 0.99244 2.2167 2.2167 2.2167 1.2242 0 2.2167-0.9924 2.2167-2.2167 0.00733-6.1181 4.9652-11.076 11.083-11.083h50.983c1.2242 0 2.2167-0.9924 2.2167-2.2167 0-1.2242-0.9925-2.2166-2.2167-2.2166h-50.983c-8.5651 0.011-15.506 6.9516-15.517 15.517z" fill="#2276F1"/>
    <path d="m128.18 18.398c3.462-3.4624 3.462-9.075 0-12.537l-3.134-3.141c-3.507-3.3519-9.03-3.3519-12.537 0l-10.973 10.97-48.58 48.583c-0.1837 0.1846-0.3338 0.3999-0.4433 0.6362l-8.2349 17.778c-0.8744 1.7032-0.5374 3.7773 0.8312 5.1161 0.824 0.8379 1.9481 1.3126 3.1233 1.3189 0.6714-0.0011 1.3333-0.159 1.9329-0.4611l17.818-8.2526c0.2367-0.1088 0.4522-0.2589 0.6362-0.4434l48.591-48.589 10.97-10.977zm-12.537-12.544c1.754-1.6754 4.515-1.6754 6.269 0l3.134 3.1344c1.731 1.7312 1.731 4.5375 0 6.2687l-9.403 9.4054-3.137-3.1366 1.57-1.5761c0.782-0.8779 0.743-2.2142-0.09-3.0446-0.833-0.8305-2.169-0.8659-3.045-0.0809l-1.569 1.5672-3.134-3.1344 9.405-9.4031zm-59.314 59.345c0.8893-0.6271 2.0987-0.534 2.8816 0.2217 0.3929 0.3929 0.6239 0.919 0.6473 1.4741 0.1122 2.2424 1.905 4.0352 4.1474 4.1474 0.8185 0.0356 1.5506 0.5198 1.9037 1.259 0.3532 0.7393 0.2698 1.613-0.2168 2.2721l-7.3305 3.376c-1.2081-2.3253-3.1058-4.2199-5.4331-5.4242l3.4004-7.3261zm-8.0598 17.399 2.8018-6.0471c1.3756 0.7503 2.5083 1.8777 3.2652 3.2496l-6.067 2.7975zm61.102-51.664c-0.87-0.8401-2.252-0.828-3.107 0.027s-0.867 2.2376-0.027 3.1074l-36.34 36.338c-1.0155-2.2164-3.1839-3.6799-5.6193-3.7927-0.0889-1.6297-0.7755-3.1695-1.9285-4.3247-0.5431-0.5306-1.1786-0.9573-1.8753-1.2591l36.353-36.353 3.1388 3.121c0.8693 0.8401 2.2523 0.8281 3.1073-0.027 0.855-0.855 0.867-2.2376 0.027-3.1073l-3.1343-3.1366 3.1363-3.1278 4.697 4.6972 4.698 4.6971-3.126 3.141z" fill="#2276F1"/>
    <path d="m120.35 13.69c0.635-0.6339 0.824-1.5873 0.481-2.4157s-1.151-1.3686-2.048-1.3686c-0.896 0-1.705 0.54018-2.048 1.3686s-0.153 1.7818 0.481 2.4157c0.866 0.8654 2.269 0.8654 3.134 0z" fill="#2276F1"/>
    <path d="m95.27 32.499-28.214 28.216c-0.6117 0.5484-0.87 1.3902-0.671 2.1873 0.1989 0.7971 0.8224 1.4188 1.62 1.6154 0.7977 0.1967 1.6387-0.0639 2.1854-0.6772l28.216-28.207c0.5599-0.5603 0.7784-1.3767 0.5731-2.1418-0.2053-0.765-0.8031-1.3624-1.5683-1.5671-0.7652-0.2048-1.5815 0.0143-2.1414 0.5746z" fill="#2276F1"/>
    <path d="m13.3 46.55c-1.2242 0-2.2167 0.9925-2.2167 2.2167 0 1.2243 0.9925 2.2167 2.2167 2.2167h2.2167c1.2242 0 2.2166-0.9924 2.2166-2.2167 0-1.2242-0.9924-2.2167-2.2166-2.2167h-2.2167z" fill="#2276F1"/>
    <path d="m57.633 48.767c0-1.2242-0.9924-2.2167-2.2166-2.2167h-31.033c-1.2242 0-2.2166 0.9925-2.2166 2.2167 0 1.2243 0.9924 2.2167 2.2166 2.2167h31.033c1.2242 0 2.2166-0.9924 2.2166-2.2167z" fill="#2276F1"/>
    <path d="m115.27 104.18h4.433c1.224 0 2.217-0.992 2.217-2.216 0-1.225-0.993-2.217-2.217-2.217h-4.433c-1.225 0-2.217 0.992-2.217 2.217 0 1.224 0.992 2.216 2.217 2.216z" fill="#2276F1"/>
    <path d="m84.233 99.75c-1.2242 0-2.2166 0.992-2.2166 2.217 0 1.224 0.9924 2.216 2.2166 2.216h22.167c1.224 0 2.217-0.992 2.217-2.216 0-1.225-0.993-2.217-2.217-2.217h-22.167z" fill="#2276F1"/>
  </g>
  <defs>
    <clipPath id="a">
      <rect width="133" height="133" fill="#fff"/>
    </clipPath>
  </defs>
</svg>
