<?xml version="1.0" encoding="UTF-8"?>
<svg fill="none" viewBox="0 0 110 110" xmlns="http://www.w3.org/2000/svg">
  <g clip-path="url(#a)">
    <path d="m64.167 58.667v11c0 4.0501 3.2833 7.3334 7.3333 7.3334h25.667v20.167c0 6.0754-4.9249 11-11 11h-73.333c-6.0752 0-11-4.925-11-11v-66c0-6.0751 4.9249-11 11-11h73.333c6.0751 0 11 4.9249 11 11v20.167h-25.667c-4.05 0-7.3333 3.2832-7.3333 7.3333z" fill="#E8EDFC"/>
    <path d="m86.167 20.167h-5.5c6.0751 0 11 4.9249 11 11v20.167h5.5v-20.167c0-6.0751-4.9249-11-11-11z" fill="#CAD9FC"/>
    <path d="m71.5 51.333h-5.5c-4.0501 0-7.3333 3.2833-7.3333 7.3333v11c0 4.05 3.2832 7.3333 7.3333 7.3333h5.5c-4.0501 0-7.3333-3.2833-7.3333-7.3333v-11c0-4.05 3.2832-7.3333 7.3333-7.3333z" fill="#CAD9FC"/>
    <path d="m91.667 97.167c0 6.0753-4.9249 11-11 11h5.5c6.0751 0 11-4.925 11-11v-20.167h-5.5v20.167z" fill="#CAD9FC"/>
    <path d="m100.83 51.333h-29.333c-4.0501 0-7.3333 3.2833-7.3333 7.3333v11c0 4.05 3.2832 7.3333 7.3333 7.3333h29.333c4.05 0 7.334-3.2833 7.334-7.3333v-11c0-4.05-3.284-7.3333-7.334-7.3333z" fill="#E8EDFC"/>
    <path d="m100.83 51.333h-5.4997c4.0501 0 7.3337 3.2833 7.3337 7.3333v11c0 4.05-3.2836 7.3333-7.3337 7.3333h5.4997c4.05 0 7.334-3.2833 7.334-7.3333v-11c0-4.05-3.284-7.3333-7.334-7.3333z" fill="#CAD9FC"/>
    <path d="m77 69.667c3.0376 0 5.5-2.4624 5.5-5.5 0-3.0375-2.4624-5.5-5.5-5.5s-5.5 2.4625-5.5 5.5c0 3.0376 2.4624 5.5 5.5 5.5z" fill="#A4C2F7"/>
    <path d="m18.333 20.167s3.7785-13.706 24.556-9.79c12.863 2.4237 22.698-4.6713 26.556-8.0776 0.439-0.38787 1.036-0.54439 1.6088-0.4218 0.5728 0.12258 1.0534 0.50974 1.2952 1.0433l8.3179 17.246h-62.333z" fill="#A4C2F7"/>
    <path d="m72.349 2.9204c-0.2418-0.53356-0.7224-0.92072-1.2952-1.0433-0.5729-0.12259-1.1698 0.03393-1.6088 0.4218-0.5628 0.49683-1.2687 1.078-2.079 1.6922l7.8008 16.175h5.5l-8.3178-17.246z" fill="#7FACFA"/>
    <path d="m12.833 108.17h5.5c-6.0752 0-11-4.925-11-11v-66c0-6.0751 4.9248-11 11-11h-5.5c-6.0752 0-11 4.9249-11 11v66c0 6.0754 4.9249 11 11 11z" fill="#fff"/>
    <path d="m38.645 9.8138c-17.037-1.408-20.312 10.353-20.312 10.353h5.5s2.5374-9.1501 14.812-10.353z" fill="#fff"/>
    <path d="M0 31.1666H3.66667V45.8333H0V31.1666Z" fill="#fff"/>
    <path d="m1.8333 40.333c1.0125 0 1.8333-0.8208 1.8333-1.8333s-0.82081-1.8333-1.8333-1.8333c-1.0125 0-1.8333 0.8208-1.8333 1.8333s0.82081 1.8333 1.8333 1.8333z" fill="#428DFF"/>
    <path d="m12.833 110h73.333c7.0843-8e-3 12.825-5.749 12.833-12.833v-18.333h1.833c5.06-6e-3 9.161-4.1065 9.167-9.1666v-11c-6e-3 -5.0601-4.107-9.1606-9.167-9.1667h-1.833v-18.333c-0.0081-7.0843-5.749-12.825-12.833-12.833h-4.3487l-7.8192-16.208c-0.4996-1.0598-1.4712-1.8206-2.6198-2.0515-1.1236-0.23155-2.2905 0.081082-3.1478 0.84333-3.4669 3.0708-12.844 9.955-25.003 7.6578-18.176-3.4247-24.436 6.1215-26.129 9.7588h-4.2662c-7.0843 0.0081-12.825 5.7491-12.833 12.833 0 1.0125 0.82081 1.8333 1.8333 1.8333 1.0125 0 1.8333-0.8208 1.8333-1.8333 0.00606-5.0601 4.1066-9.1606 9.1666-9.1667h73.333c5.0601 0.0061 9.1606 4.1066 9.1666 9.1667v18.333h-23.833c-5.0601 0.0061-9.1606 4.1066-9.1667 9.1667v11c0.0061 5.0601 4.1066 9.1606 9.1667 9.1666h23.833v3.6667h-3.6666c-1.0126 0-1.8334 0.8208-1.8334 1.8333 0 1.0126 0.8208 1.8334 1.8334 1.8334h3.6666v11c-6e-3 5.0602-4.1065 9.1602-9.1666 9.1662h-73.333c-5.0601-6e-3 -9.1606-4.106-9.1666-9.1662v-51.333c0-1.0125-0.82081-1.8333-1.8333-1.8333-1.0125 0-1.8333 0.8208-1.8333 1.8333v51.333c0.0080825 7.0842 5.749 12.825 12.833 12.833zm29.716-97.821c13.75 2.5905 24.237-5.0856 28.147-8.4608l7.0492 14.615h-56.498c2.1157-3.3 7.733-8.7138 21.302-6.1545zm23.45 57.488v-11c0-3.0376 2.4624-5.5 5.5-5.5h29.333c3.038 0 5.5 2.4624 5.5 5.5v11c0 3.0375-2.462 5.5-5.5 5.5h-29.333c-3.0376 0-5.5-2.4625-5.5-5.5z" fill="#428DFF"/>
    <path d="m9.1666 73.333c-1.0125 0-1.8333 0.8208-1.8333 1.8333v22c0 3.0373 2.4624 5.5003 5.5 5.5003h5.5c1.0125 0 1.8333-0.821 1.8333-1.834 0-1.0122-0.8208-1.833-1.8333-1.833h-5.5c-1.0125 0-1.8333-0.8208-1.8333-1.8333v-22c0-1.0125-0.8208-1.8333-1.8334-1.8333z" fill="#428DFF"/>
    <path d="m27.5 102.67c1.0125 0 1.8333-0.821 1.8333-1.834 0-1.0123-0.8208-1.8331-1.8333-1.8331h-1.8334c-1.0125 0-1.8333 0.8208-1.8333 1.8331 0 1.013 0.8208 1.834 1.8333 1.834h1.8334z" fill="#428DFF"/>
    <path d="m89.833 45.833c1.0125 0 1.8333-0.8208 1.8333-1.8333v-12.833c0-3.0375-2.4624-5.5-5.5-5.5h-5.5c-1.0125 0-1.8333 0.8208-1.8333 1.8334 0 1.0125 0.8208 1.8333 1.8333 1.8333h5.5c1.0126 0 1.8334 0.8208 1.8334 1.8333v12.833c0 1.0125 0.8208 1.8333 1.8333 1.8333z" fill="#428DFF"/>
    <path d="m73.333 29.333c1.0125 0 1.8333-0.8208 1.8333-1.8333 0-1.0126-0.8208-1.8334-1.8333-1.8334h-1.8333c-1.0126 0-1.8334 0.8208-1.8334 1.8334 0 1.0125 0.8208 1.8333 1.8334 1.8333h1.8333z" fill="#428DFF"/>
    <path d="m77 56.833c-4.0501 0-7.3334 3.2833-7.3334 7.3334 0 4.05 3.2833 7.3333 7.3334 7.3333s7.3333-3.2833 7.3333-7.3333c0-4.0501-3.2832-7.3334-7.3333-7.3334zm0 11c-2.0251 0-3.6667-1.6416-3.6667-3.6666 0-2.0251 1.6416-3.6667 3.6667-3.6667 2.025 0 3.6666 1.6416 3.6666 3.6667 0 2.025-1.6416 3.6666-3.6666 3.6666z" fill="#428DFF"/>
    <path d="m84.333 86.167c1.0125 0 1.8334-0.8209 1.8334-1.8334s-0.8209-1.8333-1.8334-1.8333h-9.1667c-1.0125 0-1.8333 0.8208-1.8333 1.8333s0.8208 1.8334 1.8333 1.8334h9.1667z" fill="#428DFF"/>
  </g>
  <defs>
    <clipPath id="a">
      <rect width="110" height="110" fill="#fff"/>
    </clipPath>
  </defs>
</svg>
