<?xml version="1.0" encoding="UTF-8"?>
<svg viewBox="0 0 128 119" xmlns="http://www.w3.org/2000/svg">
  <path d="m0.12201 57.403h4.2352v16.941h-4.2352v-16.941z" fill="#fff"/>
  <path d="m10.71 118.81h21.176c5.8446-7e-3 10.581-4.743 10.588-10.588v-50.822c-7e-3 -5.8447-4.7433-10.581-10.588-10.588h-21.176c-5.8447 7e-3 -10.581 4.7433-10.588 10.588 0 1.1695 0.94808 2.1175 2.1176 2.1175s2.1176-0.948 2.1176-2.1175c0-3.5086 2.8442-6.3528 6.3528-6.3528h21.176c3.5085 0 6.3527 2.8442 6.3527 6.3528v50.822c0 3.509-2.8442 6.353-6.3527 6.353h-21.176c-3.5086 0-6.3528-2.844-6.3528-6.353v-33.881c0-1.1695-0.94808-2.1176-2.1176-2.1176s-2.1176 0.9481-2.1176 2.1176v33.881c0.007001 5.845 4.7433 10.581 10.588 10.588z" fill="#2276F1"/>
  <path d="m116.59 65.874h-4.235c4.678 0 8.471 3.7923 8.471 8.4704 0 4.678-3.793 8.4703-8.471 8.4703h-4.235c4.678 0 8.47 3.7923 8.47 8.4704 0 4.678-3.792 8.4703-8.47 8.4703h-6.353c4.678 0 8.471 3.792 8.471 8.47s-3.793 8.471-8.471 8.471h-33.881c-9.3561 0-16.941-7.585-16.941-16.941v-45.359c-0.0029-3.4363 1.1872-6.7669 3.367-9.4233 5.4845-6.6281 15.691-20.054 15.691-27.804v-10.8c-0.0035-1.2176 0.5173-2.3778 1.4293-3.1844 0.9121-0.80666 2.1272-1.1818 3.3353-1.0296 5.0187 0.59293 12.176 4.1081 12.176 19.249-0.2136 5.3316-1.4501 10.572-3.6422 15.437-1.2399 2.622-1.0521 5.6961 0.4978 8.1475 1.5499 2.4515 4.2463 3.9396 7.1467 3.944h25.644c4.679 0 8.471 3.7923 8.471 8.4703 0 4.6781-3.792 8.4704-8.471 8.4704z" fill="#E8EDFC"/>
  <path d="m31.886 48.933h-21.176c-4.6781 0-8.4704 3.7923-8.4704 8.4704v50.822c0 4.678 3.7923 8.471 8.4704 8.471h21.176c4.678 0 8.4703-3.793 8.4703-8.471v-50.822c0-4.6781-3.7923-8.4704-8.4703-8.4704z" fill="#A4C2F7"/>
  <path d="m10.71 116.7h6.3527c-4.678 0-8.4703-3.793-8.4703-8.471v-50.822c0-4.6781 3.7923-8.4704 8.4703-8.4704h-6.3527c-4.6781 0-8.4704 3.7923-8.4704 8.4704v50.822c0 4.678 3.7923 8.471 8.4704 8.471z" fill="#fff"/>
  <path d="m2.2396 67.991c1.1695 0 2.1176-0.9481 2.1176-2.1176s-0.94808-2.1176-2.1176-2.1176-2.1176 0.9481-2.1176 2.1176 0.94808 2.1176 2.1176 2.1176z" fill="#428DFF"/>
  <path d="m93.296 80.697h-2.1176c-1.1695 0-2.1176 0.948-2.1176 2.1175 0 1.1696 0.9481 2.1176 2.1176 2.1176h2.1176c1.1695 0 2.1176-0.948 2.1176-2.1176 0-1.1695-0.9481-2.1175-2.1176-2.1175z" fill="#2276F1"/>
  <path d="m95.414 63.756h-2.1176c-1.1695 0-2.1176 0.9481-2.1176 2.1176s0.9481 2.1176 2.1176 2.1176h2.1176c1.1695 0 2.1175-0.9481 2.1175-2.1176s-0.948-2.1176-2.1175-2.1176z" fill="#2276F1"/>
  <path d="m59.414 95.52c-1.1695 0-2.1175 0.9481-2.1175 2.1176v4.2356c0 1.169 0.948 2.117 2.1175 2.117 1.1696 0 2.1176-0.948 2.1176-2.117v-4.2356c0-1.1695-0.948-2.1176-2.1176-2.1176z" fill="#2276F1"/>
  <path d="m59.414 70.109c-1.1695 0-2.1175 0.948-2.1175 2.1176v16.941c0 1.1695 0.948 2.1176 2.1175 2.1176 1.1696 0 2.1176-0.9481 2.1176-2.1176v-16.941c0-1.1696-0.948-2.1176-2.1176-2.1176z" fill="#2276F1"/>
  <path d="m31.886 48.933h-6.3528c4.6781 0 8.4704 3.7923 8.4704 8.4704v50.822c0 4.678-3.7923 8.471-8.4704 8.471h6.3528c4.678 0 8.4703-3.793 8.4703-8.471v-50.822c0-4.6781-3.7923-8.4704-8.4703-8.4704z" fill="#7FACFA"/>
  <path d="m21.298 65.874c2.3391 0 4.2352-1.8962 4.2352-4.2352s-1.8961-4.2352-4.2352-4.2352c-2.339 0-4.2352 1.8962-4.2352 4.2352s1.8962 4.2352 4.2352 4.2352z" fill="#E8EDFC"/>
  <path d="m27.651 61.638c0-3.5086-2.8442-6.3528-6.3528-6.3528-3.5085 0-6.3527 2.8442-6.3527 6.3528 0 3.5085 2.8442 6.3527 6.3527 6.3527 3.5086 0 6.3528-2.8442 6.3528-6.3527zm-8.4704 0c0-1.1695 0.9481-2.1176 2.1176-2.1176s2.1176 0.9481 2.1176 2.1176-0.9481 2.1176-2.1176 2.1176-2.1176-0.9481-2.1176-2.1176z" fill="#2276F1"/>
  <path d="m103.88 108.22c3e-3 2.248-0.889 4.404-2.478 5.993s-3.7451 2.481-5.9924 2.478h6.3524c4.678 0 8.471-3.793 8.471-8.471s-3.793-8.4699-8.471-8.4699h-6.3524c4.6784 0 8.4704 3.7919 8.4704 8.4699z" fill="#CAD9FC"/>
  <path d="m80.59 21.404c-0.2136 5.3316-1.4501 10.572-3.6422 15.437-1.2399 2.6219-1.0521 5.696 0.4978 8.1475s4.2463 3.9395 7.1467 3.9439h6.3528c-2.9004-0.0044-5.5968-1.4924-7.1467-3.9439s-1.7377-5.5256-0.4978-8.1475c2.1921-4.8648 3.4286-10.106 3.6422-15.437 0-15.141-7.1574-18.656-12.176-19.249-1.0878-0.13531-2.1851 0.16203-3.0557 0.82798 4.3686 1.7216 8.879 6.4015 8.879 18.421z" fill="#CAD9FC"/>
  <path d="m122.58 63.396c2.426-2.4226 3.152-6.0682 1.839-9.2351-1.312-3.1669-4.404-5.2307-7.832-5.228h-6.352c4.678 0 8.47 3.7923 8.47 8.4704 0 4.678-3.792 8.4703-8.47 8.4703h-4.235c4.678 0 8.47 3.7923 8.47 8.4704 0 4.678-3.792 8.4704-8.47 8.4704h-4.236c4.678 0 8.471 3.7923 8.471 8.4703 0 4.6781-3.793 8.4704-8.471 8.4704h6.353c4.678 0 8.47-3.7923 8.47-8.4704 0-4.678-3.792-8.4703-8.47-8.4703h4.235c4.678 0 8.471-3.7924 8.471-8.4704 0-4.6781-3.793-8.4704-8.471-8.4704h4.235c2.246-4e-3 4.4-0.8944 5.993-2.4776z" fill="#CAD9FC"/>
  <path d="m127.18 57.403c-7e-3 -5.8447-4.743-10.581-10.588-10.588h-25.648c-2.1392 0.0234-4.1382-1.0622-5.2834-2.8693-1.199-1.8669-1.3635-4.2163-0.4362-6.2321 2.3264-5.1358 3.6304-10.675 3.8392-16.31 0-17.119-8.7965-20.729-14.042-21.356-1.8101-0.22434-3.6292 0.3401-4.9944 1.5496-1.3651 1.2095-2.1445 2.9475-2.1398 4.7714v10.8c0 5.1012-5.5396 14.745-15.198 26.47-2.4924 3.0305-3.8567 6.8315-3.8604 10.755v45.361c0.0128 10.52 8.538 19.046 19.058 19.058h33.881c4.052-1e-3 7.747-2.315 9.518-5.959s1.308-7.979-1.193-11.166c3.74-0.71 6.811-3.3747 8.043-6.9777 1.231-3.6031 0.433-7.5899-2.091-10.441 3.271-1.2174 5.732-3.9688 6.579-7.355 0.846-3.3862-0.03-6.9721-2.344-9.5857 4.145-1.5452 6.895-5.5015 6.899-9.9251zm-10.588 6.3527h-12.705c-1.17 0-2.118 0.9481-2.118 2.1176s0.948 2.1176 2.118 2.1176h8.47c3.509 0 6.353 2.8443 6.353 6.3528s-2.844 6.3528-6.353 6.3528h-10.588c-1.169 0-2.1172 0.948-2.1172 2.1176 0 1.1695 0.9482 2.1175 2.1172 2.1175h6.353c3.509 0 6.353 2.8443 6.353 6.3528 0 3.5086-2.844 6.3528-6.353 6.3528h-14.823c-1.1695 0-2.1176 0.9481-2.1176 2.1176 0 1.1699 0.9481 2.1179 2.1176 2.1179h8.47c3.509 0 6.353 2.844 6.353 6.352 0 3.509-2.844 6.353-6.353 6.353h-33.881c-8.1827-9e-3 -14.814-6.64-14.823-14.823v-45.361c1e-4 -2.944 1.0226-5.7965 2.8926-8.0702 7.3756-8.9447 16.166-21.263 16.166-29.155v-10.8c-0.0043-0.60585 0.2545-1.1838 0.7094-1.584 0.3899-0.34916 0.8954-0.54152 1.4188-0.53999 0.0889 0 0.1778 0 0.2689 0.01482 6.7424 0.80045 10.308 6.7318 10.308 17.144-0.2156 5.0305-1.3908 9.9734-3.4622 14.563-1.5249 3.3258-1.2479 7.1996 0.7348 10.275 1.9339 3.0069 5.2678 4.82 8.843 4.809h25.648c3.509 0 6.353 2.8442 6.353 6.3528 0 3.5085-2.844 6.3527-6.353 6.3527z" fill="#2276F1"/>
  <path d="m10.71 97.637c1.1695 0 2.1176-0.948 2.1176-2.1176v-12.706c0-1.1695-0.9481-2.1176-2.1176-2.1176-1.1696 0-2.1176 0.9481-2.1176 2.1176v12.706c0 1.1696 0.94807 2.1176 2.1176 2.1176z" fill="#2276F1"/>
  <path d="m8.5924 106.11c0 1.169 0.94807 2.117 2.1176 2.117 1.1695 0 2.1176-0.948 2.1176-2.117v-2.118c0-1.169-0.9481-2.117-2.1176-2.117-1.1696 0-2.1176 0.948-2.1176 2.117v2.118z" fill="#2276F1"/>
</svg>
