<svg width="25" height="25" viewBox="0 0 25 25" fill="none" xmlns="http://www.w3.org/2000/svg">
<path d="M24.7152 23.3407L18.6138 17.2398C20.1303 15.416 21.044 13.0742 21.044 10.5225C21.044 4.72038 16.324 2.66856e-09 10.5223 2.66856e-09C4.72029 -0.000129596 0 4.72025 0 10.5224C0 16.3241 4.72029 21.0443 10.5223 21.0443C13.0738 21.0443 15.4156 20.1307 17.2392 18.6143L23.3407 24.7154C23.5304 24.9051 23.7792 25 24.0279 25C24.2766 25 24.5255 24.9051 24.7153 24.7153C25.0949 24.3357 25.0949 23.7203 24.7152 23.3407ZM1.94395 10.5224C1.94395 5.79216 5.79218 1.94385 10.5223 1.94385C15.2521 1.94385 19.1 5.79216 19.1 10.5224C19.1 15.2522 15.2522 19.1003 10.5223 19.1003C5.79218 19.1003 1.94395 15.2522 1.94395 10.5224Z" fill="#99AAB5"/>
<path d="M10.5208 5.44531C8.47449 5.44531 6.80957 7.11001 6.80957 9.15625C6.80957 12.2625 9.71007 15.1984 9.83357 15.3219C10.0233 15.5116 10.272 15.6065 10.5208 15.6065C10.7695 15.6065 11.0182 15.5116 11.2079 15.322C11.3314 15.1985 14.2334 12.2626 14.2334 9.15625C14.2332 7.11014 12.5678 5.44531 10.5208 5.44531ZM10.5185 13.1575C9.73508 12.1619 8.75352 10.5831 8.75352 9.15637C8.75352 8.18205 9.54626 7.38942 10.5208 7.38942C11.4959 7.38942 12.2893 8.18205 12.2893 9.15637C12.2893 10.6609 11.2453 12.2402 10.5185 13.1575Z" fill="#99AAB5"/>
</svg>
