<?xml version="1.0" encoding="utf-8"?>
<!-- Generator: Adobe Illustrator 26.2.1, SVG Export Plug-In . SVG Version: 6.00 Build 0)  -->
<svg version="1.1" id="Layer_1" xmlns="http://www.w3.org/2000/svg" xmlns:xlink="http://www.w3.org/1999/xlink" x="0px" y="0px"
	 viewBox="0 0 42.3 52.9" style="enable-background:new 0 0 42.3 52.9;" xml:space="preserve">
<style type="text/css">
	.st0{fill:#0AAD0A;}
	.st1{fill:#FF7009;}
	.st2{fill:none;}
</style>
<g>
	<g>
		<path class="st0" d="M36.4,8.6c-2.3,0-4,1-5.5,3.2l-4.4,6.4V0H15.9v18.2l-4.4-6.4C9.9,9.6,8.2,8.6,5.9,8.6C2.4,8.6,0,11.2,0,14.4
			c0,2.7,1.3,4.5,4,6.3l17.1,11l17.1-11c2.7-1.8,4-3.5,4-6.3C42.3,11.2,39.9,8.6,36.4,8.6z"/>
		<path class="st1" d="M21.1,34.4c10.2,0,18.5,7.6,18.5,18.5h-37C2.6,42,11,34.4,21.1,34.4z"/>
	</g>
	<g>
		<g>
			<g>
				<path class="st0" d="M36.4,8.6c-2.3,0-4,1-5.5,3.2l-4.4,6.4V0H15.9v18.2l-4.4-6.4C9.9,9.6,8.2,8.6,5.9,8.6
					C2.4,8.6,0,11.2,0,14.4c0,2.7,1.3,4.5,4,6.3l17.1,11l17.1-11c2.7-1.8,4-3.5,4-6.3C42.3,11.2,39.9,8.6,36.4,8.6z"/>
				<path class="st2" d="M21.1,34.4c10.2,0,18.5,7.6,18.5,18.5h-37C2.6,42,11,34.4,21.1,34.4z"/>
			</g>
		</g>
	</g>
</g>
</svg>
