<svg width="80" height="20" viewBox="0 0 80 20" fill="none" xmlns="http://www.w3.org/2000/svg">
<g clip-path="url(#clip0_1_18)">
<path d="M4.24339 4.39999V6.75079H6.17926V8.19159H4.24339V12.0749C4.24339 12.8028 4.46685 12.9849 5.3599 12.9849C5.65785 12.9849 5.95578 12.97 6.17924 12.9242V14.6077C5.73232 14.6685 5.13721 14.6833 4.6158 14.6833C2.58717 14.6833 1.60067 14.1828 1.60067 12.7872V8.19162H0V6.75082H1.60067V4.40002L4.24339 4.39999ZM15.7073 12.5451C15.7073 13.0604 15.819 13.167 16.3776 13.167H16.4522V14.5625C16.2104 14.6536 15.9125 14.7447 15.3538 14.7447C14.1256 14.7447 13.4932 14.4412 13.2881 13.7281C12.6557 14.3501 11.5384 14.8048 9.93855 14.8048C7.96538 14.8048 6.66264 13.9704 6.66264 12.454C6.66264 11.6958 6.96059 11.1649 7.50022 10.7858C8.11434 10.3609 9.00741 10.1336 10.6081 9.9973C12.3205 9.84554 13.0646 9.72413 13.0646 9.02663C13.0646 8.13154 12.2642 7.97978 11.3711 7.97978C10.2729 7.97978 9.69605 8.34402 9.60329 9.16291H6.96051C7.07223 7.44891 8.8028 6.53891 11.5019 6.53891C14.3125 6.53891 15.708 7.31259 15.708 8.76825V12.545L15.7073 12.5451ZM10.9249 13.364C12.3394 13.364 13.0653 12.742 13.0653 11.5893V10.7549C12.8236 10.937 12.3585 11.043 11.4646 11.134C10.1057 11.2703 9.30529 11.5131 9.30529 12.3624C9.30529 12.9849 9.77041 13.364 10.9249 13.364ZM23.3018 6.6145V8.6165C22.9894 8.56439 22.6712 8.53906 22.3524 8.54093C20.4355 8.54093 19.7469 9.61753 19.7469 11.0589V14.5928H17.1041V6.75066H19.6168V8.20693H19.6542C20.1566 7.22077 21.4038 6.53879 22.7247 6.53879C22.9854 6.53813 23.1709 6.58401 23.3016 6.61437L23.3018 6.6145ZM30.2995 7.79763H30.3367V6.75078H32.8494V14.1073C32.8494 16.1397 31.3978 17.5657 27.8802 17.5657C25.6473 17.5657 23.7304 16.6403 23.6187 15.0477H26.2431C26.4666 15.8059 27.1925 16.1249 28.2155 16.1249C29.5745 16.1249 30.3375 15.4275 30.3375 14.2288V13.1522H30.3004C29.7796 13.9104 28.7187 14.3657 27.416 14.3657C24.6425 14.3657 23.3026 12.7124 23.3026 10.4224C23.3026 8.42037 24.7352 6.53903 27.4343 6.53903C28.8106 6.53837 29.7037 6.96335 30.2997 7.79774L30.2995 7.79763ZM28.0847 12.742C29.5174 12.742 30.3369 11.7862 30.3369 10.5579C30.3369 9.46582 29.9272 8.16123 28.0666 8.16123C26.7084 8.16123 25.9452 9.10155 25.9452 10.3906C25.9444 11.6654 26.5585 12.742 28.0847 12.742ZM43.1787 10.8007C43.1787 10.9221 43.1604 11.1953 43.1604 11.1953H36.2189C36.2935 12.545 37.0565 13.1825 38.5636 13.1825C39.5684 13.1825 40.4622 12.7123 40.6667 12.166H42.9932C42.2856 13.9407 40.7967 14.8055 38.4892 14.8055C35.4367 14.8055 33.5761 13.0914 33.5761 10.68C33.5761 8.31371 35.5858 6.53905 38.4892 6.53905C41.5226 6.53838 43.1787 8.4803 43.1787 10.8007ZM40.5178 9.83003C40.257 8.6469 39.6247 8.1619 38.3957 8.1619C37.1112 8.1619 36.33 8.79931 36.2182 9.83003H40.5178ZM47.1439 4.40003V6.75083H49.0798V8.19163H47.1439V12.075C47.1439 12.8028 47.3674 12.9849 48.2603 12.9849C48.5584 12.9849 48.8563 12.9701 49.0798 12.9242V14.6079C48.6328 14.6685 48.0376 14.6833 47.5162 14.6833C45.4876 14.6833 44.5011 14.1829 44.5011 12.7873V8.19166H42.9004V6.75086H44.5011V4.40006L47.1439 4.40003Z" fill="#CC0000"/>
<path d="M55.4601 10.0007C55.4601 4.47663 60.9526 0 67.7292 0C74.5057 0 80 4.47636 80 10.0007C80 15.5213 74.506 20 67.7292 20C60.9528 20 55.4601 15.5215 55.4601 10.0007ZM67.7268 16.6653C72.2436 16.6653 75.9051 13.6805 75.9051 10.0003C75.9051 6.31853 72.2436 3.3338 67.7268 3.3338C63.2103 3.3338 59.5488 6.31827 59.5488 10.0003C59.5488 13.6805 63.2108 16.6653 67.7268 16.6653ZM71.816 10C71.816 11.8404 69.9854 13.3327 67.7268 13.3327C65.4681 13.3327 63.638 11.8404 63.638 10C63.638 8.15956 65.4686 6.66733 67.7271 6.66733C69.9858 6.66733 71.816 8.15956 71.816 10Z" fill="#CC0000"/>
</g>
<defs>
<clipPath id="clip0_1_18">
<rect width="80" height="20" fill="white"/>
</clipPath>
</defs>
</svg>
