<svg width="100" height="22" viewBox="0 0 100 22" fill="none" xmlns="http://www.w3.org/2000/svg">
<g clip-path="url(#clip0_1_18)">
<path d="M5.30423 4.84V7.42588H7.72407V9.01076H5.30423V13.2824C5.30423 14.083 5.58356 14.2834 6.69988 14.2834C7.07231 14.2834 7.44472 14.267 7.72405 14.2166V16.0685C7.1654 16.1354 6.42151 16.1517 5.76975 16.1517C3.23397 16.1517 2.00084 15.6011 2.00084 14.0659V9.01079H0V7.42591H2.00084V4.84003L5.30423 4.84ZM19.6341 13.7996C19.6341 14.3665 19.7737 14.4837 20.472 14.4837H20.5652V16.0188C20.263 16.119 19.8906 16.2191 19.1923 16.2191C17.657 16.2191 16.8665 15.8853 16.6101 15.1009C15.8197 15.7851 14.423 16.2853 12.4232 16.2853C9.95673 16.2853 8.3283 15.3674 8.3283 13.6994C8.3283 12.8654 8.70074 12.2814 9.37528 11.8644C10.1429 11.397 11.2593 11.1469 13.2601 10.997C15.4006 10.8301 16.3307 10.6965 16.3307 9.9293C16.3307 8.9447 15.3303 8.77776 14.2139 8.77776C12.8411 8.77776 12.1201 9.17843 12.0041 10.0792H8.70063C8.84029 8.19381 11.0035 7.19281 14.3773 7.19281C17.8906 7.19281 19.635 8.04386 19.635 9.64508V13.7996L19.6341 13.7996ZM13.6562 14.7004C15.4243 14.7004 16.3316 14.0163 16.3316 12.7482V11.8304C16.0295 12.0307 15.4481 12.1473 14.3308 12.2474C12.6321 12.3973 11.6316 12.6644 11.6316 13.5986C11.6316 14.2834 12.213 14.7004 13.6562 14.7004ZM29.1272 7.27595V9.47815C28.7368 9.42084 28.3391 9.39297 27.9405 9.39502C25.5444 9.39502 24.6836 10.5793 24.6836 12.1648V16.0521H21.3802V7.42573H24.5211V9.02762H24.5677C25.1957 7.94285 26.7548 7.19268 28.4059 7.19268C28.7317 7.19194 28.9636 7.24241 29.127 7.27581L29.1272 7.27595ZM37.8744 8.5774H37.9209V7.42586H41.0618V15.5181C41.0618 17.7537 39.2472 19.3223 34.8503 19.3223C32.0591 19.3223 29.663 18.3043 29.5233 16.5525H32.8039C33.0832 17.3865 33.9906 17.7374 35.2693 17.7374C36.9681 17.7374 37.9219 16.9702 37.9219 15.6517V14.4674H37.8755C37.2245 15.3014 35.8984 15.8023 34.2699 15.8023C30.8031 15.8023 29.1282 13.9836 29.1282 11.4646C29.1282 9.26241 30.919 7.19294 34.2928 7.19294C36.0133 7.19221 37.1297 7.65969 37.8746 8.57752L37.8744 8.5774ZM35.1059 14.0162C36.8967 14.0162 37.9211 12.9649 37.9211 11.6137C37.9211 10.4124 37.409 8.97736 35.0832 8.97736C33.3855 8.97736 32.4315 10.0117 32.4315 11.4296C32.4305 12.8319 33.1982 14.0162 35.1059 14.0162ZM53.9734 11.8808C53.9734 12.0143 53.9505 12.3148 53.9505 12.3148H45.2736C45.3669 13.7995 46.3207 14.5007 48.2045 14.5007C49.4605 14.5007 50.5777 13.9836 50.8333 13.3826H53.7415C52.8571 15.3347 50.9959 16.286 48.1115 16.286C44.2959 16.286 41.9701 14.4006 41.9701 11.748C41.9701 9.14509 44.4822 7.19296 48.1115 7.19296C51.9033 7.19222 53.9734 9.32833 53.9734 11.8808ZM50.6472 10.813C50.3213 9.51159 49.5309 8.97809 47.9947 8.97809C46.389 8.97809 45.4125 9.67925 45.2728 10.813H50.6472ZM58.9299 4.84004V7.42592H61.3497V9.0108H58.9299V13.2825C58.9299 14.0831 59.2092 14.2834 60.3254 14.2834C60.698 14.2834 61.0703 14.2671 61.3497 14.2166V16.0687C60.791 16.1354 60.047 16.1517 59.3953 16.1517C56.8595 16.1517 55.6264 15.6012 55.6264 14.066V9.01083H53.6256V7.42595H55.6264V4.84007L58.9299 4.84004Z" fill="#CC0000"/>
<path d="M69.3252 11.0007C69.3252 4.92429 76.1908 0 84.6616 0C93.1321 0 100 4.924 100 11.0007C100 17.0735 93.1325 22 84.6616 22C76.191 22 69.3252 17.0736 69.3252 11.0007ZM84.6585 18.3319C90.3045 18.3319 94.8814 15.0486 94.8814 11.0004C94.8814 6.95039 90.3045 3.66718 84.6585 3.66718C79.0129 3.66718 74.436 6.95009 74.436 11.0004C74.436 15.0486 79.0135 18.3319 84.6585 18.3319ZM89.77 11C89.77 13.0245 87.4818 14.6659 84.6585 14.6659C81.8352 14.6659 79.5475 13.0245 79.5475 11C79.5475 8.97552 81.8358 7.33407 84.6589 7.33407C87.4822 7.33407 89.77 8.97552 89.77 11Z" fill="#CC0000"/>
</g>
<defs>
<clipPath id="clip0_1_18">
<rect width="100" height="22" fill="white"/>
</clipPath>
</defs>
</svg>
