<svg width="75" height="21" viewBox="0 0 75 21" fill="none" xmlns="http://www.w3.org/2000/svg">
<g clip-path="url(#clip0_67_31)">
<path d="M4.13662 2.94V5.83972H6.02378V7.61697H4.13662V12.4071C4.13662 13.3049 4.35445 13.5295 5.22504 13.5295C5.51549 13.5295 5.80593 13.5112 6.02376 13.4546V15.5313C5.58809 15.6062 5.00796 15.6246 4.49967 15.6246C2.52208 15.6246 1.5604 15.0072 1.5604 13.2857V7.61699H0V5.83976H1.5604V2.94003L4.13662 2.94ZM15.3121 12.987C15.3121 13.6227 15.421 13.7541 15.9655 13.7541H16.0382V15.4756C15.8026 15.5879 15.5121 15.7003 14.9675 15.7003C13.7702 15.7003 13.1537 15.3258 12.9537 14.4465C12.3373 15.2135 11.2481 15.7744 9.68849 15.7744C7.76497 15.7744 6.495 14.7452 6.495 12.8747C6.495 11.9394 6.78546 11.2846 7.31151 10.817C7.91017 10.2928 8.78077 10.0124 10.3412 9.84431C12.0105 9.65712 12.7358 9.50736 12.7358 8.64699C12.7358 7.54289 11.9556 7.35568 11.085 7.35568C10.0144 7.35568 9.45208 7.80499 9.36167 8.81509H6.78537C6.8943 6.70086 8.58131 5.57837 11.2125 5.57837C13.9524 5.57837 15.3128 6.53271 15.3128 8.32826V12.987L15.3121 12.987ZM10.6501 13.9971C12.0289 13.9971 12.7366 13.23 12.7366 11.8081V10.7788C12.501 11.0035 12.0475 11.1341 11.1762 11.2465C9.85141 11.4146 9.07116 11.7141 9.07116 12.7616C9.07116 13.5295 9.52457 13.9971 10.6501 13.9971ZM22.7154 5.67161V8.14108C22.4109 8.07681 22.1007 8.04558 21.7899 8.04787C19.9214 8.04787 19.2501 9.37586 19.2501 11.1538V15.5128H16.6738V5.83957H19.1233V7.63588H19.1596C19.6494 6.41945 20.8652 5.57822 22.1529 5.57822C22.407 5.5774 22.5878 5.63401 22.7152 5.67144L22.7154 5.67161ZM29.5372 7.13101H29.5734V5.83971H32.023V14.9141C32.023 17.421 30.6078 19.18 27.1789 19.18C25.002 19.18 23.1333 18.0384 23.0244 16.0741H25.5829C25.8007 17.0093 26.5083 17.4028 27.5056 17.4028C28.8303 17.4028 29.5743 16.5424 29.5743 15.0639V13.7359H29.5379C29.0305 14.6712 27.9961 15.2327 26.7261 15.2327C24.0224 15.2327 22.7162 13.1934 22.7162 10.3686C22.7162 7.89915 24.1129 5.57852 26.744 5.57852C28.0858 5.5777 28.9563 6.10191 29.5374 7.13114L29.5372 7.13101ZM27.378 13.23C28.7747 13.23 29.5736 12.051 29.5736 10.5358C29.5736 9.18873 29.1741 7.57952 27.3603 7.57952C26.0363 7.57952 25.2924 8.7394 25.2924 10.3294C25.2915 11.9019 25.8902 13.23 27.378 13.23ZM42.0922 10.8353C42.0922 10.9851 42.0746 11.322 42.0746 11.322H35.3076C35.3803 12.9869 36.1241 13.7733 37.5934 13.7733C38.5728 13.7733 39.4441 13.1933 39.6435 12.5194H41.9115C41.2217 14.7084 39.7703 15.7752 37.5208 15.7752C34.5451 15.7752 32.7313 13.661 32.7313 10.6864C32.7313 7.76759 34.6905 5.57854 37.5208 5.57854C40.4779 5.57771 42.0922 7.97309 42.0922 10.8353ZM39.4983 9.63799C39.2441 8.17859 38.6277 7.58034 37.4296 7.58034C36.1774 7.58034 35.4158 8.36658 35.3069 9.63799H39.4983ZM45.9576 2.94006V5.83978H47.8448V7.61701H45.9576V12.4071C45.9576 13.3049 46.1754 13.5296 47.0461 13.5296C47.3365 13.5296 47.627 13.5112 47.8448 13.4547V15.5315C47.4092 15.6064 46.829 15.6247 46.3207 15.6247C44.3431 15.6247 43.3815 15.0073 43.3815 13.2857V7.61705H41.821V5.83981H43.3815V2.94008L45.9576 2.94006Z" fill="#CC0000"/>
<path d="M53.4483 10.5007C53.4483 4.70046 58.272 0 64.2234 0C70.1747 0 75 4.70018 75 10.5007C75 16.2974 70.175 21 64.2234 21C58.2721 21 53.4483 16.2975 53.4483 10.5007ZM64.2213 17.4986C68.1881 17.4986 71.4037 14.3646 71.4037 10.5004C71.4037 6.63446 68.1881 3.50049 64.2213 3.50049C60.2547 3.50049 57.0392 6.63418 57.0392 10.5004C57.0392 14.3646 60.2552 17.4986 64.2213 17.4986ZM67.8125 10.5C67.8125 12.4325 66.2049 13.9993 64.2213 13.9993C62.2376 13.9993 60.6303 12.4325 60.6303 10.5C60.6303 8.56754 62.2381 7.0007 64.2215 7.0007C66.2052 7.0007 67.8125 8.56754 67.8125 10.5Z" fill="#CC0000"/>
</g>
<defs>
<clipPath id="clip0_67_31">
<rect width="75" height="21" fill="white"/>
</clipPath>
</defs>
</svg>
