<svg width="80" height="20" viewBox="0 0 80 20" fill="none" xmlns="http://www.w3.org/2000/svg">
<path d="M46.4001 10.6431C46.4001 8.66797 45.5892 6.92288 42.8467 6.92288C41.4397 6.92288 40.322 7.34101 39.716 7.707L40.1601 9.29158C40.7181 8.92661 41.6083 8.62605 42.4486 8.62605C43.837 8.62401 44.0645 9.44288 44.0645 9.96937V10.0961C41.0338 10.091 39.1179 11.1829 39.1179 13.4064C39.1179 14.765 40.0905 16.0388 41.7907 16.0388C42.8281 16.0388 43.7046 15.6023 44.2282 14.9133H44.2792C44.2792 14.9133 44.6244 16.4191 46.5334 15.8436C46.4363 15.2128 46.4001 14.5483 46.4001 13.7407V10.6431ZM44.1391 12.7286C44.1391 12.8881 44.1263 13.0537 44.0812 13.1958C43.9066 13.8041 43.3046 14.3132 42.5555 14.3132C41.9231 14.3132 41.4269 13.94 41.4269 13.158C41.4269 11.9619 42.6937 11.6327 44.1391 11.6409" fill="#0071CE"/>
<path d="M0 4.23553C0 4.23553 1.97961 12.6798 2.29436 14.0477C2.66498 15.6466 3.32878 16.2375 5.24468 15.8439L6.48206 10.6076C6.79484 9.31029 7.00759 8.37999 7.2096 7.05814H7.24389C7.38411 8.39328 7.58611 9.31029 7.84201 10.6117C7.84201 10.6117 8.34695 12.9906 8.60877 14.2368C8.86368 15.483 9.5814 16.2692 11.461 15.8439L14.4065 4.23553H12.0287L11.0179 9.25713C10.7502 10.7119 10.507 11.8579 10.3178 13.191H10.2834C10.1129 11.8722 9.89615 10.7732 9.6177 9.34812L8.57053 4.23553H6.08987L4.97209 9.21726C4.65342 10.7385 4.35536 11.9581 4.16807 13.2493H4.13573C3.94258 12.0378 3.68079 10.4952 3.40329 9.0312C3.40329 9.0312 2.73949 5.46436 2.50517 4.23553" fill="#0071CE"/>
<path d="M21.0327 10.6431C21.0327 8.66797 20.2198 6.92288 17.4774 6.92288C16.0743 6.92288 14.9546 7.34101 14.3487 7.707L14.7928 9.29158C15.3488 8.92661 16.2381 8.62605 17.0813 8.62605C18.4697 8.62401 18.6971 9.44288 18.6971 9.96937V10.0961C15.6664 10.091 13.7486 11.1829 13.7486 13.4064C13.7486 14.765 14.7252 16.0388 16.4175 16.0388C17.4646 16.0388 18.3334 15.6023 18.857 14.9133H18.9099C18.9099 14.9133 19.257 16.4191 21.1641 15.8436C21.066 15.2128 21.0327 14.5483 21.0327 13.7407V10.6431ZM18.7697 12.7286C18.7697 12.8881 18.757 13.0537 18.7138 13.1958C18.5373 13.8041 17.9353 14.3132 17.1843 14.3132C16.5557 14.3132 16.0577 13.94 16.0577 13.158C16.0577 11.9619 17.3244 11.6327 18.7697 11.6409" fill="#0071CE"/>
<path d="M22.2665 4.23553V15.8398H24.5295V13.3791V4.23553H22.2665Z" fill="#0071CE"/>
<path d="M53.3455 4.23553V12.7974C53.3455 13.9792 53.5582 14.8032 54.0161 15.3082C54.4181 15.7509 55.076 16.0391 55.8594 16.0391C56.5321 16.0391 57.19 15.9042 57.5008 15.7866L57.4733 13.9434C57.2409 13.9996 56.9752 14.0477 56.6105 14.0477C55.8379 14.0477 55.5829 13.5376 55.5829 12.4764V9.19886H57.5537V6.98147H55.5829V4.23553" fill="#0071CE"/>
<path d="M47.4964 7.12432V15.8436H49.8359V11.3782C49.8359 11.1379 49.8505 10.9304 49.8869 10.7382C50.0614 9.79665 50.7467 9.20064 51.7341 9.20064C52.0096 9.20064 52.1969 9.23233 52.4048 9.26607V6.98018C52.2302 6.94747 52.1116 6.93008 51.8969 6.93008C51.0213 6.93008 50.029 7.50973 49.6103 8.77229H49.5525V7.12432" fill="#0071CE"/>
<path d="M25.8436 7.12432V15.8436H28.1233V10.7259C28.1233 10.4857 28.1487 10.2403 28.2301 10.0185C28.4155 9.50018 28.8753 8.90008 29.6136 8.90008C30.5314 8.90008 30.9647 9.70771 30.9647 10.8731V15.8436H33.2386V10.6646C33.2386 10.4387 33.269 10.1616 33.3326 9.96124C33.515 9.37341 34.0131 8.90008 34.7015 8.90008C35.629 8.90008 36.0781 9.69033 36.0781 11.0643V15.8436H38.3498V10.7024C38.3498 8.00147 37.0321 6.93008 35.5358 6.93008C34.8779 6.93008 34.3544 7.09877 33.8837 7.40137C33.4856 7.65593 33.1366 8.01476 32.8238 8.484H32.7895C32.4296 7.54552 31.5844 6.93008 30.4804 6.93008C29.0646 6.93008 28.4213 7.67535 28.0429 8.30509H28.0085V7.12432" fill="#0071CE"/>
<path d="M69.797 6.73295C70.2441 6.73295 70.6206 6.48964 70.6696 6.17681L71.1128 0.942572C71.1128 0.42426 70.5275 0 69.797 0C69.0626 0 68.4812 0.42426 68.4812 0.942573L68.9283 6.17681C68.9754 6.48964 69.3499 6.73295 69.797 6.73295Z" fill="#FFC220"/>
<path d="M67.0778 8.37079C67.2994 7.96186 67.2866 7.50796 67.0474 7.30554L62.9097 4.2887C62.4793 4.02699 61.835 4.33879 61.4664 4.99921C61.0987 5.65859 61.1732 6.39875 61.5948 6.65535L66.1757 8.86968C66.4689 8.98417 66.8523 8.77153 67.0778 8.3667" fill="#FFC220"/>
<path d="M72.5157 8.3665C72.75 8.77134 73.1333 8.98398 73.4187 8.87562L77.9996 6.65515C78.4251 6.39344 78.4889 5.66044 78.129 5.00105C77.7613 4.34064 77.1132 4.03088 76.6838 4.28748L72.5451 7.30125C72.3156 7.50674 72.299 7.96269 72.5205 8.37059" fill="#FFC220"/>
<path d="M69.797 13.2711C70.2441 13.2711 70.6206 13.5144 70.6696 13.8273L71.1128 19.0615C71.1128 19.5798 70.5275 20 69.797 20C69.0626 20 68.4812 19.5798 68.4812 19.0615L68.9283 13.8273C68.9754 13.5144 69.3499 13.2711 69.797 13.2711Z" fill="#FFC220"/>
<path d="M72.5157 11.6379C72.75 11.232 73.1333 11.0153 73.4187 11.1329L77.9996 13.3492C78.4251 13.6058 78.4889 14.345 78.129 15.0054C77.7613 15.6607 77.1132 15.9725 76.6838 15.7159L72.5451 12.698C72.3156 12.4946 72.299 12.0407 72.5205 11.6379" fill="#FFC220"/>
<path d="M67.0778 11.6334C67.2994 12.0413 67.2866 12.4942 67.0474 12.6987L62.9097 15.7114C62.4793 15.9731 61.835 15.6603 61.4664 15.005C61.0987 14.3456 61.1732 13.6054 61.5948 13.3488L66.1757 11.1325C66.4689 11.0159 66.8523 11.2306 67.0778 11.6334Z" fill="#FFC220"/>
<path d="M79.3401 15.2566H79.397C79.4744 15.2566 79.5058 15.2821 79.5147 15.3465C79.5313 15.4181 79.5402 15.4661 79.5568 15.4866H79.7039C79.6911 15.4713 79.6744 15.4324 79.6656 15.3424C79.649 15.2648 79.6107 15.2208 79.5568 15.2055V15.1911C79.6313 15.1738 79.6744 15.1216 79.6744 15.0572C79.6744 14.999 79.649 14.957 79.6235 14.9305C79.5744 14.9059 79.5274 14.8865 79.4235 14.8865C79.3313 14.8865 79.2636 14.8947 79.2097 14.908V15.4866H79.3401V15.2566ZM79.344 14.9928L79.4107 14.9836C79.4892 14.9836 79.5313 15.0214 79.5313 15.0746C79.5313 15.1339 79.4744 15.1615 79.4019 15.1615H79.344V14.9928ZM79.4274 14.6003C79.1058 14.6003 78.8509 14.862 78.8509 15.183C78.8509 15.5122 79.1058 15.7739 79.4274 15.7739C79.7529 15.7739 80 15.5122 80 15.183C80 14.862 79.7529 14.6003 79.4274 14.6003ZM79.4274 14.7178C79.6744 14.7178 79.8578 14.9264 79.8578 15.183C79.8578 15.4416 79.6744 15.6563 79.4274 15.6522C79.1803 15.6522 78.993 15.4416 78.993 15.183C78.993 14.9264 79.1803 14.7178 79.4235 14.7178" fill="#FFC220"/>
</svg>
