<svg width="100" height="22" viewBox="0 0 100 22" fill="none" xmlns="http://www.w3.org/2000/svg">
<path d="M58.0001 11.7074C58.0001 9.53477 56.9864 7.61517 53.5584 7.61517C51.7996 7.61517 50.4025 8.07511 49.645 8.4777L50.2002 10.2207C50.8976 9.81928 52.0104 9.48866 53.0608 9.48866C54.7963 9.48641 55.0806 10.3872 55.0806 10.9663V11.1058C51.2922 11.1001 48.8974 12.3011 48.8974 14.747C48.8974 16.2415 50.1132 17.6427 52.2384 17.6427C53.5351 17.6427 54.6308 17.1625 55.2853 16.4046H55.349C55.349 16.4046 55.7805 18.0611 58.1667 17.4279C58.0454 16.7341 58.0001 16.0031 58.0001 15.1148V11.7074ZM55.1738 14.0015C55.1738 14.1769 55.1579 14.3591 55.1015 14.5154C54.8833 15.1845 54.1308 15.7445 53.1944 15.7445C52.4039 15.7445 51.7837 15.334 51.7837 14.4738C51.7837 13.158 53.3672 12.7959 55.1738 12.8049" fill="#0071CE"/>
<path d="M0 4.65909C0 4.65909 2.47451 13.9478 2.86795 15.4525C3.33123 17.2112 4.16098 17.8612 6.55585 17.4283L8.10258 11.6684C8.49356 10.2413 8.75949 9.21799 9.012 7.76395H9.05486C9.23013 9.23261 9.48264 10.2413 9.80251 11.6729C9.80251 11.6729 10.4337 14.2897 10.761 15.6605C11.0796 17.0313 11.9767 17.8961 14.3263 17.4283L18.0081 4.65909H15.0359L13.7723 10.1828C13.4377 11.7831 13.1337 13.0437 12.8972 14.5101H12.8543C12.6411 13.0594 12.3702 11.8505 12.0221 10.2829L10.7132 4.65909H7.61234L6.21511 10.139C5.81677 11.8123 5.4442 13.1539 5.21009 14.5742H5.16966C4.92822 13.2416 4.60098 11.5447 4.25411 9.93432C4.25411 9.93432 3.42436 6.01079 3.13146 4.65909" fill="#0071CE"/>
<path d="M26.2909 11.7074C26.2909 9.53477 25.2748 7.61517 21.8467 7.61517C20.0929 7.61517 18.6933 8.07511 17.9358 8.4777L18.491 10.2207C19.186 9.81928 20.2976 9.48866 21.3516 9.48866C23.0871 9.48641 23.3714 10.3872 23.3714 10.9663V11.1058C19.5831 11.1001 17.1858 12.3011 17.1858 14.747C17.1858 16.2415 18.4065 17.6427 20.5219 17.6427C21.8308 17.6427 22.9168 17.1625 23.5712 16.4046H23.6374C23.6374 16.4046 24.0712 18.0611 26.4551 17.4279C26.3326 16.7341 26.2909 16.0031 26.2909 15.1148V11.7074ZM23.4622 14.0015C23.4622 14.1769 23.4462 14.3591 23.3923 14.5154C23.1716 15.1845 22.4192 15.7445 21.4803 15.7445C20.6947 15.7445 20.0721 15.334 20.0721 14.4738C20.0721 13.158 21.6555 12.7959 23.4622 12.8049" fill="#0071CE"/>
<path d="M27.8332 4.65909V17.4238H30.6619V14.717V4.65909H27.8332Z" fill="#0071CE"/>
<path d="M66.6818 4.65909V14.0771C66.6818 15.3771 66.9478 16.2835 67.5201 16.839C68.0226 17.3259 68.845 17.6431 69.8243 17.6431C70.6651 17.6431 71.4874 17.4946 71.876 17.3653L71.8416 15.3377C71.5512 15.3996 71.219 15.4525 70.7631 15.4525C69.7973 15.4525 69.4787 14.8913 69.4787 13.724V10.1187H71.9422V7.67961H69.4787V4.65909" fill="#0071CE"/>
<path d="M59.3705 7.83674V17.428H62.2948V12.516C62.2948 12.2517 62.3132 12.0234 62.3586 11.812C62.5767 10.7763 63.4334 10.1207 64.6676 10.1207C65.012 10.1207 65.2461 10.1555 65.506 10.1927V7.67818C65.2877 7.6422 65.1395 7.62308 64.8711 7.62308C63.7766 7.62308 62.5362 8.26069 62.0129 9.6495H61.9406V7.83674" fill="#0071CE"/>
<path d="M32.3046 7.83674V17.428H35.1541V11.7985C35.1541 11.5342 35.1859 11.2643 35.2877 11.0203C35.5193 10.4502 36.0942 9.79007 37.017 9.79007C38.1642 9.79007 38.7059 10.6785 38.7059 11.9604V17.428H41.5482V11.731C41.5482 11.4825 41.5862 11.1778 41.6658 10.9573C41.8938 10.3107 42.5164 9.79007 43.3768 9.79007C44.5362 9.79007 45.0976 10.6593 45.0976 12.1707V17.428H47.9373V11.7726C47.9373 8.8016 46.2901 7.62308 44.4198 7.62308C43.5974 7.62308 42.9429 7.80863 42.3546 8.14149C41.857 8.4215 41.4207 8.81622 41.0297 9.33238H40.9868C40.537 8.30005 39.4805 7.62308 38.1004 7.62308C36.3307 7.62308 35.5267 8.44287 35.0536 9.13559H35.0107V7.83674" fill="#0071CE"/>
<path d="M87.2463 7.40624C87.8052 7.40624 88.2758 7.1386 88.3371 6.79449L88.8911 1.03683C88.8911 0.466686 88.1594 0 87.2463 0C86.3283 0 85.6015 0.466686 85.6015 1.03683L86.1603 6.79449C86.2192 7.1386 86.6874 7.40624 87.2463 7.40624Z" fill="#FFC220"/>
<path d="M83.8473 9.20786C84.1242 8.75804 84.1083 8.25874 83.8093 8.03608L78.6371 4.71756C78.0991 4.42968 77.2938 4.77266 76.833 5.49912C76.3734 6.22444 76.4665 7.03862 76.9936 7.32088L82.7197 9.75663C83.0861 9.88258 83.5653 9.64868 83.8473 9.20336" fill="#FFC220"/>
<path d="M90.6446 9.20316C90.9375 9.64848 91.4167 9.88239 91.7734 9.76319L97.4995 7.32068C98.0314 7.0328 98.1111 6.2265 97.6613 5.50117C97.2017 4.77471 96.3915 4.43398 95.8547 4.71624L90.6813 8.03139C90.3945 8.25742 90.3737 8.75897 90.6507 9.20766" fill="#FFC220"/>
<path d="M87.2463 14.5982C87.8052 14.5982 88.2758 14.8659 88.3371 15.21L88.8911 20.9676C88.8911 21.5378 88.1594 22 87.2463 22C86.3283 22 85.6015 21.5378 85.6015 20.9676L86.1603 15.21C86.2192 14.8659 86.6874 14.5982 87.2463 14.5982Z" fill="#FFC220"/>
<path d="M90.6446 12.8017C90.9375 12.3552 91.4167 12.1168 91.7734 12.2462L97.4995 14.6842C98.0314 14.9664 98.1111 15.7795 97.6613 16.5059C97.2017 17.2268 96.3915 17.5697 95.8547 17.2875L90.6813 13.9678C90.3945 13.744 90.3737 13.2447 90.6507 12.8017" fill="#FFC220"/>
<path d="M83.8473 12.7967C84.1242 13.2454 84.1083 13.7436 83.8093 13.9685L78.6371 17.2825C78.0991 17.5704 77.2938 17.2263 76.833 16.5055C76.3734 15.7801 76.4665 14.966 76.9936 14.6837L82.7197 12.2457C83.0861 12.1175 83.5653 12.3537 83.8473 12.7967Z" fill="#FFC220"/>
<path d="M99.1751 16.7822H99.2463C99.3431 16.7822 99.3823 16.8103 99.3933 16.8812C99.4141 16.9599 99.4252 17.0128 99.446 17.0353H99.6299C99.6139 17.0184 99.5931 16.9757 99.5821 16.8767C99.5612 16.7912 99.5134 16.7429 99.446 16.726V16.7103C99.5391 16.6911 99.5931 16.6338 99.5931 16.5629C99.5931 16.4988 99.5612 16.4527 99.5293 16.4235C99.4681 16.3965 99.4093 16.3751 99.2793 16.3751C99.1641 16.3751 99.0795 16.3841 99.0121 16.3988V17.0353H99.1751V16.7822ZM99.1801 16.4921L99.2634 16.482C99.3615 16.482 99.4141 16.5236 99.4141 16.5821C99.4141 16.6473 99.3431 16.6776 99.2524 16.6776H99.1801V16.4921ZM99.2843 16.0603C98.8823 16.0603 98.5636 16.3482 98.5636 16.7013C98.5636 17.0634 98.8823 17.3512 99.2843 17.3512C99.6911 17.3512 100 17.0634 100 16.7013C100 16.3482 99.6911 16.0603 99.2843 16.0603ZM99.2843 16.1896C99.5931 16.1896 99.8223 16.419 99.8223 16.7013C99.8223 16.9858 99.5931 17.2219 99.2843 17.2174C98.9754 17.2174 98.7412 16.9858 98.7412 16.7013C98.7412 16.419 98.9754 16.1896 99.2793 16.1896" fill="#FFC220"/>
</svg>
