<svg width="21" height="21" viewBox="0 0 21 21" fill="none" xmlns="http://www.w3.org/2000/svg">
  <path d="M7.34921 1H2.0582C1.47377 1 1 1.50254 1 2.12245V7.73469C1 8.35461 1.47377 8.85714 2.0582 8.85714H7.34921C7.93363 8.85714 8.40741 8.35461 8.40741 7.73469V2.12245C8.40741 1.50254 7.93363 1 7.34921 1Z" stroke="#96A7B4" stroke-width="2" stroke-linecap="round"/>
  <path d="M7.34921 12.8555H2.0582C1.47377 12.8555 1 13.3123 1 13.8759V18.9779C1 19.5415 1.47377 19.9983 2.0582 19.9983H7.34921C7.93363 19.9983 8.40741 19.5415 8.40741 18.9779V13.8759C8.40741 13.3123 7.93363 12.8555 7.34921 12.8555Z" stroke="#96A7B4" stroke-width="2" stroke-linecap="round"/>
  <path d="M18.942 1H13.651C13.0665 1 12.5928 1.50254 12.5928 2.12245V7.73469C12.5928 8.35461 13.0665 8.85714 13.651 8.85714H18.942C19.5264 8.85714 20.0002 8.35461 20.0002 7.73469V2.12245C20.0002 1.50254 19.5264 1 18.942 1Z" stroke="#96A7B4" stroke-width="2" stroke-linecap="round"/>
  <path d="M16.2959 12.8555V19.9983" stroke="#96A7B4" stroke-width="2" stroke-linecap="round"/>
  <path d="M20.0002 16.4297H12.5928" stroke="#96A7B4" stroke-width="2" stroke-linecap="round"/>
</svg>
