<?xml version="1.0" encoding="UTF-8"?>
<svg enable-background="new 0 0 18.6 24.1" height="32" width="32" version="1.1" viewBox="0 0 18.6 24.1" xml:space="preserve" xmlns="http://www.w3.org/2000/svg">
<g fill="#99aab5">
	<path d="m6 11.4v0.4c0 0.2 0 0.4 0.1 0.5 0 0.2 0 0.4 0.1 0.6 0 0.2 0 0.3 0.1 0.5 0 0.2 0.1 0.4 0.1 0.6 0 0.1 0 0.2 0.1 0.4 0 0.1 0 0.2 0.1 0.3 0.1-0.1 0.1-0.2 0.2-0.3 0.2-0.3 0.4-0.6 0.7-0.8 0.2-0.1 0.3-0.2 0.5-0.3h0.5c-0.1-0.2-0.3-0.4-0.4-0.6s-0.3-0.4-0.4-0.6c-0.2-0.3-0.3-0.5-0.4-0.8-0.3-0.1-0.4-0.3-0.5-0.5 0-0.1-0.1-0.2-0.1-0.2v-0.2-0.5c-0.2-0.2-0.3-0.4-0.4-0.6l-0.3-0.6c-0.1-0.2-0.1-0.3-0.3-0.5 0-0.2-0.1-0.4-0.2-0.5 0-0.2-0.1-0.3-0.1-0.5-0.1-0.2-0.2-0.5-0.1-0.7 0-0.2 0.1-0.4 0.3-0.5v-0.1c0-0.3-0.1-0.5-0.1-0.8v-0.3-0.8-0.6c0-0.2 0.1-0.4 0.2-0.6l0.3-0.6c0.1-0.2 0.3-0.4 0.5-0.7 0.2-0.1 0.3-0.2 0.5-0.3 0.3-0.2 0.6-0.4 1-0.6 0.2-0.1 0.3-0.1 0.5-0.1 0.1 0 0.2 0.1 0.3 0.1h0.1c0.1 0 0.1-0.1 0.1-0.1 0.1-0.1 0.1 0 0.2 0s0.1 0 0.2 0.1c0-0.2 0.1-0.4 0.3-0.5 0 0 0.1-0.1 0.2-0.1s0.1 0 0.1 0.1c0.1 0.2 0.2 0.3 0.3 0.5 0.1 0.1 0.3 0.2 0.5 0.3 0.1 0.1 0.2 0.1 0.4 0.1 0.3 0.1 0.6 0.2 0.9 0.4s0.5 0.4 0.7 0.6 0.3 0.5 0.5 0.7c0.1 0.2 0.2 0.4 0.2 0.7 0.1 0.2 0.1 0.5 0.1 0.7v0.7c0 0.2-0.1 0.3-0.1 0.5 0 0.1 0 0.3-0.1 0.4 0 0.1-0.1 0.2-0.1 0.3v0.1c0.1 0.1 0.2 0.3 0.2 0.5s0 0.4-0.1 0.6-0.1 0.3-0.1 0.5c-0.1 0.3-0.2 0.6-0.4 0.8 0 0.1-0.1 0.1-0.1 0.2-0.1 0.3-0.3 0.6-0.5 0.8-0.1 0.1-0.2 0.3-0.3 0.4v0.1 0.3c0 0.2-0.1 0.4-0.2 0.5s-0.1 0.3-0.2 0.4l-0.3 0.6c-0.2 0.3-0.3 0.5-0.5 0.8-0.1 0.2-0.3 0.4-0.5 0.6 0 0-0.1 0-0.1 0.1 0.1 0 0.2 0 0.3-0.1 0.2 0 0.3 0 0.5 0.1 0.4 0.2 0.7 0.6 1 1 0 0.1 0.1 0.1 0.2 0.2 0-0.2 0.1-0.4 0.1-0.5s0.1-0.3 0.1-0.4v-0.2c0-0.2 0-0.3 0.1-0.5 0-0.2 0.1-0.3 0.1-0.5v-0.3-0.7-0.1l0.6 0.3c0.1 0.1 0.3 0.1 0.4 0.2l0.6 0.3c0.2 0.1 0.4 0.1 0.6 0.2s0.4 0.2 0.6 0.2c0.3 0.1 0.5 0.2 0.7 0.3 0.3 0.2 0.7 0.4 0.9 0.7 0.1 0.2 0.2 0.4 0.4 0.6 0.1 0.2 0.2 0.3 0.3 0.5l0.3 0.6c0.1 0.2 0.2 0.5 0.3 0.7s0.1 0.4 0.1 0.5c0.1 0.2 0.1 0.4 0.2 0.6 0 0.1 0 0.3 0.1 0.4 0 0.2 0.1 0.3 0.1 0.5s0 0.4-0.2 0.5c-0.2 0.2-0.4 0.3-0.7 0.4-0.2 0.1-0.4 0.2-0.7 0.2-0.2 0.1-0.4 0.1-0.6 0.2-0.2 0-0.4 0.1-0.6 0.1s-0.4 0.1-0.5 0.1c-0.2 0-0.3 0-0.5 0.1-0.2 0-0.4 0.1-0.6 0.1h-0.2c-0.3 0-0.5 0-0.8 0.1-0.3 0-0.6 0-0.9 0.1-0.1 0-0.1-0.1-0.2-0.1-0.2-0.2-0.4-0.5-0.6-0.6l-0.1-0.1 0.6-0.6c0.1-0.1 0.2-0.2 0.2-0.4 0.1-0.2 0.1-0.4 0-0.6 0-0.2-0.1-0.3-0.2-0.5-0.2-0.3-0.5-0.5-0.7-0.6l-0.6-0.3-0.1-0.1c0-0.3-0.2-0.5-0.3-0.6s-0.3-0.2-0.5-0.2h-0.2-0.9c-0.4 0-0.6 0.2-0.8 0.5-0.1 0.2-0.1 0.3-0.2 0.5 0 0 0 0.1-0.1 0.1-0.4 0.2-0.7 0.4-0.9 0.7-0.2 0.2-0.3 0.4-0.4 0.6-0.1 0.1-0.1 0.3-0.1 0.4-0.1 0.2-0.1 0.5-0.1 0.7 0 0.3 0.1 0.5 0.1 0.8l0.3 0.6c-0.3 0-0.5 0-0.8-0.1-0.2 0-0.5-0.1-0.7-0.1s-0.4 0-0.6-0.1c-0.2 0-0.4-0.1-0.6-0.1h-0.2c-0.1 0-0.3 0-0.4-0.1-0.2 0-0.3-0.1-0.5-0.1s-0.3-0.1-0.5-0.1c-0.1 0-0.2-0.1-0.3-0.1s-0.2 0-0.4-0.1c-0.1 0-0.3-0.1-0.4-0.1s-0.2 0-0.2-0.1c-0.2-0.1-0.5-0.2-0.7-0.3l-0.3-0.3v-0.3c0-0.1 0-0.2 0.1-0.3 0-0.2 0.1-0.3 0.1-0.5 0-0.1 0-0.3 0.1-0.4 0-0.2 0.1-0.3 0.1-0.5s0.1-0.3 0.2-0.5 0.2-0.5 0.3-0.7c-0.2-0.1-0.1-0.3 0-0.4 0.1-0.2 0.3-0.5 0.4-0.7 0-0.1 0.1-0.2 0.1-0.2 0.1-0.2 0.3-0.3 0.5-0.5l0.1 0.1s-0.1-0.1 0-0.1l0.1-0.1s0.1 0.1 0.1 0h-0.1 0.1v0.1-0.1h0.1v-0.1h0.1l0.1-0.1c0.3-0.1 0.5-0.2 0.8-0.3s0.5-0.2 0.8-0.3 0.6-0.2 0.9-0.4l0.6-0.3 0.3-0.3v0z"/>
	<path d="m9.9 23.3v0.6c0 0.2-0.1 0.2-0.2 0.2h-0.8c-0.1 0-0.2-0.1-0.2-0.2v-0.6c0-0.1 0-0.1-0.1-0.1-0.2 0-0.4-0.1-0.6-0.2s-0.4-0.2-0.6-0.4-0.4-0.3-0.5-0.5c-0.1-0.1 0-0.2 0.1-0.3l0.6-0.6c0.1 0 0.1-0.1 0.2-0.1 0.1-0.1 0.2-0.1 0.3 0 0.2 0.2 0.4 0.3 0.6 0.4s0.3 0.2 0.5 0.2h0.4c0.1 0 0.3 0 0.4-0.1s0.2-0.2 0.2-0.4c0.1-0.3-0.1-0.4-0.3-0.5s-0.3-0.2-0.5-0.2c-0.2-0.1-0.4-0.2-0.6-0.2-0.2-0.1-0.3-0.2-0.5-0.3s-0.3-0.2-0.4-0.3c-0.2-0.1-0.3-0.3-0.4-0.5-0.1-0.3-0.2-0.6-0.2-0.9 0-0.2 0.1-0.4 0.2-0.6s0.3-0.4 0.5-0.5l0.6-0.3c0.1 0 0.2 0 0.3-0.1 0.1 0 0.1 0 0.1-0.1v-0.5c0-0.1 0.1-0.2 0.2-0.2h0.8c0.1 0 0.2 0.1 0.2 0.2v0.4c0 0.1 0 0.1 0.1 0.1 0.2 0.1 0.4 0.1 0.6 0.2 0.3 0.1 0.5 0.3 0.7 0.4 0.1 0 0.1 0.1 0.1 0.1 0.1 0.1 0.1 0.2 0 0.4-0.2 0.2-0.4 0.5-0.7 0.7-0.1 0.1-0.2 0.1-0.3 0s-0.2-0.2-0.4-0.3c-0.1-0.1-0.2-0.1-0.3-0.1-0.1-0.1-0.3-0.1-0.4-0.1-0.2 0-0.4 0-0.6 0.2-0.1 0.1-0.1 0.4 0.1 0.5s0.3 0.2 0.5 0.2c0.2 0.1 0.5 0.2 0.7 0.3s0.3 0.1 0.5 0.2c0.3 0.1 0.6 0.3 0.8 0.6 0.2 0.2 0.3 0.5 0.3 0.8v0.6c0 0.3-0.2 0.5-0.4 0.8-0.1 0.2-0.3 0.3-0.5 0.4-0.1 0.1-0.3 0.2-0.4 0.2-0.3 0.3-0.4 0.4-0.7 0.5 0.1 0 0.1 0 0 0z"/>
</g>
</svg>
