<?xml version="1.0" standalone="no"?>
<!DOCTYPE svg PUBLIC "-//W3C//DTD SVG 20010904//EN"
 "http://www.w3.org/TR/2001/REC-SVG-20010904/DTD/svg10.dtd">
<svg version="1.0" xmlns="http://www.w3.org/2000/svg"
 width="981.000000pt" height="882.000000pt" viewBox="0 0 981.000000 882.000000"
 preserveAspectRatio="xMidYMid meet">

<g transform="translate(0.000000,882.000000) scale(0.100000,-0.100000)"
fill="#fff" stroke="none">
<path d="M4040 8810 c-388 -7 -449 -14 -597 -64 -454 -154 -823 -611 -1047
-1293 l-27 -82 -582 -4 c-639 -4 -656 -5 -857 -69 -463 -147 -806 -544 -909
-1055 -21 -101 -21 -115 -21 -2530 l0 -2428 25 -110 c53 -232 138 -440 251
-611 73 -110 233 -272 338 -342 181 -121 390 -196 608 -218 l67 -7 4 79 3 79
2 -78 2 -77 3668 3 c3488 2 3671 3 3742 20 117 29 246 74 334 118 352 178 611
524 724 967 l27 107 0 2460 0 2460 -32 125 c-78 300 -194 511 -388 706 -190
191 -438 325 -697 378 -65 14 -168 16 -652 16 l-575 0 -21 68 c-148 483 -410
885 -740 1134 -122 92 -304 185 -435 224 l-90 27 -880 2 c-484 1 -1044 -1
-1245 -5z m2103 -634 c105 -44 170 -90 282 -201 129 -128 199 -230 290 -419
75 -155 123 -290 171 -481 20 -77 40 -149 46 -160 29 -55 82 -106 146 -137
l67 -33 730 -5 c681 -5 733 -6 780 -24 263 -98 430 -286 500 -561 l25 -98 -2
-2406 -3 -2406 -24 -70 c-99 -297 -268 -472 -517 -535 -76 -20 -120 -20 -3738
-20 -3249 0 -3668 2 -3726 16 -232 54 -410 236 -506 516 l-39 113 -3 2424 c-2
2424 -2 2425 18 2500 74 269 250 450 520 533 75 23 75 23 804 25 715 3 730 3
772 23 51 25 119 91 144 139 10 20 34 97 53 171 155 588 407 965 723 1082 53
19 85 22 334 28 151 3 685 7 1185 8 l910 2 58 -24z"/>
<path d="M7574 6171 c-22 -10 -56 -37 -76 -60 -94 -109 -71 -302 44 -379 l42
-27 460 -3 c304 -2 473 1 497 7 53 16 114 87 135 157 38 133 -31 282 -146 314
-20 6 -220 10 -475 10 -406 0 -443 -2 -481 -19z"/>
<path d="M4640 5769 c-355 -45 -709 -189 -998 -406 -104 -79 -277 -247 -366
-357 -331 -409 -499 -943 -458 -1453 42 -515 248 -968 602 -1323 637 -641
1598 -800 2405 -400 614 304 1038 889 1140 1575 22 148 22 433 0 580 -67 450
-255 836 -564 1157 -174 182 -360 317 -586 428 -309 151 -576 211 -928 209
-100 -1 -211 -5 -247 -10z m510 -625 c604 -103 1085 -583 1196 -1194 23 -126
24 -372 1 -495 -34 -187 -108 -385 -200 -530 -399 -637 -1207 -873 -1883 -550
-150 72 -267 157 -400 289 -221 221 -348 461 -411 771 -27 135 -24 415 5 552
62 289 197 539 402 743 169 169 345 280 558 354 240 83 481 103 732 60z"/>
</g>
</svg>
