<svg width="25px" height="25px" viewBox="0 0 24 24" xmlns="http://www.w3.org/2000/svg">
  <path d="M9.6 6a.59.59 0 00.6-.6c0-.346-.316-.6-.602-.6-.45 0-.91.085-1.338.219-.686.215-1.587.69-1.922 1.734-.208.651-.208 1.285-.113 1.95.043.302.085.597.085 1.028 0 .336-.267.721-.783 1.088-.494.35-1.036.553-1.228.59a.6.6 0 000 1.183c.192.036.734.239 1.228.59.516.366.783.75.783 1.087 0 .431-.042.726-.085 1.027-.095.667-.095 1.3.113 1.951.335 1.044 1.236 1.52 1.922 1.734.428.135.888.219 1.338.219.286 0 .602-.254.602-.6a.59.59 0 00-.6-.6 3.429 3.429 0 01-.98-.164c-.537-.168-.98-.46-1.14-.955-.146-.457-.141-.893-.074-1.359.045-.317.104-.729.104-1.253 0-.948-.697-1.646-1.289-2.066A5.143 5.143 0 005.912 12c.105-.063.208-.131.31-.203.591-.42 1.288-1.118 1.288-2.066 0-.524-.06-.936-.104-1.253-.067-.466-.072-.902.075-1.359.158-.494.602-.787 1.138-.955.314-.099.652-.161.982-.164zM13.8 18.6a.59.59 0 01.599-.6c.33-.003.668-.065.982-.164.536-.168.98-.46 1.138-.955.146-.457.142-.893.075-1.359-.045-.317-.104-.729-.104-1.253 0-.948.696-1.646 1.288-2.066.101-.072.205-.14.31-.203a5.176 5.176 0 01-.31-.203c-.592-.42-1.288-1.118-1.288-2.066 0-.524.06-.936.104-1.253.067-.466.071-.902-.075-1.359-.159-.494-.602-.787-1.138-.955A3.425 3.425 0 0014.399 6a.59.59 0 01-.6-.6c0-.346.317-.6.602-.6.45 0 .91.085 1.339.219.685.215 1.587.69 1.922 1.734.208.651.208 1.285.113 1.95a6.58 6.58 0 00-.085 1.028c0 .336.266.721.783 1.088.494.35 1.036.553 1.228.59a.597.597 0 01.5.591.6.6 0 01-.5.592c-.192.036-.734.239-1.228.59-.517.366-.783.75-.783 1.087 0 .431.042.726.085 1.027.095.667.095 1.3-.113 1.951-.335 1.044-1.237 1.52-1.922 1.734a4.527 4.527 0 01-1.339.219c-.285 0-.601-.254-.601-.6z"></path>
</svg>
