<svg width="62" height="61" viewBox="0 0 62 61" fill="none" xmlns="http://www.w3.org/2000/svg">
<path d="M43.4 0.963851C41.6053 2.72964 42.3395 4.41517 46.5 8.42832L50.6605 12.4415L26.0237 12.8428C3.75263 13.2441 1.30526 13.4046 0.489474 14.6086C-0.163158 15.652 -0.163158 16.4546 0.489474 17.4178C1.30526 18.702 3.75263 18.8625 26.0237 19.2639L50.6605 19.6652L46.5 23.6783C44.2974 25.8454 42.4211 28.1731 42.4211 28.8954C42.4211 30.5007 43.9711 32.106 45.6842 32.106C47.3158 32.106 62 17.6586 62 16.0533C62 14.4481 47.2342 0.000692964 45.6026 0.000692964C44.95 0.000692964 43.9711 0.402009 43.4 0.963851Z" fill="#A1AFBA"/>
<path d="M7.50526 36.3592C3.42632 40.4526 0 44.3053 0 44.9474C0 46.5526 14.7658 61 16.3974 61C18.0289 61 19.5789 59.3947 19.5789 57.7895C19.5789 57.0671 17.7026 54.7395 15.5 52.5724L11.3395 48.5592L35.9763 48.1579C58.2474 47.7566 60.6947 47.5961 61.5105 46.3118C62.1632 45.3487 62.1632 44.5461 61.5105 43.5026C60.6947 42.2987 58.2474 42.1382 35.9763 41.7368L11.3395 41.3355L15.5 37.3224C19.6605 33.3092 20.3947 31.6237 18.6 29.8579C16.7237 28.0118 15.0105 28.975 7.50526 36.3592Z" fill="#A1AFBA"/>
</svg>
