<svg width="30" height="32" viewBox="0 0 39 32" fill="none" xmlns="http://www.w3.org/2000/svg">
<path d="M24.3155 4.20312C23.2204 4.20312 22.3359 5.08087 22.3359 6.1676C22.3359 7.25433 23.2204 8.13207 24.3155 8.13207C25.4106 8.13207 26.2951 7.25433 26.2951 6.1676C26.2951 5.08087 25.4106 4.20312 24.3155 4.20312ZM24.3155 6.87815C23.9196 6.87815 23.5995 6.56049 23.5995 6.1676C23.5995 5.7747 23.9196 5.45704 24.3155 5.45704C24.7115 5.45704 25.0316 5.7747 25.0316 6.1676C25.0316 6.56049 24.7115 6.87815 24.3155 6.87815Z" fill="#EE7033"/>
<path d="M31.378 9.19531C30.2829 9.19531 29.3984 10.0731 29.3984 11.1598C29.3984 12.2465 30.2829 13.1243 31.378 13.1243C32.4731 13.1243 33.3576 12.2465 33.3576 11.1598C33.3576 10.0731 32.4731 9.19531 31.378 9.19531ZM31.378 11.8703C30.9821 11.8703 30.662 11.5527 30.662 11.1598C30.662 10.7669 30.9821 10.4492 31.378 10.4492C31.774 10.4492 32.0941 10.7669 32.0941 11.1598C32.0941 11.5527 31.774 11.8703 31.378 11.8703Z" fill="#EE7033"/>
<path d="M6.20922 18.25C5.09728 18.25 4.1875 19.1528 4.1875 20.2563C4.1875 21.3597 5.09728 22.2625 6.20922 22.2625C7.3296 22.2625 8.23095 21.3597 8.23095 20.2563C8.23095 19.1528 7.32117 18.25 6.20922 18.25ZM6.20922 21.0086C5.78803 21.0086 5.45108 20.6742 5.45108 20.2563C5.45108 19.8383 5.78803 19.5039 6.20922 19.5039C6.63042 19.5039 6.96737 19.8383 6.96737 20.2563C6.96737 20.6742 6.63042 21.0086 6.20922 21.0086Z" fill="#EE7033"/>
<path d="M11.7678 16.6141C12.8882 16.6141 13.7895 15.7113 13.7895 14.6078C13.7895 13.5044 12.8798 12.6016 11.7678 12.6016C10.6559 12.6016 9.74609 13.5044 9.74609 14.6078C9.74609 15.7113 10.6559 16.6141 11.7678 16.6141ZM11.7678 13.8555C12.189 13.8555 12.526 14.1899 12.526 14.6078C12.526 15.0258 12.189 15.3602 11.7678 15.3602C11.3466 15.3602 11.0097 15.0258 11.0097 14.6078C11.0097 14.1899 11.3466 13.8555 11.7678 13.8555Z" fill="#EE7033"/>
<path d="M17.8244 20.4141C16.5439 20.4141 15.5078 21.4423 15.5078 22.7129C15.5078 23.9836 16.5439 25.0118 17.8244 25.0118C19.1048 25.0118 20.1409 23.9836 20.1409 22.7129C20.1409 21.4423 19.1048 20.4141 17.8244 20.4141ZM17.8244 23.7578C17.2431 23.7578 16.7714 23.2897 16.7714 22.7129C16.7714 22.1361 17.2431 21.668 17.8244 21.668C18.4056 21.668 18.8774 22.1361 18.8774 22.7129C18.8774 23.2897 18.4056 23.7578 17.8244 23.7578Z" fill="#EE7033"/>
<path d="M37.5957 7.18077C37.5198 7.0303 37.3935 6.91327 37.2334 6.86311C37.0734 6.81296 36.8965 6.82132 36.7533 6.89655C36.669 6.93835 36.3995 6.93835 36.2984 6.93835C35.1022 6.93835 34.0998 5.97701 34.0998 4.83177V4.51411C34.0998 4.29676 33.9818 4.09613 33.7965 3.9791C33.6112 3.86207 33.3753 3.85371 33.1816 3.95402C32.8783 4.10449 32.4571 4.20481 32.1033 4.20481C30.1742 4.20481 28.54 2.61651 28.54 0.735631C28.54 0.434691 28.3294 0.183905 28.0346 0.117029C27.4449 -3.05933e-06 26.9816 0 26.4425 0C21.902 0 17.6311 2.76698 15.4915 7.05538C14.8513 6.97178 14.1942 6.92163 13.5371 6.92163C9.9233 6.92163 6.52849 8.22571 3.97606 10.5914C1.41521 12.9739 0 16.1421 0 19.511C0 26.3992 6.0736 32 13.5371 32C18.305 32 22.5085 29.7095 24.9262 26.2571C25.5159 26.349 26.0971 26.3908 26.6783 26.3908C32.196 26.3908 37.1239 22.4284 38.6065 16.5099C39.3731 13.4169 39.0109 10.0063 37.5957 7.18077ZM13.5287 30.7712C6.76435 30.7712 1.25515 25.7304 1.25515 19.5361C1.25515 13.2832 6.76435 8.19227 13.5287 8.19227C20.2931 8.19227 25.8023 13.2832 25.8023 19.5361C25.8023 25.7304 20.2931 30.7712 13.5287 30.7712ZM37.3598 16.2341C35.9362 21.9519 30.9745 25.6468 25.6338 25.1118C26.5436 23.4316 27.0574 21.534 27.0574 19.5361C27.0574 16.1588 25.6422 12.9906 23.0814 10.6165C21.3123 8.97806 19.139 7.84953 16.7719 7.30616C18.7515 3.61964 22.4748 1.26228 26.4256 1.26228C26.7542 1.26228 27.0237 1.26227 27.2933 1.28735C27.5797 3.60292 29.6604 5.45872 32.0865 5.45872C32.3392 5.45872 32.6003 5.42529 32.8615 5.37513C33.131 6.97179 34.5631 8.19227 36.2815 8.19227C36.391 8.19227 36.5174 8.19226 36.6606 8.18391C37.781 10.6499 38.0337 13.559 37.3598 16.2341Z" fill="#EE7033"/>
<path d="M19.858 14.7791L19.4116 15.0048V14.6035C19.4116 14.2608 19.1252 13.9766 18.7798 13.9766C18.4344 13.9766 18.148 14.2608 18.148 14.6035V15.6317L17.1287 16.1417C16.817 16.3005 16.6907 16.6767 16.8507 16.986C16.9602 17.2033 17.1877 17.3287 17.4151 17.3287C17.5078 17.3287 17.6089 17.3036 17.7015 17.2618L18.148 17.0361V17.4374C18.148 17.7801 18.4344 18.0643 18.7798 18.0643C19.1252 18.0643 19.4116 17.7801 19.4116 17.4374V16.4092L20.4309 15.8992C20.7425 15.7404 20.8605 15.3642 20.7088 15.0549C20.5488 14.7456 20.1697 14.6202 19.858 14.7791Z" fill="#EE7033"/>
<path d="M31.9899 16.7987V16.6816C31.9899 16.3389 31.7035 16.0547 31.3581 16.0547C31.0127 16.0547 30.7263 16.3389 30.7263 16.6816V17.1749L29.8081 17.4507C29.4712 17.551 29.2858 17.9021 29.3869 18.2365C29.4712 18.504 29.7239 18.6796 29.9934 18.6796C30.0524 18.6796 30.1198 18.6712 30.1788 18.6545L30.7263 18.4873V19.5239C30.7263 19.8666 31.0127 20.1508 31.3581 20.1508C31.7035 20.1508 31.9899 19.8666 31.9899 19.5239V18.1111L32.2763 18.0275C32.6133 17.9105 32.7986 17.5594 32.6975 17.2334C32.6048 16.9324 32.3016 16.7485 31.9899 16.7987Z" fill="#EE7033"/>
<path d="M13.2161 25.2085H12.2221L11.683 24.0967C11.5313 23.7874 11.1523 23.6536 10.8406 23.8041C10.5289 23.9546 10.3941 24.3308 10.5457 24.6401L10.8237 25.2169H10.3857C10.0403 25.2169 9.75391 25.5011 9.75391 25.8438C9.75391 26.1866 10.0403 26.4708 10.3857 26.4708H11.4303L11.9188 27.4823C12.0283 27.708 12.2558 27.8417 12.4917 27.8417C12.5843 27.8417 12.677 27.825 12.7612 27.7832C13.0729 27.6327 13.2077 27.2566 13.0561 26.9473L12.8286 26.4791H13.2161C13.5615 26.4791 13.8479 26.1949 13.8479 25.8522C13.8479 25.5094 13.5615 25.2085 13.2161 25.2085Z" fill="#EE7033"/>
</svg>
