<svg width="28" height="28" viewBox="0 0 28 28" fill="none" xmlns="http://www.w3.org/2000/svg">
<circle cx="14" cy="14" r="14" fill="white"/>
<path d="M16.3594 16.3379C16.3594 15.7389 16.1478 15.2344 15.7246 14.8242C15.3079 14.4141 14.6016 14.043 13.6055 13.7109C12.2188 13.2878 11.2064 12.7376 10.5684 12.0605C9.93685 11.377 9.62109 10.5111 9.62109 9.46289C9.62109 8.39518 9.93034 7.51953 10.5488 6.83594C11.1738 6.15234 12.0299 5.74544 13.1172 5.61523V3.47656H14.5723V5.625C15.666 5.77474 16.5156 6.23372 17.1211 7.00195C17.7331 7.77018 18.0391 8.82161 18.0391 10.1562H16.2422C16.2422 9.23828 16.0241 8.50911 15.5879 7.96875C15.1517 7.42839 14.5625 7.1582 13.8203 7.1582C13.0456 7.1582 12.4531 7.36003 12.043 7.76367C11.6328 8.16081 11.4277 8.71745 11.4277 9.43359C11.4277 10.0977 11.6426 10.6283 12.0723 11.0254C12.5085 11.416 13.2214 11.7741 14.2109 12.0996C15.207 12.4186 15.9818 12.7734 16.5352 13.1641C17.0951 13.5482 17.5052 13.9974 17.7656 14.5117C18.0326 15.026 18.166 15.6283 18.166 16.3184C18.166 17.4186 17.834 18.304 17.1699 18.9746C16.5124 19.6452 15.5879 20.0423 14.3965 20.166V22.0312H12.9512V20.166C11.7402 20.0553 10.7897 19.6257 10.0996 18.877C9.41602 18.1217 9.07422 17.0996 9.07422 15.8105H10.8809C10.8809 16.7155 11.1185 17.4121 11.5938 17.9004C12.069 18.3887 12.7428 18.6328 13.6152 18.6328C14.4681 18.6328 15.1387 18.4277 15.627 18.0176C16.1152 17.6074 16.3594 17.0475 16.3594 16.3379Z" fill="#040404"/>
</svg>
