<svg width="20" height="20" viewBox="0 0 20 20" fill="none" xmlns="http://www.w3.org/2000/svg">
<path d="M5.38484 9.28385C6.566 9.28385 7.52677 8.32308 7.52677 7.14231C7.52677 5.96077 6.566 5 5.38484 5C4.20369 5 3.24292 5.96077 3.24292 7.14192C3.24292 8.32308 4.20369 9.28385 5.38484 9.28385ZM5.38484 5.76923C6.14177 5.76923 6.75754 6.38538 6.75754 7.14192C6.75754 7.89846 6.14177 8.51462 5.38484 8.51462C4.62792 8.51462 4.01215 7.89885 4.01215 7.14231C4.01215 6.38577 4.62792 5.76923 5.38484 5.76923Z" fill="#2A8BFC"/>
<path d="M0.384552 0V15.3846V20H19.6153V15.3846V0H0.384552ZM1.15378 0.769231H18.8461V11.0488L14.8753 7.40885C14.7999 7.34 14.7007 7.30577 14.5984 7.30808C14.4965 7.31269 14.4003 7.35769 14.3315 7.43308L10.5646 11.5588L8.74032 9.73462C8.59647 9.59115 8.36647 9.58385 8.21417 9.71769L1.77763 15.3846H1.15378V0.769231ZM18.8461 19.2308H1.15378V16.1538H9.99994H18.8461V19.2308ZM2.94186 15.3846L8.45109 10.5342L12.4134 14.4962C12.5638 14.6465 12.8069 14.6465 12.9572 14.4962C13.1076 14.3458 13.1076 14.1027 12.9572 13.9523L11.1084 12.1035L14.6396 8.23654L18.8461 12.0923V15.3846H10.894H2.94186Z" fill="#2A8BFC" stroke="#2A8BFC" stroke-width="0.4"/>
</svg>
