<svg width="20" height="20" viewBox="0 0 20 20" fill="none" xmlns="http://www.w3.org/2000/svg">
<rect x="0.5" y="0.5" width="19" height="19" stroke="#2A8BFC"/>
<mask id="path-2-inside-1" fill="white">
<path fill-rule="evenodd" clip-rule="evenodd" d="M13.0476 6.66666H4.66666V13.3333H13.0476V10.8017L15.143 12.4056V7.59437L13.0476 9.19826V6.66666Z"/>
</mask>
<path d="M4.66666 6.66666V5.66666H3.66666V6.66666H4.66666ZM13.0476 6.66666H14.0476V5.66666H13.0476V6.66666ZM4.66666 13.3333H3.66666V14.3333H4.66666V13.3333ZM13.0476 13.3333V14.3333H14.0476V13.3333H13.0476ZM13.0476 10.8017L13.6554 10.0076L12.0476 8.77699V10.8017H13.0476ZM15.143 12.4056L14.5352 13.1997L16.143 14.4304V12.4056H15.143ZM15.143 7.59437H16.143V5.56963L14.5352 6.80029L15.143 7.59437ZM13.0476 9.19826H12.0476V11.223L13.6554 9.99234L13.0476 9.19826ZM4.66666 7.66666H13.0476V5.66666H4.66666V7.66666ZM5.66666 13.3333V6.66666H3.66666V13.3333H5.66666ZM13.0476 12.3333H4.66666V14.3333H13.0476V12.3333ZM12.0476 10.8017V13.3333H14.0476V10.8017H12.0476ZM15.7508 11.6115L13.6554 10.0076L12.4398 11.5958L14.5352 13.1997L15.7508 11.6115ZM14.143 7.59437V12.4056H16.143V7.59437H14.143ZM13.6554 9.99234L15.7508 8.38845L14.5352 6.80029L12.4398 8.40418L13.6554 9.99234ZM12.0476 6.66666V9.19826H14.0476V6.66666H12.0476Z" fill="#2A8BFC" mask="url(#path-2-inside-1)"/>
</svg>
