<svg id="Capa_1" enable-background="new 0 0 512 512" height="512" viewBox="0 0 512 512" width="512" xmlns="http://www.w3.org/2000/svg"><g><g><path d="m439.85 136.22c4.143 0 7.5-3.358 7.5-7.5v-32.325c0-4.142-3.357-7.5-7.5-7.5h-90.915c-4.143 0-7.5 3.358-7.5 7.5v32.325c0 4.142 3.357 7.5 7.5 7.5zm-83.415-32.325h75.915v17.325h-75.915z"/><path d="m163.065 88.895h-90.915c-4.142 0-7.5 3.358-7.5 7.5v32.325c0 4.142 3.358 7.5 7.5 7.5h90.915c4.142 0 7.5-3.358 7.5-7.5v-32.325c0-4.143-3.358-7.5-7.5-7.5zm-7.5 32.325h-75.915v-17.325h75.915z"/><path d="m256 88.894c-11.043 0-21.138 5.586-27.003 14.943l-108.758 173.495c-6.249 9.968-6.579 22.065-.882 32.359s16.121 16.439 27.886 16.439h217.515c11.765 0 22.189-6.146 27.886-16.439s5.366-22.391-.883-32.359l-108.757-173.495c-5.865-9.357-15.961-14.943-27.004-14.943zm123.519 213.534c-3.015 5.449-8.533 8.702-14.761 8.702h-217.515c-6.228 0-11.746-3.253-14.762-8.702-3.015-5.449-2.841-11.853.467-17.129l108.758-173.494c3.151-5.027 8.361-7.91 14.294-7.91s11.144 2.883 14.295 7.91l108.757 173.494c3.307 5.276 3.482 11.68.467 17.129z"/><path d="m232.337 164.075v73.742c0 6.245 2.436 11.929 6.403 16.163-3.967 4.233-6.403 9.917-6.403 16.163 0 13.047 10.615 23.663 23.663 23.663 13.047 0 23.662-10.615 23.662-23.663 0-6.245-2.436-11.929-6.403-16.163 3.967-4.233 6.403-9.917 6.403-16.163v-73.742c0-13.047-10.615-23.663-23.662-23.663-13.047.001-23.663 10.616-23.663 23.663zm23.663 114.73c-4.776 0-8.663-3.886-8.663-8.663s3.886-8.663 8.663-8.663 8.662 3.886 8.662 8.663-3.886 8.663-8.662 8.663zm8.662-114.73v73.742c0 4.776-3.886 8.663-8.662 8.663s-8.663-3.886-8.663-8.663v-73.742c0-4.776 3.886-8.663 8.663-8.663s8.662 3.887 8.662 8.663z"/><path d="m70.81 56.57h-30.98c-4.142 0-7.5 3.358-7.5 7.5v286.89c0 4.142 3.358 7.5 7.5 7.5h432.34c4.143 0 7.5-3.358 7.5-7.5v-286.89c0-4.142-3.357-7.5-7.5-7.5h-366.36c-4.142 0-7.5 3.358-7.5 7.5s3.358 7.5 7.5 7.5h358.86v271.89h-417.34v-271.89h23.48c4.142 0 7.5-3.358 7.5-7.5s-3.358-7.5-7.5-7.5z"/><path d="m484.3 24.24h-456.6c-15.274 0-27.7 12.431-27.7 27.71v311.13c0 15.274 12.426 27.7 27.7 27.7h160.948l-7.758 49.65h-17.82c-4.142 0-7.5 3.358-7.5 7.5v32.33c0 4.142 3.358 7.5 7.5 7.5h185.86c4.143 0 7.5-3.358 7.5-7.5v-32.33c0-4.142-3.357-7.5-7.5-7.5h-17.819l-7.758-49.65h77.218c4.143 0 7.5-3.358 7.5-7.5s-3.357-7.5-7.5-7.5h-372.871c-7.003 0-12.7-5.697-12.7-12.7v-311.13c0-7.008 5.697-12.71 12.7-12.71h456.6c7.003 0 12.7 5.702 12.7 12.71v311.13c0 7.002-5.697 12.7-12.7 12.7h-48.73c-4.143 0-7.5 3.358-7.5 7.5s3.357 7.5 7.5 7.5h48.73c15.274 0 27.7-12.426 27.7-27.7v-311.13c0-15.279-12.426-27.71-27.7-27.71zm-168.372 416.19h-13.138c-4.143 0-7.5 3.358-7.5 7.5s3.357 7.5 7.5 7.5h38.64v17.33h-170.86v-17.33h97.22c4.143 0 7.5-3.358 7.5-7.5s-3.357-7.5-7.5-7.5h-71.718l7.758-49.65h104.341z"/></g></g></svg>