<?xml version="1.0" encoding="UTF-8"?>
<svg enable-background="new 0 0 32 32" version="1.1" viewBox="0 0 32 32" xml:space="preserve" xmlns="http://www.w3.org/2000/svg"><g fill="#444"><path d="m16.333 13.759c-6e-3 -1e-3 -0.012-1e-3 -0.018-1e-3h-0.018v1e-3c-1.21 0.03-2.183 1.02-2.183 2.237s0.972 2.208 2.183 2.237v2e-3c6e-3 0 0.012-2e-3 0.018-2e-3 5e-3 0 0.011 2e-3 0.018 2e-3v-2e-3c1.219-0.029 2.183-1.02 2.183-2.237s-0.964-2.207-2.183-2.237z"/><path d="m29.586 14.186c-2.76-2.246-7.407-5.51-13.253-5.621h-0.018-0.018c-5.844 0.111-10.496 3.375-13.256 5.621-0.132 0.107-1.036 0.8-1.051 1.686-0.011 0.624 0.28 1.085 0.699 1.471 2.255 2.181 7.176 6.059 13.609 6.087v2e-3h0.018 0.018v-2e-3c6.445-0.028 11.351-3.906 13.607-6.087 0.419-0.386 0.709-0.847 0.697-1.471-0.017-0.886-0.919-1.579-1.052-1.686zm-13.271 7.566c-3.162-0.021-5.719-2.59-5.719-5.756s2.557-5.735 5.719-5.755c3.17 0.02 5.718 2.589 5.718 5.755s-2.548 5.734-5.718 5.756z"/></g></svg>
