<?xml version="1.0" encoding="UTF-8"?>
<svg width="512px" height="512px" enable-background="new 0 0 965.199 965.199" version="1.1" viewBox="0 0 965.199 965.199" xml:space="preserve" xmlns="http://www.w3.org/2000/svg">
<g fill="#999">
	<path d="m263.85 30c0-16.6-13.4-30-30-30h-202c-16.6 0-30 13.4-30 30v202.1c0 16.6 13.4 30 30 30h202.1c16.6 0 30-13.4 30-30v-202.1h-0.1z"/>
	<path d="M613.55,30c0-16.6-13.4-30-30-30h-202c-16.6,0-30,13.4-30,30v202.1c0,16.6,13.4,30,30,30h202c16.6,0,30-13.4,30-30V30z"/>
	<path d="m963.25 30c0-16.6-13.4-30-30-30h-202c-16.601 0-30 13.4-30 30v202.1c0 16.6 13.399 30 30 30h202.1c16.601 0 30-13.4 30-30v-202.1h-0.1z"/>
	<path d="m263.85 381.6c0-16.6-13.4-30-30-30h-202c-16.6 0-30 13.4-30 30v202c0 16.6 13.4 30 30 30h202.1c16.6 0 30-13.4 30-30v-202h-0.1z"/>
	<path d="m613.55 381.6c0-16.6-13.4-30-30-30h-202c-16.6 0-30 13.4-30 30v202c0 16.6 13.4 30 30 30h202c16.6 0 30-13.4 30-30v-202z"/>
	<path d="m963.25 381.6c0-16.6-13.4-30-30-30h-202c-16.601 0-30 13.4-30 30v202c0 16.6 13.399 30 30 30h202.1c16.601 0 30-13.4 30-30v-202h-0.1z"/>
	<path d="m233.85 703.1h-202c-16.6 0-30 13.4-30 30v202.1c0 16.602 13.4 30 30 30h202.1c16.6 0 30-13.398 30-30v-202.1c-0.1-16.5-13.5-30-30.1-30z"/>
	<path d="m583.55 703.1h-202c-16.6 0-30 13.4-30 30v202.1c0 16.602 13.4 30 30 30h202c16.6 0 30-13.398 30-30v-202.1c0-16.5-13.401-30-30-30z"/>
	<path d="m933.25 703.1h-202c-16.601 0-30 13.4-30 30v202.1c0 16.602 13.399 30 30 30h202.1c16.601 0 30-13.398 30-30v-202.1c-0.1-16.5-13.5-30-30.1-30z"/>
</g>
</svg>
