<svg width="512" height="512" xmlns="http://www.w3.org/2000/svg">

 <g>
  <title>background</title>
  <rect fill="none" id="canvas_background" height="402" width="582" y="-1" x="-1"/>
 </g>
 <g>
  <title>Layer 1</title>
  <g id="svg_1">
   <g id="svg_2">
    <path fill="#3a79ee" id="svg_3" d="m493.693,0l-475.386,0c-10.111,0 -18.307,8.196 -18.307,18.307l0,475.385c0,10.112 8.196,18.308 18.307,18.308l475.385,0c10.118,0 18.308,-8.19 18.308,-18.307l0,-475.386c0,-10.111 -8.196,-18.307 -18.307,-18.307zm-18.308,475.385l-438.77,0l0,-438.77l438.77,0l0,438.77z"/>
   </g>
  </g>
  <g id="svg_4">
   <g id="svg_5">
    <path fill="#3a79ee" id="svg_6" d="m255.695,90.927l-167.819,0c-10.112,0 -18.307,8.196 -18.307,18.307l0,137.306c0,10.106 8.196,18.307 18.307,18.307l167.819,0c10.112,0 18.307,-8.196 18.307,-18.307l0,-137.305c0,-10.112 -8.195,-18.308 -18.307,-18.308zm-18.308,137.307l-131.203,0l0,-100.692l131.204,0l0,100.692l-0.001,0z"/>
   </g>
  </g>
  <g id="svg_7">
   <g id="svg_8">
    <path fill="#3a79ee" id="svg_9" d="m411.309,90.927l-85.435,0c-10.112,0 -18.307,8.196 -18.307,18.307c0,10.112 8.196,18.307 18.307,18.307l85.435,0c10.118,0 18.307,-8.196 18.307,-18.307c0,-10.111 -8.195,-18.307 -18.307,-18.307z"/>
   </g>
  </g>
  <g id="svg_10">
   <g id="svg_11">
    <path fill="#3a79ee" id="svg_12" d="m411.309,164.157l-85.435,0c-10.112,0 -18.307,8.196 -18.307,18.307s8.196,18.307 18.307,18.307l85.435,0c10.118,0 18.307,-8.196 18.307,-18.307s-8.195,-18.307 -18.307,-18.307z"/>
   </g>
  </g>
  <g id="svg_13">
   <g id="svg_14">
    <path fill="#3a79ee" stroke-width="0" id="svg_15" d="m411.309,237.387l-85.435,0c-10.112,0 -18.307,8.202 -18.307,18.307s8.196,18.307 18.307,18.307l85.435,0c10.118,0 18.307,-8.196 18.307,-18.307s-8.195,-18.307 -18.307,-18.307z"/>
   </g>
  </g>
  <g id="svg_16">
   <g id="svg_17">
    <path fill="#3a79ee" id="svg_18" d="m411.309,310.617l-323.433,0c-10.112,0 -18.307,8.196 -18.307,18.307c0,10.112 8.196,18.307 18.307,18.307l323.433,0c10.118,0 18.307,-8.196 18.307,-18.307c0,-10.111 -8.195,-18.307 -18.307,-18.307z"/>
   </g>
  </g>
  <g id="svg_19">
   <g id="svg_20">
    <path fill="#3a79ee" id="svg_21" d="m411.309,383.847l-323.433,0c-10.112,0 -18.307,8.196 -18.307,18.308c0,10.112 8.196,18.307 18.307,18.307l323.433,0c10.118,0 18.307,-8.196 18.307,-18.307c0,-10.112 -8.195,-18.308 -18.307,-18.308z"/>
   </g>
  </g>
  <g id="svg_22"/>
  <g id="svg_23"/>
  <g id="svg_24"/>
  <g id="svg_25"/>
  <g id="svg_26"/>
  <g id="svg_27"/>
  <g id="svg_28"/>
  <g id="svg_29"/>
  <g id="svg_30"/>
  <g id="svg_31"/>
  <g id="svg_32"/>
  <g id="svg_33"/>
  <g id="svg_34"/>
  <g id="svg_35"/>
  <g id="svg_36"/>
 </g>
</svg>