<svg width="27" height="37" viewBox="0 0 27 37" fill="none" xmlns="http://www.w3.org/2000/svg">
<path d="M14.3725 1C14.6636 1.23581 14.9161 1.52604 15.1943 1.77999C17.7067 4.2923 20.0094 7.06764 21.8627 10.1649C23.6561 13.1625 25.0343 16.4775 25.6463 19.9784C25.9844 21.8966 26.0957 23.8647 25.8988 25.8057C25.809 26.6174 25.6763 27.4291 25.4323 28.2046C25.0899 29.3292 24.6405 30.4221 24.0242 31.4107C23.4934 32.2633 22.83 33.0251 22.0639 33.6419C21.2207 34.3176 20.2577 34.8119 19.2561 35.152C18.0106 35.5737 16.7051 35.7823 15.404 35.8957C13.8503 36.0181 12.2881 36.0408 10.7387 35.8322C8.98387 35.6009 7.24186 35.1066 5.67963 34.2133C4.23295 33.3879 2.96176 32.1772 2.14426 30.6534C1.19836 28.912 0.88591 26.8487 1.03571 24.8579C1.1898 22.7492 1.82325 20.7039 2.66215 18.7948C3.38977 17.1532 4.28003 15.5977 5.26869 14.1193C6.11187 12.8677 7.01925 11.666 8.01228 10.5413C8.02936 10.5277 8.06364 10.496 8.08504 10.4824C8.06792 11.4302 8.15353 12.3825 8.41033 13.294C8.67142 14.2236 9.11227 15.0989 9.69864 15.8471C9.73293 15.8925 9.75856 15.956 9.82277 15.9651C11.094 14.9538 12.2967 13.8201 13.234 12.4551C14.2056 11.0447 14.8561 9.39402 15.1044 7.66624C15.4339 5.43055 15.1515 3.10417 14.3725 1Z" fill="#1180FF" stroke="#1180FF" stroke-width="0.304483"/>
</svg>
