<svg width="16" height="20" viewBox="0 0 16 20" fill="none" xmlns="http://www.w3.org/2000/svg">
<path d="M14 7C13.8993 5.81157 13.4066 4.69028 12.5993 3.81237C11.792 2.93446 10.7158 2.3497 9.54 2.15C9.6 1.46 9.53 0 8 0C6.47 0 6.4 1.46 6.46 2.15C5.28415 2.3497 4.208 2.93446 3.40068 3.81237C2.59337 4.69028 2.10066 5.81157 2 7V13L0 15V16H16V15L14 13V7ZM8 20C8.79565 20 9.55871 19.6839 10.1213 19.1213C10.6839 18.5587 11 17.7956 11 17H5C5 17.7956 5.31607 18.5587 5.87868 19.1213C6.44129 19.6839 7.20435 20 8 20Z" fill="#1180FF"/>
</svg>
