<svg width="18" height="23.999999999999996" xmlns="http://www.w3.org/2000/svg">
 <style type="text/css">.st0{fill:#2c3552;}</style>
 <g>
  <title>Layer 1</title>
  <g stroke="null" id="svg_1">
   <path stroke="null" id="svg_2" d="m8.977997,2.132459c-3.352427,0 -6.189095,2.579597 -6.189095,5.896222c0,1.351218 0.515758,2.579597 1.289395,3.562301c0.128939,0.245676 0.386818,0.368514 0.515758,0.61419l0,0c0.515758,0.61419 1.160455,1.351218 1.418334,2.088245c0,0.122838 0,0.491352 0,0.737028l0,0.491352c0,0.368514 0.386818,0.737028 0.773637,0.737028l4.126063,0c0.386818,0 0.773637,-0.368514 0.773637,-0.737028l0,-0.491352c0,-0.368514 0,-0.61419 0,-0.737028c0.257879,-0.737028 0.902576,-1.474055 1.418334,-2.211083l0,0c0.128939,-0.245676 0.386818,-0.368514 0.515758,-0.491352c0.902576,-0.982704 1.289395,-2.333921 1.289395,-3.562301c0.128939,-3.193787 -2.57879,-5.896222 -5.931216,-5.896222l0,0zm3.610306,8.598657c-0.128939,0.122838 -0.257879,0.368514 -0.386818,0.491352l0,0c-0.644697,0.737028 -1.418334,1.596893 -1.805153,2.702435c0,0.122838 -0.128939,0.368514 -0.128939,0.859866l-2.57879,0c0,-0.491352 0,-0.737028 -0.128939,-0.859866c-0.257879,-1.105542 -1.031516,-1.965407 -1.676213,-2.702435l0,0c-0.128939,-0.245676 -0.386818,-0.368514 -0.515758,-0.61419c-0.644697,-0.737028 -1.031516,-1.719731 -1.031516,-2.702435c0,-2.456759 2.063032,-4.422166 4.641821,-4.422166s4.641821,1.965407 4.641821,4.422166c-0.128939,1.105542 -0.386818,2.088245 -1.031516,2.825273l0,0z" class="st0"/>
   <path stroke="null" id="svg_3" d="m10.912089,16.5045l-4.126063,0c-0.386818,0 -0.773637,0.368514 -0.773637,0.737028c0,0.368514 0.386818,0.737028 0.773637,0.737028l4.126063,0c0.386818,0 0.773637,-0.368514 0.773637,-0.737028c0,-0.368514 -0.257879,-0.737028 -0.773637,-0.737028l0,0z" class="st0"/>
   <path stroke="null" id="svg_4" d="m9.880573,18.224232l-1.934092,0c-0.386818,0 -0.773637,0.368514 -0.773637,0.737028c0,0.368514 0.386818,0.737028 0.773637,0.737028l2.063032,0c0.386818,0 0.773637,-0.368514 0.773637,-0.737028c-0.128939,-0.368514 -0.386818,-0.737028 -0.902576,-0.737028l0,0z" class="st0"/>
   <path stroke="null" id="svg_5" d="m16.786843,7.666358l-1.131704,0c-0.161672,0 -0.323344,0.149936 -0.323344,0.299873s0.161672,0.299873 0.323344,0.299873l1.131704,0c0.161672,0 0.323344,-0.149936 0.323344,-0.299873s-0.161672,-0.299873 -0.323344,-0.299873l0,0z" class="st0"/>
   <path stroke="null" id="svg_6" d="m2.309514,7.841329c0,-0.149936 -0.184187,-0.299873 -0.368373,-0.299873l-1.289307,0c-0.184187,0 -0.368373,0.149936 -0.368373,0.299873s0.184187,0.299873 0.368373,0.299873l1.289307,0c0.184187,0 0.368373,-0.149936 0.368373,-0.299873l0,0z" class="st0"/>
   <path stroke="null" id="svg_7" d="m8.885124,1.774263c0.185594,0 0.371188,-0.152775 0.371188,-0.30555l0,-1.069425c0,-0.152775 -0.185594,-0.30555 -0.371188,-0.30555c-0.185594,0 -0.371188,0.152775 -0.371188,0.30555l0,1.069425c0,0.152775 0.123729,0.30555 0.371188,0.30555l0,0z" class="st0"/>
   <path stroke="null" id="svg_8" d="m14.119296,12.205282c-0.105472,-0.095794 -0.316417,-0.095794 -0.474625,0c-0.105472,0.095794 -0.105472,0.287382 0,0.431074l0.791041,0.718456c0.052736,0.047897 0.158208,0.095794 0.210944,0.095794c0.105472,0 0.158208,-0.047897 0.210944,-0.095794c0.105472,-0.095794 0.105472,-0.287382 0,-0.431074l-0.738305,-0.718456z" class="st0"/>
   <path stroke="null" id="svg_9" d="m3.272664,3.996286c0.057927,0.056981 0.173782,0.113962 0.231709,0.113962c0.115854,0 0.173782,-0.056981 0.231709,-0.113962c0.115854,-0.113962 0.115854,-0.341885 0,-0.512827l-0.868908,-0.854712c-0.115854,-0.113962 -0.347563,-0.113962 -0.521345,0c-0.057927,0.170942 -0.057927,0.398866 0.057927,0.512827l0.868908,0.854712z" class="st0"/>
   <path stroke="null" id="svg_10" d="m3.416705,12.134912l-0.764582,0.753184c-0.101944,0.100424 -0.101944,0.301273 0,0.45191c0.101944,0 0.152916,0.050212 0.254861,0.050212s0.152916,-0.050212 0.203888,-0.100424l0.764582,-0.753184c0.101944,-0.100424 0.101944,-0.301273 0,-0.45191c-0.152916,-0.050212 -0.305833,-0.050212 -0.458749,0.050212l0,0z" class="st0"/>
   <path stroke="null" id="svg_11" d="m13.9588,3.985346c0.101944,0 0.152916,-0.05471 0.203888,-0.10942l0.764582,-0.820648c0.101944,-0.10942 0.101944,-0.328259 0,-0.492389c-0.101944,-0.10942 -0.305833,-0.10942 -0.458749,0l-0.764582,0.820648c-0.101944,0.10942 -0.101944,0.328259 0,0.492389c0.101944,0.05471 0.152916,0.10942 0.254861,0.10942l0,0z" class="st0"/>
  </g>
  <path stroke="null" id="svg_12" d="m9.110773,12.838089c-1.376752,0 -2.615829,-0.904997 -2.753504,-2.262492c0,-0.301666 0.137675,-0.603331 0.550701,-0.603331c0.27535,0 0.550701,0.150833 0.550701,0.603331c0,0.603331 0.826051,1.05583 1.652102,1.05583c0.826051,0 1.652102,-0.603331 1.652102,-1.206663c0,-0.603331 -0.550701,-0.904997 -1.652102,-1.206663l-0.137675,0c-1.789778,-0.301666 -2.615829,-1.206663 -2.615829,-2.413325c0,-1.357495 1.239077,-2.413325 2.753504,-2.413325c1.376752,0 2.615829,0.904997 2.753504,2.262492c0,0.301666 -0.137675,0.603331 -0.550701,0.603331c-0.27535,0.150833 -0.550701,-0.150833 -0.550701,-0.452498c0,-0.603331 -0.826051,-1.05583 -1.652102,-1.05583c-0.826051,0 -1.652102,0.603331 -1.652102,1.206663c0,0.603331 0.550701,0.904997 1.652102,1.206663l0.137675,0c1.789778,0.301666 2.615829,1.206663 2.615829,2.413325c0,1.206663 -1.239077,2.262492 -2.753504,2.262492z" class="st0"/>
  <path stroke="null" id="svg_13" d="m9.084823,13.263088c-0.2,0 -0.4,-0.269455 -0.4,-0.538909l0,-8.48782c0,-0.269455 0.2,-0.538909 0.4,-0.538909s0.4,0.269455 0.4,0.538909l0,8.48782c0,0.269455 -0.2,0.538909 -0.4,0.538909z" class="st0"/>
  <style transform="matrix(27.416855129195028,0,0,27.416855129195028,0,0) " type="text/css">.st0{fill:#2c355;}</style>
  <g id="svg_31">
   <g transform="matrix(27.416855129195028,0,0,27.416855129195028,0,0) " id="svg_18">
    <path id="svg_19" d="m15.8,-4.644076c-2.6,0 -4.8,2.1 -4.8,4.8c0,1.1 0.4,2.1 1,2.9c0.1,0.2 0.3,0.3 0.4,0.5l0,0c0.4,0.5 0.9,1.1 1.1,1.7c0,0.1 0,0.4 0,0.6l0,0.4c0,0.3 0.3,0.6 0.6,0.6l3.2,0c0.3,0 0.6,-0.3 0.6,-0.6l0,-0.4c0,-0.3 0,-0.5 0,-0.6c0.2,-0.6 0.7,-1.2 1.1,-1.8l0,0c0.1,-0.2 0.3,-0.3 0.4,-0.4c0.7,-0.8 1,-1.9 1,-2.9c0.1,-2.6 -2,-4.8 -4.6,-4.8l0,0zm2.8,7c-0.1,0.1 -0.2,0.3 -0.3,0.4l0,0c-0.5,0.6 -1.1,1.3 -1.4,2.2c0,0.1 -0.1,0.3 -0.1,0.7l-2,0c0,-0.4 0,-0.6 -0.1,-0.7c-0.2,-0.9 -0.8,-1.6 -1.3,-2.2l0,0c-0.1,-0.2 -0.3,-0.3 -0.4,-0.5c-0.5,-0.6 -0.8,-1.4 -0.8,-2.2c0,-2 1.6,-3.6 3.6,-3.6s3.6,1.6 3.6,3.6c-0.1,0.9 -0.3,1.7 -0.8,2.3l0,0z" class="st0"/>
    <path id="svg_20" d="m17.3,7.055924l-3.2,0c-0.3,0 -0.6,0.3 -0.6,0.6c0,0.3 0.3,0.6 0.6,0.6l3.2,0c0.3,0 0.6,-0.3 0.6,-0.6c0,-0.3 -0.2,-0.6 -0.6,-0.6l0,0z" class="st0"/>
    <path id="svg_21" d="m16.5,8.455924l-1.5,0c-0.3,0 -0.6,0.3 -0.6,0.6c0,0.3 0.3,0.6 0.6,0.6l1.6,0c0.3,0 0.6,-0.3 0.6,-0.6c-0.1,-0.3 -0.3,-0.6 -0.7,-0.6l0,0z" class="st0"/>
    <path id="svg_22" d="m24.1,-0.444076l-2.1,0c-0.3,0 -0.6,0.3 -0.6,0.6s0.3,0.6 0.6,0.6l2.1,0c0.3,0 0.6,-0.3 0.6,-0.6s-0.3,-0.6 -0.6,-0.6l0,0z" class="st0"/>
    <path id="svg_23" d="m10.1,0.155924c0,-0.3 -0.3,-0.6 -0.6,-0.6l-2.1,0c-0.3,0 -0.6,0.3 -0.6,0.6s0.3,0.6 0.6,0.6l2.1,0c0.3,0 0.6,-0.3 0.6,-0.6l0,0z" class="st0"/>
    <path id="svg_24" d="m15.8,-5.444076c0.3,0 0.6,-0.3 0.6,-0.6l0,-2.1c0,-0.3 -0.3,-0.6 -0.6,-0.6c-0.3,0 -0.6,0.3 -0.6,0.6l0,2.1c0,0.3 0.2,0.6 0.6,0.6l0,0z" class="st0"/>
    <path id="svg_25" d="m20.6,4.155924c-0.2,-0.2 -0.6,-0.2 -0.9,0c-0.2,0.2 -0.2,0.6 0,0.9l1.5,1.5c0.1,0.1 0.3,0.2 0.4,0.2c0.2,0 0.3,-0.1 0.4,-0.2c0.2,-0.2 0.2,-0.6 0,-0.9l-1.4,-1.5z" class="st0"/>
    <path id="svg_26" d="m10.9,-3.844076c0.1,0.1 0.3,0.2 0.4,0.2c0.2,0 0.3,-0.1 0.4,-0.2c0.2,-0.2 0.2,-0.6 0,-0.9l-1.5,-1.5c-0.2,-0.2 -0.6,-0.2 -0.9,0c-0.1,0.3 -0.1,0.7 0.1,0.9l1.5,1.5z" class="st0"/>
    <path id="svg_27" d="m10.9,4.155924l-1.5,1.5c-0.2,0.2 -0.2,0.6 0,0.9c0.2,0 0.3,0.1 0.5,0.1s0.3,-0.1 0.4,-0.2l1.5,-1.5c0.2,-0.2 0.2,-0.6 0,-0.9c-0.3,-0.1 -0.6,-0.1 -0.9,0.1l0,0z" class="st0"/>
    <path id="svg_28" d="m20.2,-3.644076c0.2,0 0.3,-0.1 0.4,-0.2l1.5,-1.5c0.2,-0.2 0.2,-0.6 0,-0.9c-0.2,-0.2 -0.6,-0.2 -0.9,0l-1.5,1.5c-0.2,0.2 -0.2,0.6 0,0.9c0.2,0.1 0.3,0.2 0.5,0.2l0,0z" class="st0"/>
   </g>
   <path id="svg_29" d="m433.186311,89.267194c-27.416855,0 -52.092025,-16.450113 -54.83371,-41.125283c0,-5.483371 2.741686,-10.966742 10.966742,-10.966742c5.483371,0 10.966742,2.741686 10.966742,10.966742c0,10.966742 16.450113,19.191799 32.900226,19.191799c16.450113,0 32.900226,-10.966742 32.900226,-21.933484c0,-10.966742 -10.966742,-16.450113 -32.900226,-21.933484l-2.741686,0c-35.641912,-5.483371 -52.092025,-21.933484 -52.092025,-43.866968c0,-24.67517 24.67517,-43.866968 54.83371,-43.866968c27.416855,0 52.092025,16.450113 54.83371,41.125283c0,5.483371 -2.741686,10.966742 -10.966742,10.966742c-5.483371,2.741686 -10.966742,-2.741686 -10.966742,-8.225057c0,-10.966742 -16.450113,-19.191799 -32.900226,-19.191799c-16.450113,0 -32.900226,10.966742 -32.900226,21.933484c0,10.966742 10.966742,16.450113 32.900226,21.933484l2.741686,0c35.641912,5.483371 52.092025,21.933484 52.092025,43.866968c0,21.933484 -24.67517,41.125283 -54.83371,41.125283z" class="st0"/>
   <path id="svg_30" d="m433.186311,111.200678c-5.483371,0 -10.966742,-5.483371 -10.966742,-10.966742l0,-172.726187c0,-5.483371 5.483371,-10.966742 10.966742,-10.966742s10.966742,5.483371 10.966742,10.966742l0,172.726187c0,5.483371 -5.483371,10.966742 -10.966742,10.966742z" class="st0"/>
  </g>
 </g>
</svg>