<?xml version="1.0" encoding="utf-8"?><!-- Uploaded to: SVG Repo, www.svgrepo.com, Generator: SVG Repo Mixer Tools -->
<svg width="22px" height="22px" viewBox="0 -0.5 25 25" fill="none" xmlns="http://www.w3.org/2000/svg">
<path d="M11.1828 7.68276C10.8899 7.97566 10.8899 8.45053 11.1828 8.74342C11.4756 9.03632 11.9505 9.03632 12.2434 8.74342L11.1828 7.68276ZM13.9851 5.94109L14.5154 6.47142V6.47142L13.9851 5.94109ZM18.5291 5.94109L17.9988 6.47142L18.5291 5.94109ZM18.5291 10.4851L17.9988 9.95476L18.5291 10.4851ZM15.7268 12.2268C15.4339 12.5197 15.4339 12.9945 15.7268 13.2874C16.0196 13.5803 16.4945 13.5803 16.7874 13.2874L15.7268 12.2268ZM13.7583 16.3185C14.0513 16.0257 14.0514 15.5508 13.7585 15.2579C13.4657 14.9649 12.9908 14.9648 12.6979 15.2576L13.7583 16.3185ZM10.9561 18.0591L11.4797 18.5961L11.4863 18.5895L10.9561 18.0591ZM6.44132 18.0309L5.91104 18.5612H5.91104L6.44132 18.0309ZM6.41208 13.5161L5.88171 12.9857L5.87499 12.9926L6.41208 13.5161ZM9.21441 11.7744C9.50731 11.4815 9.50731 11.0067 9.21441 10.7138C8.92152 10.4209 8.44665 10.4209 8.15375 10.7138L9.21441 11.7744ZM15.2744 10.2574C15.5673 9.96453 15.5673 9.48966 15.2744 9.19676C14.9815 8.90387 14.5066 8.90387 14.2138 9.19676L15.2744 10.2574ZM9.66975 13.7408C9.37686 14.0337 9.37686 14.5085 9.66975 14.8014C9.96265 15.0943 10.4375 15.0943 10.7304 14.8014L9.66975 13.7408ZM12.2434 8.74342L14.5154 6.47142L13.4548 5.41076L11.1828 7.68276L12.2434 8.74342ZM14.5154 6.47142C15.4773 5.50953 17.0369 5.50953 17.9988 6.47142L19.0594 5.41076C17.5117 3.86308 15.0024 3.86308 13.4548 5.41076L14.5154 6.47142ZM17.9988 6.47142C18.9607 7.43332 18.9607 8.99287 17.9988 9.95476L19.0594 11.0154C20.6071 9.46774 20.6071 6.95845 19.0594 5.41076L17.9988 6.47142ZM17.9988 9.95476L15.7268 12.2268L16.7874 13.2874L19.0594 11.0154L17.9988 9.95476ZM12.6979 15.2576L10.4259 17.5286L11.4863 18.5895L13.7583 16.3185L12.6979 15.2576ZM10.4325 17.5221C9.46732 18.4632 7.92491 18.4536 6.97159 17.5005L5.91104 18.5612C7.44495 20.0948 9.92671 20.1103 11.4797 18.5961L10.4325 17.5221ZM6.97159 17.5005C6.01827 16.5474 6.00828 15.0049 6.94918 14.0396L5.87499 12.9926C4.36107 14.5459 4.37714 17.0277 5.91104 18.5612L6.97159 17.5005ZM6.94241 14.0464L9.21441 11.7744L8.15375 10.7138L5.88175 12.9858L6.94241 14.0464ZM14.2138 9.19676L9.66975 13.7408L10.7304 14.8014L15.2744 10.2574L14.2138 9.19676Z" fill="#000000"/>
</svg>
