<?xml version="1.0" encoding="UTF-8"?>
<svg width="512px" height="512px" enable-background="new 0 0 120 120" version="1.1" viewBox="0 0 120 120" xml:space="preserve" xmlns="http://www.w3.org/2000/svg">
<g fill="#999">
	<path d="m114 0h-71c-3.3 0-6 2.7-6 6v12c0 3.3 2.7 6 6 6h71c3.3 0 6-2.7 6-6v-12c0-3.3-2.7-6-6-6z"/>
	<path d="m114 48h-71c-3.3 0-6 2.7-6 6v12c0 3.3 2.7 6 6 6h71c3.3 0 6-2.7 6-6v-12c0-3.3-2.7-6-6-6z"/>
	<path d="m114 96h-71c-3.3 0-6 2.7-6 6v12c0 3.3 2.7 6 6 6h71c3.3 0 6-2.7 6-6v-12c0-3.3-2.7-6-6-6z"/>
	<path d="M18,0H6C2.7,0,0,2.7,0,6v12c0,3.3,2.7,6,6,6h12c3.3,0,6-2.7,6-6V6C24,2.7,21.3,0,18,0z"/>
	<path d="m18 48h-12c-3.3 0-6 2.7-6 6v12c0 3.3 2.7 6 6 6h12c3.3 0 6-2.7 6-6v-12c0-3.3-2.7-6-6-6z"/>
	<path d="m18 96h-12c-3.3 0-6 2.7-6 6v12c0 3.3 2.7 6 6 6h12c3.3 0 6-2.7 6-6v-12c0-3.3-2.7-6-6-6z"/>
</g>
</svg>
