<?xml version="1.0" standalone="no"?>
<!DOCTYPE svg PUBLIC "-//W3C//DTD SVG 20010904//EN"
 "http://www.w3.org/TR/2001/REC-SVG-20010904/DTD/svg10.dtd">
<svg version="1.0" xmlns="http://www.w3.org/2000/svg"
 width="13.552714pt" height="13.552714pt" viewBox="0 0 360.000000 360.000000"
 preserveAspectRatio="xMidYMid meet">
<g transform="translate(0.000000,360.000000) scale(0.100000,-0.100000)"
fill="#e31337" stroke="none">
<path d="M607 3009 c-162 -327 -363 -733 -447 -904 l-152 -310 448 -895 c247
-492 454 -896 460 -897 5 -2 75 128 154 289 184 377 691 1391 719 1441 22 39
27 86 12 103 -13 14 -239 458 -557 1094 -156 311 -296 589 -313 619 l-29 54
-295 -594z"/>
<path d="M1331 3583 c0 -10 175 -367 388 -793 l389 -775 236 0 c130 0 237 3
239 8 1 4 -173 360 -388 791 l-390 784 -237 1 c-221 1 -238 0 -237 -16z"/>
<path d="M2220 3576 c0 -14 196 -417 435 -896 239 -479 435 -877 435 -885 0
-8 -196 -406 -435 -885 -239 -479 -435 -880 -435 -891 0 -18 9 -19 240 -19
l239 0 342 687 c188 379 386 779 440 891 54 111 103 202 109 202 5 0 10 7 10
15 0 8 -4 15 -9 15 -6 0 -100 183 -211 408 -110 224 -310 626 -443 894 l-242
488 -237 0 -238 0 0 -24z"/>
<path d="M2098 1543 c-17 -20 -768 -1519 -768 -1533 0 -6 94 -10 238 -10 l237
0 383 760 c210 417 382 768 382 780 0 20 -5 20 -228 20 -206 0 -230 -2 -244
-17z"/>
</g>
</svg>
