<svg width="240px" height="84px" viewBox="0 0 154 35" version="1.1" xmlns="http://www.w3.org/2000/svg" xmlns:xlink="http://www.w3.org/1999/xlink">
  <g id="Page-1" stroke="none" stroke-width="1" fill="none" fill-rule="evenodd">
    <g id="horizontal" fill-rule="nonzero">
      <g id="hextacular" fill="#E31337">
        <path d="M28.971273,19.7591471 C29.1050774,19.7591471 29.1886406,19.9042169 29.1216092,20.0201382 L20.5097035,34.9132267 C20.4786488,34.9669315 20.421357,35 20.3593673,35 L15.0950176,35 C14.9612132,35 14.8776501,34.8549302 14.9446814,34.7390089 L23.5565872,19.8459204 C23.5876419,19.7922157 23.6449337,19.7591471 23.7069234,19.7591471 L28.971273,19.7591471 Z M23.8511591,15.4902883 C23.7891693,15.4902883 23.7318775,15.4572198 23.7008229,15.4035151 L14.9446814,0.260991101 C14.8776501,0.145069752 14.9612132,0 15.0950176,0 L20.3593673,0 C20.421357,0 20.4786488,0.0330685293 20.5097035,0.0867732707 L29.2658449,15.2292972 C29.3328763,15.3452186 29.2493131,15.4902883 29.1155087,15.4902883 L23.8511591,15.4902883 Z" id="Shape"></path>
        <path d="M24.8920749,0.260906946 C24.8249198,0.144985516 24.9087506,0 25.0429316,0 L30.3147805,0 C30.3769996,0 30.4344978,0.0331052446 30.4656373,0.0868574257 L40.5029222,17.4129752 C40.5341136,17.4668171 40.5341136,17.5331829 40.5029222,17.5870248 L30.4656373,34.9131426 C30.4344978,34.9668948 30.3769996,35 30.3147805,35 L25.0429316,35 C24.9087506,35 24.8249198,34.8550145 24.8920749,34.7390931 L34.8789451,17.5 L24.8920749,0.260906946 Z" id="Path"></path>
        <path d="M20.6076714,17.4123309 C20.6393979,17.4662438 20.6395576,17.5328925 20.6080898,17.5869543 L10.5230679,34.9130721 C10.4557887,35.0286581 10.2877603,35.0290543 10.219928,34.9137869 L0.0239075078,17.5876691 C-0.00781895771,17.5337562 -0.00797861881,17.4671075 0.0234891865,17.4130457 L10.1085111,0.0869278894 C10.1757902,-0.0286580792 10.3438187,-0.0290542605 10.4116509,0.0862131393 L20.6076714,17.4123309 Z" id="Path"></path>
      </g>
      <path d="M68.4356666,6.63157895 L74.2569202,6.63157895 L74.2569202,28.1470935 L68.4356666,28.1470935 L68.4356666,19.7560428 L60.1633589,19.7560428 L60.1633589,28.1470935 L54.3421053,28.1470935 L54.3421053,6.63157895 L60.1633589,6.63157895 L60.1633589,14.4079006 L68.4356666,14.4079006 L68.4356666,6.63157895 Z M86.5121909,6.63157895 L92.256849,6.63157895 L92.256849,28.1470935 L86.5121909,28.1470935 L86.5121909,6.63157895 Z M111.025519,28.1470935 L102.597234,6.90820699 L102.597234,6.63157895 L108.910785,6.63157895 L114.182294,21.2313924 L119.453803,6.63157895 L125.767355,6.63157895 L125.767355,6.90820699 L117.33907,28.1470935 L111.025519,28.1470935 Z M141.75005,22.8604242 L153.724691,22.8604242 L153.724691,28.1470935 L135.916251,28.1470935 L135.916251,6.63157895 L153.509762,6.63157895 L153.509762,11.9182482 L141.75005,11.9182482 L141.75005,14.8996838 L149.211173,14.8996838 L149.211173,19.8175157 L141.75005,19.8175157 L141.75005,22.8604242 Z" id="HIVE" fill="#212529"></path>
    </g>
  </g>
</svg>
