<svg width="40.5" height="35" xmlns="http://www.w3.org/2000/svg">

 <g>
  <title>background</title>
  <rect fill="none" id="canvas_background" height="37" width="42.5" y="-1" x="-1"/>
 </g>
 <g>
  <title>Layer 1</title>
  <g fill-rule="evenodd" fill="none" id="Page-1">
   <g fill-rule="nonzero" id="horizontal">
    <g fill="#E31337" id="hextacular">
     <path fill="#8798a4" id="Shape" d="m28.97127,19.75915c0.13381,0 0.21737,0.14507 0.15034,0.26099l-8.61191,14.89309c-0.03105,0.0537 -0.08834,0.08677 -0.15033,0.08677l-5.26435,0c-0.13381,0 -0.21737,-0.14507 -0.15034,-0.26099l8.61191,-14.89309c0.03105,-0.0537 0.08834,-0.08677 0.15033,-0.08677l5.26435,0zm-5.12011,-4.26886c-0.06199,0 -0.11928,-0.03307 -0.15034,-0.08677l-8.75614,-15.14253c-0.06703,-0.11592 0.01653,-0.26099 0.15034,-0.26099l5.26435,0c0.06199,0 0.11928,0.03307 0.15033,0.08677l8.75614,15.14253c0.06704,0.11592 -0.01653,0.26099 -0.15033,0.26099l-5.26435,0z"/>
     <path fill="#8798a4" id="Path" d="m24.89207,0.26091c-0.06715,-0.11592 0.01668,-0.26091 0.15086,-0.26091l5.27185,0c0.06222,0 0.11972,0.03311 0.15086,0.08686l10.03728,17.32612c0.03119,0.05384 0.03119,0.1202 0,0.17404l-10.03728,17.32612c-0.03114,0.05375 -0.08864,0.08686 -0.15086,0.08686l-5.27185,0c-0.13418,0 -0.21801,-0.14499 -0.15086,-0.26091l9.98688,-17.23909l-9.98688,-17.23909z"/>
     <path fill="#8798a4" id="Path" d="m20.60767,17.41233c0.03173,0.05391 0.03189,0.12056 0.00042,0.17462l-10.08502,17.32612c-0.06728,0.11559 -0.23531,0.11598 -0.30314,0.00072l-10.19602,-17.32612c-0.03173,-0.05391 -0.03189,-0.12056 -0.00042,-0.17462l10.08502,-17.32612c0.06728,-0.11559 0.23531,-0.11598 0.30314,-0.00072l10.19602,17.32612z"/>
    </g>
    <path fill="#8798a4" id="svg_1" d="m68.43567,6.63158l5.82125,0l0,21.51551l-5.82125,0l0,-8.39105l-8.27231,0l0,8.39105l-5.82125,0l0,-21.51551l5.82125,0l0,7.77632l8.27231,0l0,-7.77632zm18.07652,0l5.74466,0l0,21.51551l-5.74466,0l0,-21.51551zm24.51333,21.51551l-8.42829,-21.23888l0,-0.27663l6.31356,0l5.2715,14.59981l5.27151,-14.59981l6.31355,0l0,0.27663l-8.42828,21.23888l-6.31355,0zm30.72453,-5.28667l11.97464,0l0,5.28667l-17.80844,0l0,-21.51551l17.59351,0l0,5.28667l-11.75971,0l0,2.98143l7.46112,0l0,4.91784l-7.46112,0l0,3.0429z"/>
   </g>
  </g>
 </g>
</svg>