<svg width="99" height="146" viewBox="0 0 99 146" fill="none" xmlns="http://www.w3.org/2000/svg">
  <path d="M44.0953 1.64314L44.086 1.64403C36.1311 2.40002 30.1364 3.98645 24.7538 6.70001L24.7473 6.70323C20.7852 8.67685 15.6558 12.4984 12.9752 15.3768C7.92528 20.8262 4.04652 28.5953 2.56434 36.3045C-0.160583 50.4968 2.14593 62.3959 11.8086 82.574C16.9882 93.3612 26.0557 108.726 36.049 123.521L36.0516 123.525C38.776 127.587 46.7948 138.958 49.5163 142.69L51.7275 139.677C51.728 139.676 51.7285 139.676 51.7291 139.675C66.5122 119.362 79.7667 98.0904 87.2061 82.7123L87.2071 82.7103C94.681 67.3192 97.5 57.2785 97.5 46.9253C97.4717 33.6217 93.2733 22.7243 85.1989 14.6792C77.857 7.36914 68.8458 3.1738 57.4019 1.86949C54.1001 1.50778 46.7747 1.37161 44.0953 1.64314ZM79.9339 51.913L79.9335 51.9145C78.4735 57.5339 75.9242 61.9448 71.726 66.275C55.1799 83.3799 26.6032 76.887 18.5786 54.3173L18.5773 54.3137C16.3316 47.9459 16.3404 40.0848 18.6279 33.3486C20.5923 27.5271 23.7061 23.0297 28.5321 18.9607L28.5359 18.9575C35.3929 13.2154 44.9127 10.5561 53.7211 11.9938C67.4221 14.2299 77.9366 24.443 80.495 38.0214C81.2199 41.8697 80.9499 47.9862 79.9339 51.913Z" fill="#F1B49B" stroke="white" stroke-width="3"/>
  <path d="M45.1507 17.4091L45.1487 17.4094C39.8948 18.1585 33.9214 21.2167 30.0859 25.118C26.2996 28.9702 23.5511 34.4091 22.7214 39.5915L22.7209 39.5941C22.4747 41.1152 22.415 43.2115 22.5356 45.3295C22.6563 47.4507 22.951 49.4732 23.3596 50.8571C25.465 57.9503 30.6563 64.3212 36.7575 67.3948L36.7597 67.3959C43.1267 70.6165 50.5719 71.2458 56.831 69.135L56.832 69.1347C65.5036 66.217 71.5208 60.0641 74.4728 51.0169L74.4736 51.0146C74.8334 49.9179 74.9922 49.3473 75.0815 48.5175C75.1775 47.6251 75.1935 46.4259 75.1934 44.0802L75.1935 44.0724C75.2077 41.3606 75.162 39.8238 74.9567 38.5332C74.7567 37.2759 74.3963 36.1986 73.6838 34.4186C68.9043 22.5563 57.2852 15.6625 45.1507 17.4091Z" fill="#F1B49B" stroke="white" stroke-width="3"/>
  <path d="M93 43.8905C93 63.4947 70.0935 107 49 107C27.9065 107 5 63.4947 5 43.8905C5 24.2864 27.9065 3 49 3C70.0935 3 93 24.2864 93 43.8905Z" fill="#F1B49B"/>
  <ellipse cx="49" cy="48" rx="24" ry="23" fill="#F3DACF"/>
</svg>
