<svg width="80" height="100" viewBox="0 0 80 100" fill="none" xmlns="http://www.w3.org/2000/svg">
<path d="M23.8905 2.68953C9.80769 8.89184 0 23.7774 0 38.4148C0.251479 47.3461 4.86453 57.4305 18.9474 78.0222C36.048 103.328 41.7456 108.873 59.0976 83.5676C86.0059 43.8728 86.7604 23.7774 62.3669 5.91474C53.8166 -0.287567 33.9497 -2.02422 23.8905 2.68953ZM47.7811 25.2659C54.3195 33.2049 44.5118 45.3614 35.9615 39.9034C30.1775 36.4301 28.9201 29.7316 32.6923 25.2659C36.716 20.5522 43.7574 20.5522 47.7811 25.2659ZM57.8402 51.0675C57.8402 57.2698 48.787 63.7202 40.2367 63.7202C31.6864 63.7202 22.6331 57.2698 22.6331 51.0675C22.6331 46.85 24.3935 46.3538 40.2367 46.3538C56.0799 46.3538 57.8402 46.85 57.8402 51.0675Z" fill="#F1B49B"/>
<ellipse cx="40" cy="42" rx="32" ry="29" fill="#F5F4F3"/>
<path d="M62.5 37.5C62.5 50.7851 52.3971 61.5 40 61.5C27.6029 61.5 17.5 50.7851 17.5 37.5C17.5 24.2149 27.6029 13.5 40 13.5C52.3971 13.5 62.5 24.2149 62.5 37.5Z" fill="#F5F4F3" stroke="#FF7036"/>
<ellipse cx="40" cy="42" rx="32" ry="29" fill="#F1B49B"/>
<path d="M63 40C63 52.1503 52.7025 62 40 62C27.2975 62 17 52.1503 17 40C17 27.8497 27.2975 18 40 18C52.7025 18 63 27.8497 63 40Z" fill="#F5F4F3" fill-opacity="0.59"/>
</svg>
