<svg width="60" height="79" viewBox="0 0 60 79" fill="none" xmlns="http://www.w3.org/2000/svg">
<path d="M18.5685 3.42355L18.5524 3.43128L18.5362 3.43863C8.51271 7.97307 1.50911 18.8977 1.50001 29.5732C1.59089 32.7024 2.90106 37.2014 5.58121 42.9874C8.25024 48.7495 12.215 55.6566 17.469 63.5476L17.469 63.5476L17.4735 63.5545C20.6867 68.4385 23.1728 71.9976 25.3012 74.3348C27.4676 76.7138 28.9771 77.5 30.2011 77.5C31.4285 77.5 32.9502 76.7102 35.1417 74.3289C37.2935 71.9909 39.8143 68.4315 43.0735 63.5493C53.1467 48.2851 58.1196 37.0699 58.479 28.1005C58.8301 19.3388 54.7743 12.4512 45.8769 5.7579C42.9911 3.60873 37.9848 2.1219 32.6404 1.65502C27.3019 1.18867 21.9982 1.77271 18.5685 3.42355ZM36.9894 18.5057L36.9978 18.5158L37.0061 18.5261C39.9933 22.2517 39.1787 26.9064 36.8266 29.8997C34.4703 32.8982 30.2023 34.64 26.1662 32.0067C21.171 28.913 19.8847 22.7385 23.3607 18.5116L23.3656 18.5057C26.9831 14.1526 33.3719 14.1526 36.9894 18.5057ZM44.8802 39.3414C44.8802 42.4205 42.7438 45.2488 40.0728 47.215C37.3521 49.2177 33.7459 50.5889 30.1775 50.5889C26.6091 50.5889 23.0029 49.2177 20.2822 47.215C17.6112 45.2488 15.4749 42.4205 15.4749 39.3414C15.4749 38.485 15.5472 37.4803 16.0965 36.6056C16.6831 35.6715 17.6241 35.1646 18.7207 34.8615C19.7971 34.5641 21.215 34.4099 23.0294 34.3223C24.8638 34.2338 27.2064 34.2101 30.1775 34.2101C33.1487 34.2101 35.4912 34.2338 37.3256 34.3223C39.14 34.4099 40.558 34.5641 41.6343 34.8615C42.7309 35.1646 43.6719 35.6715 44.2585 36.6056C44.8078 37.4803 44.8802 38.485 44.8802 39.3414Z" fill="#F1B49B" stroke="white" stroke-width="3"/>
<ellipse cx="30.5" cy="29" rx="21.5" ry="23" fill="#F1B49B"/>
<ellipse cx="30.5" cy="30.5" rx="15.5" ry="16.5" fill="#F3DACF"/>
</svg>
