<svg fill="#57585d" xmlns="http://www.w3.org/2000/svg" viewBox="0 0 32 32">
    <path style="line-height:normal;text-indent:0;text-align:start;text-decoration-line:none;text-decoration-style:solid;text-decoration-color:#000;text-transform:none;block-progression:tb;isolation:auto;mix-blend-mode:normal" d="M 2 8 L 2 24 L 15 24 L 21.529297 24 C 21.009297 23.417 20.620375 22.733 20.359375 22 L 15 22 L 5.9121094 22 A 1.5 1.5 0 0 0 6 21.5 A 1.5 1.5 0 0 0 4.5 20 A 1.5 1.5 0 0 0 4 20.087891 L 4 11.912109 A 1.5 1.5 0 0 0 4.5 12 A 1.5 1.5 0 0 0 6 10.5 A 1.5 1.5 0 0 0 5.9121094 10 L 15 10 L 24.087891 10 A 1.5 1.5 0 0 0 24 10.5 A 1.5 1.5 0 0 0 25.5 12 A 1.5 1.5 0 0 0 26 11.912109 L 26 15 L 28 15 L 28 8 L 15 8 L 2 8 z M 15 12 C 12.790196 12 11 13.790196 11 16 L 11 17 L 11.201172 17 C 11.654113 18.712177 13.145038 20 15 20 C 16.213 20 17.272 19.475437 18 18.648438 L 18 15 L 18.863281 15 C 18.428281 13.259 16.894 12 15 12 z M 15 14 C 16.14 14 17 14.859 17 16 C 17 17.141 16.14 18 15 18 C 13.809804 18 13 17.190196 13 16 C 13 14.809804 13.809804 14 15 14 z M 8 14.5 A 1.5 1.5 0 0 0 6.5 16 A 1.5 1.5 0 0 0 8 17.5 A 1.5 1.5 0 0 0 9.5 16 A 1.5 1.5 0 0 0 8 14.5 z M 20 16 L 20 18 L 21 18 L 21 20 C 21 21.6 21.8 23.1 23 24 C 21.8 24.9 21 26.4 21 28 L 21 30 L 20 30 L 20 32 L 21 32 L 31 32 L 32 32 L 32 30 L 31 30 L 31 28 C 31 26.4 30.2 24.9 29 24 C 30.2 23.1 31 21.6 31 20 L 31 18 L 32 18 L 32 16 L 31 16 L 21 16 L 20 16 z M 23 18 L 29 18 L 29 20 C 29 21.7 27.7 23 26 23 C 24.3 23 23 21.7 23 20 L 23 18 z M 24 20 C 24 20 24 22 26 22 C 28 22 28 20 28 20 L 24 20 z M 26 25 C 27.7 25 29 26.3 29 28 L 29 30 L 28 30 C 28 28.9 27.1 28 26 28 C 24.9 28 24 28.9 24 30 L 23 30 L 23 28 C 23 26.3 24.3 25 26 25 z" font-weight="400" font-family="sans-serif" white-space="normal" overflow="visible"/>
</svg>
