<svg fill="#8798a4" viewBox="0 0 24 24" xmlns="http://www.w3.org/2000/svg"><path fill-rule="evenodd" clip-rule="evenodd" d="M15.2 12.544a3.2 3.2 0 11-6.4 0 3.2 3.2 0 016.4 0zm-1.2 0a2 2 0 11-4 0 2 2 0 014 0z"></path><path fill-rule="evenodd" clip-rule="evenodd" d="M10.609 5.8a2.2 2.2 0 00-2.037 1.369l-.25.613H7a2.2 2.2 0 00-2.2 2.2V16A2.2 2.2 0 007 18.2h10a2.2 2.2 0 002.2-2.2V9.982a2.2 2.2 0 00-2.2-2.2h-1.304l-.262-.628a2.2 2.2 0 00-2.03-1.354h-2.795zm-.926 1.822A1 1 0 0110.609 7h2.794a1 1 0 01.924.615l.415.998a.6.6 0 00.554.369H17a1 1 0 011 1V16a1 1 0 01-1 1H7a1 1 0 01-1-1V9.982a1 1 0 011-1h1.725a.6.6 0 00.556-.373l.402-.987z"></path></svg>
