<?xml version="1.0" encoding="UTF-8"?>
<svg fill="#8798a4" width="100pt" height="100pt" version="1.0" viewBox="0 0 100 100" xmlns="http://www.w3.org/2000/svg">
  <g transform="translate(0 100) scale(.1 -.1)">
    <path d="m386 944c-225-54-376-286-338-517 62-367 512-513 773-252 329 330 18 879-435 769zm219-39c312-81 418-473 191-701-241-240-651-107-709 230-50 295 226 546 518 471z"/>
    <path d="m360 500c0-126 2-230 5-230 10 0 385 224 385 230s-375 230-385 230c-3 0-5-103-5-230zm183 81c70-41 127-78 127-81 0-5-237-148-262-158-4-2-8 69-8 158s4 160 8 158c5-1 66-36 135-77z"/>
  </g>
</svg>
