<svg width="14"  height="14" viewBox="0 0 14 14" fill="none" stroke-width="6" xmlns="http://www.w3.org/2000/svg" >
<path  style="stroke-width: 8;" d="M4.87288 11.8362H9.12712C9.14307 11.8362 9.15788 11.8431 9.16927 11.8534C9.17953 11.8637 9.18636 11.8786 9.18636 11.8959V12.4939C9.18636 12.51 9.17953 12.5249 9.16927 12.5364C9.15902 12.5467 9.14307 12.5536 9.12712 12.5536H4.87288C4.85693 12.5536 4.84212 12.5467 4.83073 12.5364C4.82048 12.5261 4.81364 12.51 4.81364 12.4939V11.8959C4.81364 11.8798 4.82048 11.8649 4.83073 11.8534C4.84098 11.8431 4.85579 11.8362 4.87288 11.8362ZM7.03988 1.48426C7.42497 1.48426 7.79297 1.56117 8.12907 1.70121C8.4777 1.847 8.79216 2.06051 9.0542 2.32453C9.31624 2.58855 9.52816 2.90538 9.67285 3.25664C9.81185 3.59528 9.88818 3.96605 9.88818 4.35405C9.88818 4.74319 9.81185 5.11282 9.67285 5.45146C9.52816 5.80272 9.31624 6.11955 9.0542 6.38357C8.79216 6.64759 8.4777 6.8611 8.12907 7.00689C7.79297 7.14693 7.42497 7.22384 7.03988 7.22384C6.65479 7.22384 6.28678 7.14693 5.95068 7.00689C5.60205 6.8611 5.2876 6.64759 5.02555 6.38357C4.76351 6.11955 4.5516 5.80272 4.4069 5.45146C4.2679 5.11282 4.19157 4.74205 4.19157 4.35405C4.19157 3.96605 4.2679 3.59528 4.4069 3.25664C4.5516 2.90538 4.76351 2.58855 5.02555 2.32453C5.2876 2.06051 5.60205 1.847 5.95068 1.70121C6.28678 1.56117 6.65479 1.48426 7.03988 1.48426ZM1.66797 0.871269H4.34652C4.514 0.740407 4.69629 0.621023 4.89111 0.515415C5.08936 0.408659 5.30013 0.316825 5.52116 0.242211C5.75244 0.163004 5.99626 0.102165 6.24805 0.0608396C6.49414 0.0206625 6.74821 0 7.00684 0C7.26546 0 7.51953 0.0206625 7.76563 0.0608396C8.01742 0.102165 8.26123 0.163004 8.49251 0.242211C8.71354 0.317973 8.92432 0.409806 9.12256 0.515415C9.31852 0.621023 9.50081 0.739259 9.66716 0.871269H12.3309C12.5553 0.871269 12.7707 0.917186 12.9678 0.998688C13.1717 1.08363 13.3563 1.2099 13.5101 1.36487C13.6639 1.51984 13.7881 1.70466 13.8735 1.91128C13.9556 2.10872 14 2.32568 14 2.55297V12.3206C14 12.5467 13.9544 12.7637 13.8735 12.9623C13.7892 13.1678 13.6639 13.3537 13.5101 13.5087C13.3563 13.6637 13.1729 13.7888 12.9678 13.8749C12.7718 13.9575 12.5565 14.0023 12.3309 14.0023H1.66797C1.44352 14.0023 1.22819 13.9564 1.03109 13.8749C0.827148 13.7899 0.642578 13.6637 0.48877 13.5087C0.334961 13.3537 0.210775 13.1689 0.125326 12.9623C0.0455729 12.7625 0 12.5456 0 12.3194V2.55182C0 2.32568 0.0455729 2.10872 0.126465 1.91013C0.210775 1.70466 0.3361 1.51869 0.489909 1.36373C0.643718 1.20876 0.827149 1.08363 1.03223 0.99754C1.22819 0.916038 1.44352 0.871269 1.66797 0.871269ZM1.89242 11.7248C2.02116 11.7248 2.13851 11.7776 2.22282 11.8626C2.30713 11.9475 2.35954 12.0658 2.35954 12.1955C2.35954 12.3252 2.30713 12.4434 2.22282 12.5284C2.13851 12.6133 2.02116 12.6661 1.89242 12.6661C1.76367 12.6661 1.64746 12.6133 1.56201 12.5284C1.4777 12.4434 1.42529 12.3252 1.42529 12.1955C1.42529 12.0658 1.4777 11.9475 1.56201 11.8626L1.56429 11.8603C1.64974 11.7765 1.76481 11.7248 1.89242 11.7248ZM1.89242 2.41063C2.02116 2.41063 2.13851 2.46343 2.22282 2.54838C2.30713 2.63332 2.35954 2.75156 2.35954 2.88127C2.35954 3.01099 2.30713 3.12807 2.22282 3.21417C2.13851 3.29911 2.02116 3.35192 1.89242 3.35192C1.76367 3.35192 1.64746 3.29911 1.56201 3.21417C1.4777 3.12922 1.42529 3.01099 1.42529 2.88127C1.42529 2.75156 1.4777 2.63332 1.56201 2.54838L1.56429 2.54608C1.64974 2.46228 1.76481 2.41063 1.89242 2.41063ZM12.1076 2.41063C12.2363 2.41063 12.3525 2.46343 12.438 2.54838C12.5223 2.63332 12.5747 2.75156 12.5747 2.88127C12.5747 3.01099 12.5223 3.12807 12.438 3.21417C12.3537 3.29911 12.2363 3.35192 12.1076 3.35192C11.9788 3.35192 11.8615 3.29911 11.7772 3.21417L11.7749 3.21187C11.6917 3.12693 11.6405 3.00984 11.6405 2.88242C11.6405 2.75271 11.6929 2.63447 11.7772 2.54952C11.8615 2.46343 11.9788 2.41063 12.1076 2.41063ZM12.1076 11.7248C12.2363 11.7248 12.3525 11.7776 12.438 11.8626C12.5223 11.9475 12.5747 12.0658 12.5747 12.1955C12.5747 12.3252 12.5223 12.4434 12.438 12.5284L12.4357 12.5307C12.3514 12.6145 12.2352 12.6661 12.1087 12.6661C11.98 12.6661 11.8626 12.6133 11.7783 12.5284C11.694 12.4434 11.6416 12.3252 11.6416 12.1955C11.6416 12.0658 11.694 11.9475 11.7783 11.8626C11.8615 11.7776 11.9788 11.7248 12.1076 11.7248ZM4.29867 1.46589H1.66797C1.52214 1.46589 1.38428 1.49574 1.25667 1.54854C1.12451 1.60364 1.00602 1.68514 0.905762 1.78501C0.805501 1.88603 0.725749 2.00541 0.671061 2.13857C0.618652 2.26599 0.58903 2.40603 0.58903 2.55297V12.3206C0.58903 12.4675 0.618652 12.6076 0.671061 12.735C0.725749 12.8682 0.806641 12.9875 0.905762 13.0886C1.00602 13.1896 1.12451 13.2699 1.25667 13.325C1.38314 13.3778 1.52214 13.4077 1.66797 13.4077H12.3309C12.4767 13.4077 12.6146 13.3778 12.7422 13.325C12.8743 13.2699 12.9928 13.1884 13.0931 13.0886C13.1934 12.9875 13.2731 12.8682 13.3278 12.735C13.3802 12.6076 13.4098 12.4675 13.4098 12.3206V2.55182C13.4098 2.40489 13.3802 2.26484 13.3278 2.13742C13.2731 2.00426 13.1922 1.88488 13.0931 1.78386C12.9928 1.68285 12.8743 1.60249 12.7422 1.54739C12.6157 1.49459 12.4767 1.46474 12.3309 1.46474H9.56576C9.56234 1.46474 9.55778 1.46474 9.55436 1.46359C9.52474 1.46245 9.49398 1.45671 9.4655 1.44638L9.46322 1.44523C9.43245 1.43375 9.40397 1.41768 9.37777 1.39472C9.22852 1.2696 9.06217 1.15595 8.88102 1.05608C8.70215 0.957363 8.5096 0.872417 8.30566 0.802394C8.10514 0.733519 7.89323 0.680715 7.6722 0.64513C7.45801 0.610692 7.23584 0.592325 7.0057 0.592325C6.77669 0.592325 6.55339 0.610692 6.33919 0.64513C6.12044 0.683011 5.90853 0.735815 5.70801 0.803542C5.50749 0.871269 5.31836 0.955067 5.1429 1.05149C4.96631 1.14792 4.80225 1.25927 4.653 1.38094C4.62679 1.40735 4.59489 1.42801 4.55957 1.44178C4.52425 1.45671 4.48665 1.46359 4.44792 1.46359H4.29867V1.46589ZM9.11458 4.49639C9.06787 4.49639 9.02458 4.47688 8.99382 4.44588C8.96305 4.41489 8.94369 4.37127 8.94369 4.3242C8.94369 4.27599 8.96305 4.23352 8.99382 4.20253C9.02458 4.17153 9.06787 4.15202 9.11458 4.15202H9.45866C9.43701 3.88455 9.37207 3.62857 9.27067 3.3921C9.16699 3.14759 9.02458 2.92375 8.8514 2.7286L8.64176 2.93982L8.63949 2.94211C8.60645 2.97425 8.56315 2.99032 8.521 2.99032C8.4777 2.99032 8.43327 2.97311 8.40023 2.93982C8.36719 2.90653 8.3501 2.86176 8.3501 2.81814C8.3501 2.77337 8.36719 2.72975 8.40023 2.69646L8.60645 2.48868C8.41048 2.32109 8.18718 2.18563 7.9445 2.08691C7.7098 1.99164 7.45573 1.93309 7.19141 1.91587V2.28665C7.19141 2.33486 7.17204 2.37734 7.14128 2.40833C7.11051 2.43932 7.06722 2.45884 7.02051 2.45884C6.97266 2.45884 6.9305 2.43932 6.89974 2.40833C6.86898 2.37734 6.84961 2.33372 6.84961 2.28665V1.91702C6.58643 1.93768 6.33577 2.00082 6.10335 2.09954C5.86296 2.20171 5.64307 2.3406 5.44938 2.5105L5.68864 2.75156C5.72168 2.78485 5.73877 2.82962 5.73877 2.87324C5.73877 2.91801 5.72168 2.96163 5.68864 2.99492C5.6556 3.02821 5.61117 3.04542 5.56787 3.04542C5.52458 3.04542 5.48014 3.02821 5.4471 2.99492L5.20785 2.75385C5.03923 2.95015 4.90137 3.17284 4.80111 3.4162C4.70426 3.65153 4.6416 3.90521 4.62223 4.17153H5.00277C5.05062 4.17153 5.09277 4.19105 5.12354 4.22204C5.1543 4.25303 5.17367 4.29665 5.17367 4.34372C5.17367 4.39078 5.1543 4.4344 5.12354 4.4654C5.09277 4.49639 5.04948 4.51591 5.00277 4.51591H4.62109C4.63818 4.78452 4.69857 5.04165 4.79541 5.27927C4.89453 5.52493 5.03353 5.74992 5.20215 5.94736L5.43799 5.70974C5.47103 5.67645 5.51546 5.65923 5.55876 5.65923C5.60319 5.65923 5.64648 5.67645 5.67952 5.70974C5.71257 5.74303 5.72966 5.7878 5.72966 5.83142C5.72966 5.87619 5.71257 5.91981 5.67952 5.9531L5.44255 6.19187C5.63851 6.3652 5.8641 6.50754 6.10791 6.61086C6.34489 6.71072 6.60124 6.77386 6.87012 6.79223V6.49721C6.87012 6.45015 6.88949 6.40653 6.92025 6.37553C6.95101 6.34454 6.9943 6.32502 7.04102 6.32502C7.08773 6.32502 7.13102 6.34454 7.16178 6.37553C7.19255 6.40653 7.21191 6.45015 7.21191 6.49721V6.79452C7.48079 6.77501 7.73828 6.71187 7.9764 6.612C8.22249 6.50869 8.44694 6.3652 8.64404 6.19072L8.4196 5.96458C8.38656 5.93129 8.36947 5.88652 8.36947 5.8429C8.36947 5.79813 8.38656 5.75451 8.4196 5.72122C8.45264 5.68793 8.49707 5.67071 8.54036 5.67071C8.5848 5.67071 8.62809 5.68793 8.66113 5.72122L8.8833 5.94506C9.05306 5.74533 9.19206 5.51689 9.29118 5.26894C9.38688 5.02788 9.44613 4.76845 9.46208 4.49754H9.11458V4.49639ZM7.2404 4.65021C7.19255 4.70302 7.12988 4.73172 7.06494 4.73631C6.99886 4.7409 6.93164 4.72024 6.87695 4.67202L6.87354 4.66973C6.82113 4.62266 6.79264 4.55838 6.78923 4.4941C6.78467 4.42752 6.80518 4.35979 6.85303 4.30469L7.74854 3.27271C7.79525 3.21876 7.86019 3.18891 7.92627 3.18432C7.99235 3.17973 8.05957 3.20039 8.11426 3.24861C8.16781 3.29567 8.19743 3.3611 8.20199 3.42768C8.20654 3.49426 8.18604 3.56199 8.13818 3.61709C7.83854 3.96031 7.53662 4.30354 7.2404 4.65021Z" fill="black"/>
</svg>
