<svg width="14" height="14" viewBox="0 0 14 14"  xmlns="http://www.w3.org/2000/svg">
<path d="M10.2402 1.09854H9.2191C8.70807 0.431211 7.90351 0 6.99999 0C6.09647 0 5.29194 0.431211 4.78091 1.09854H3.75987C2.133 1.09854 0.809448 2.42208 0.809448 4.04893V9.97046C0.809421 12.1924 2.61709 14 4.83899 14H9.16105C11.3829 14 13.1906 12.1924 13.1906 9.97046V4.04893C13.1906 2.42208 11.867 1.09854 10.2402 1.09854ZM6.99999 0.557758C8.233 0.557758 9.23611 1.56089 9.23611 2.79388C9.23611 4.02686 8.23297 5.02996 6.99999 5.02996C5.76701 5.02996 4.76387 4.02683 4.76387 2.79385C4.76387 1.56086 5.76701 0.557758 6.99999 0.557758ZM12.6329 9.97046H12.6328C12.6328 11.8848 11.0754 13.4422 9.16105 13.4422H4.83899C2.92462 13.4422 1.36721 11.8848 1.36721 9.97046V4.04893C1.36721 2.72962 2.44056 1.65629 3.75987 1.65629H4.44844C4.29282 2.00397 4.20614 2.38897 4.20614 2.7939C4.20614 4.33445 5.45944 5.5878 7.00005 5.5878C8.54065 5.5878 9.79395 4.3345 9.79395 2.7939C9.79395 2.389 9.70727 2.004 9.55165 1.65629H10.2402C11.5595 1.65629 12.6329 2.72962 12.6329 4.04893V9.97046H12.6329Z" fill="black" />
<path d="M6.99995 0.920319C6.84595 0.920319 6.72107 1.0452 6.72107 1.1992V2.78883C6.72107 2.94283 6.84595 3.06771 6.99995 3.06771C7.15395 3.06771 7.27883 2.94283 7.27883 2.78883V1.19922C7.27885 1.04522 7.15398 0.920319 6.99995 0.920319Z" fill="black"/>
<path d="M1.98005 4.99203C1.82605 4.99203 1.70117 5.11691 1.70117 5.27091V9.37051C1.70117 9.52451 1.82605 9.64939 1.98005 9.64939C2.13405 9.64939 2.25893 9.52451 2.25893 9.37051V5.27091C2.25893 5.11691 2.13405 4.99203 1.98005 4.99203Z" fill="black"/>
<path d="M1.98005 3.82071C1.82605 3.82071 1.70117 3.94559 1.70117 4.09959V4.37847C1.70117 4.53247 1.82605 4.65735 1.98005 4.65735C2.13405 4.65735 2.25893 4.53247 2.25893 4.37847V4.09959C2.25893 3.94559 2.13405 3.82071 1.98005 3.82071Z" fill="black"/>
</svg>
