<svg width="11" height="11" viewBox="0 0 11 11" fill="none" xmlns="http://www.w3.org/2000/svg">
<circle cx="5.5" cy="5.5" r="5.25" stroke="#2A8BFC" stroke-width="0.5"/>
<path d="M5.22021 6.59863C5.22477 6.32747 5.25553 6.11328 5.3125 5.95605C5.36947 5.79883 5.48568 5.62451 5.66113 5.43311L6.10889 4.97168C6.30029 4.75521 6.396 4.52279 6.396 4.27441C6.396 4.03516 6.33333 3.84831 6.20801 3.71387C6.08268 3.57715 5.90039 3.50879 5.66113 3.50879C5.42871 3.50879 5.24186 3.57031 5.10059 3.69336C4.95931 3.81641 4.88867 3.98161 4.88867 4.18896H4.25635C4.2609 3.81982 4.39193 3.52246 4.64941 3.29688C4.90918 3.06901 5.24642 2.95508 5.66113 2.95508C6.0918 2.95508 6.42676 3.07129 6.66602 3.30371C6.90755 3.53385 7.02832 3.85059 7.02832 4.25391C7.02832 4.65267 6.84375 5.04574 6.47461 5.43311L6.10205 5.80225C5.93571 5.98682 5.85254 6.25228 5.85254 6.59863H5.22021ZM5.19287 7.68213C5.19287 7.57959 5.22363 7.49414 5.28516 7.42578C5.34896 7.35514 5.44238 7.31982 5.56543 7.31982C5.68848 7.31982 5.7819 7.35514 5.8457 7.42578C5.90951 7.49414 5.94141 7.57959 5.94141 7.68213C5.94141 7.78467 5.90951 7.87012 5.8457 7.93848C5.7819 8.00456 5.68848 8.0376 5.56543 8.0376C5.44238 8.0376 5.34896 8.00456 5.28516 7.93848C5.22363 7.87012 5.19287 7.78467 5.19287 7.68213Z" fill="#2A8BFC"/>
</svg>
