<svg class="svg-icon" style="height: 32px;vertical-align: middle;fill: currentColor;overflow: hidden;" viewBox="0 0 1024 1024" version="1.1" xmlns="http://www.w3.org/2000/svg"><path d="M859.1 161H165.9c-19.8 0-35.9 16.9-35.9 37.7v627.7c0 20.8 16.1 37.7 35.9 37.7h693.3c19.8 0 35.9-16.9 35.9-37.7V198.7c-0.1-20.8-16.2-37.7-36-37.7z m0 150.6v147.2H652V311.6h207.1zM408.9 642.9V496.5h207.2V643H408.9z m207.2 37.7v145.7H408.9V680.6h207.2zM373 642.9H165.9V496.5H373v146.4z m243.1-331.3v147.2H408.9V311.6h207.2zM652 496.5h207.2V643H652V496.5zM416.9 198.7c19.8 0 35.9 16.9 35.9 37.7 0 20.8-16.1 37.7-35.9 37.7-19.8 0-35.9-16.9-35.9-37.7 0-20.9 16.1-37.7 35.9-37.7z m-107.6 0c19.8 0 35.9 16.9 35.9 37.7 0 20.8-16.1 37.7-35.9 37.7-19.8 0-35.9-16.9-35.9-37.7 0-20.9 16.1-37.7 35.9-37.7z m-107.6 0c19.8 0 35.9 16.9 35.9 37.7 0 20.8-16.1 37.7-35.9 37.7-19.8 0-35.9-16.9-35.9-37.7 0.1-20.9 16.1-37.7 35.9-37.7z m0 112.9H373v147.2H165.9V311.6h35.8z m-35.8 369H373v145.7H165.9V680.6zM652 826.3V680.6h207.2v145.7H652z m0 0" /></svg>
