<svg xmlns="http://www.w3.org/2000/svg" version="1.0" width="160" height="32" viewBox="0 0 1090.000000 126" preserveAspectRatio="xMidYMid meet">
  <g transform="translate(0,126) scale(0.1,-0.1)" fill="#f87007" stroke="none">
    <path d="M1616 1168 c-41 -41 -128 -177 -431 -673 -202 -331 -225 -365 -246 -365 -20 0 -22 2 -302 435 -75 116 -193 297 -262 403 l-126 192 -59 0 c-32 0 -61 -4 -64 -9 -7 -11 50 -105 241 -397 82 -126 216 -332 298 -457 147 -226 192 -281 240 -293 45 -11 97 6 135 44 20 20 130 190 244 377 115 187 225 367 246 400 21 33 59 96 85 140 51 86 82 125 99 125 6 0 18 -11 27 -23 15 -21 378 -592 551 -867 89 -141 131 -186 182 -195 86 -17 124 17 256 227 57 90 128 204 160 253 214 337 394 633 398 652 4 22 1 23 -56 23 -74 0 -26 64 -400 -535 -155 -247 -292 -463 -305 -479 l-24 -30 -25 27 c-14 15 -42 55 -63 89 -52 85 -520 820 -562 884 -40 60 -95 94 -152 94 -36 0 -48 -6 -85 -42z"/>
    <path d="M4117 1195 c-42 -22 -48 -31 -284 -400 -339 -533 -373 -586 -414 -650 -22 -33 -39 -65 -39 -71 0 -16 24 -24 72 -24 52 0 68 18 179 196 443 711 529 844 544 844 26 0 3 35 533 -810 74 -118 140 -218 146 -223 6 -4 36 -6 66 -5 41 2 56 7 58 19 2 9 -32 70 -74 135 -104 161 -163 254 -359 564 -231 364 -258 403 -300 423 -44 21 -91 22 -128 2z"/>
    <path d="M9075 1190 c-130 -26 -265 -105 -347 -204 -125 -149 -169 -350 -117 -536 27 -97 67 -167 145 -249 72 -76 142 -122 246 -159 l73 -26 580 0 c638 -1 633 -1 762 61 132 64 236 180 297 332 27 69 30 87 30 191 1 95 -3 127 -22 185 -34 100 -81 172 -165 251 -83 79 -150 115 -262 144 -74 19 -109 20 -629 19 -303 -1 -569 -5 -591 -9z m1246 -138 c212 -86 338 -306 300 -522 -28 -157 -122 -278 -268 -348 l-78 -37 -275 -6 c-408 -10 -882 -1 -950 18 -127 34 -237 130 -296 258 -121 261 27 573 307 649 45 13 149 15 629 13 572 -2 575 -2 631 -25z"/>
    <path d="M5375 1138 c-3 -13 -4 -261 -3 -553 l3 -530 45 -2 c25 0 51 4 58 9 17 15 18 1068 0 1086 -7 7 -31 12 -55 12 -36 0 -43 -4 -48 -22z"/>
    <path d="M5880 1147 c0 -7 41 -78 91 -158 50 -79 140 -220 199 -314 59 -93 167 -264 240 -380 139 -219 167 -258 212 -281 55 -29 117 -13 170 43 14 15 129 190 253 388 125 198 258 407 295 465 114 179 142 228 135 239 -7 12 -104 15 -121 3 -12 -8 -137 -203 -394 -612 -233 -370 -261 -411 -283 -408 -20 3 -59 61 -320 478 -78 124 -187 297 -243 385 l-102 160 -66 3 c-50 2 -66 0 -66 -11z"/>
    <path d="M7876 1145 c-3 -9 -6 -254 -6 -544 0 -397 3 -530 12 -539 13 -13 76 -16 96 -4 10 7 12 124 10 553 l-3 544 -51 3 c-40 2 -53 -1 -58 -13z"/>
  </g>
</svg>
